IBM Plex Sans Condensed-Regular.ufo
<glyph name="exclam" format="1">
  <advance width="258"/>
  <unicode hex="0021"/>
  <outline>
    <contour>
      <point x="148" y="183" type="line"/>
      <point x="171" y="494" type="line"/>
      <point x="171" y="698" type="line"/>
      <point x="87" y="698" type="line"/>
      <point x="87" y="494" type="line"/>
      <point x="110" y="183" type="line"/>
    </contour>
    <contour>
      <point x="129" y="-12" type="curve" smooth="yes"/>
      <point x="168" y="-12"/>
      <point x="188" y="6"/>
      <point x="188" y="39" type="curve" smooth="yes" name="hr01"/>
      <point x="188" y="55" type="line" smooth="yes"/>
      <point x="188" y="88"/>
      <point x="168" y="106"/>
      <point x="129" y="106" type="curve" smooth="yes"/>
      <point x="90" y="106"/>
      <point x="70" y="88"/>
      <point x="70" y="55" type="curve" smooth="yes"/>
      <point x="70" y="39" type="line" smooth="yes"/>
      <point x="70" y="6"/>
      <point x="90" y="-12"/>
    </contour>
  </outline>
</glyph>
<glyph name="numbersign" format="1">
  <advance width="637"/>
  <unicode hex="0023"/>
  <outline>
    <contour>
      <point x="333" y="0" type="line" name="hr00"/>
      <point x="391" y="0" type="line"/>
      <point x="422" y="207" type="line"/>
      <point x="545" y="207" type="line"/>
      <point x="545" y="261" type="line"/>
      <point x="431" y="261" type="line"/>
      <point x="459" y="437" type="line"/>
      <point x="581" y="437" type="line"/>
      <point x="581" y="491" type="line"/>
      <point x="468" y="491" type="line"/>
      <point x="499" y="698" type="line"/>
      <point x="441" y="698" type="line"/>
      <point x="410" y="491" type="line"/>
      <point x="268" y="491" type="line"/>
      <point x="299" y="698" type="line"/>
      <point x="241" y="698" type="line"/>
      <point x="210" y="491" type="line"/>
      <point x="87" y="491" type="line"/>
      <point x="87" y="437" type="line"/>
      <point x="201" y="437" type="line"/>
      <point x="173" y="261" type="line"/>
      <point x="51" y="261" type="line"/>
      <point x="51" y="207" type="line"/>
      <point x="164" y="207" type="line"/>
      <point x="133" y="0" type="line"/>
      <point x="191" y="0" type="line"/>
      <point x="222" y="207" type="line"/>
      <point x="364" y="207" type="line"/>
    </contour>
    <contour>
      <point x="231" y="261" type="line"/>
      <point x="259" y="437" type="line"/>
      <point x="401" y="437" type="line"/>
      <point x="373" y="261" type="line"/>
    </contour>
  </outline>
</glyph>
<glyph name="dollar" format="1">
  <advance width="538"/>
  <unicode hex="0024"/>
  <outline>
    <contour>
      <point x="490" y="196" type="curve" smooth="yes" name="hr00"/>
      <point x="490" y="305"/>
      <point x="432" y="357"/>
      <point x="303" y="390" type="curve"/>
      <point x="303" y="634" type="line"/>
      <point x="364" y="625"/>
      <point x="404" y="590"/>
      <point x="428" y="552" type="curve"/>
      <point x="484" y="595" type="line"/>
      <point x="447" y="653"/>
      <point x="388" y="692"/>
      <point x="305" y="700" type="curve"/>
      <point x="305" y="780" type="line"/>
      <point x="241" y="780" type="line"/>
      <point x="241" y="700" type="line"/>
      <point x="136" y="690"/>
      <point x="66" y="626"/>
      <point x="66" y="519" type="curve" smooth="yes"/>
      <point x="66" y="417"/>
      <point x="117" y="362"/>
      <point x="243" y="330" type="curve"/>
      <point x="243" y="64" type="line"/>
      <point x="184" y="74"/>
      <point x="133" y="113"/>
      <point x="103" y="160" type="curve"/>
      <point x="48" y="109" type="line"/>
      <point x="90" y="52"/>
      <point x="157" y="7"/>
      <point x="241" y="-2" type="curve"/>
      <point x="241" y="-82" type="line"/>
      <point x="305" y="-82" type="line"/>
      <point x="305" y="-3" type="line"/>
      <point x="420" y="7"/>
      <point x="490" y="74"/>
    </contour>
    <contour>
      <point x="141" y="526" type="curve" smooth="yes"/>
      <point x="141" y="585"/>
      <point x="178" y="625"/>
      <point x="243" y="634" type="curve"/>
      <point x="243" y="405" type="line"/>
      <point x="176" y="422"/>
      <point x="141" y="455"/>
    </contour>
    <contour>
      <point x="416" y="189" type="curve" smooth="yes"/>
      <point x="416" y="116"/>
      <point x="376" y="73"/>
      <point x="303" y="64" type="curve"/>
      <point x="303" y="316" type="line"/>
      <point x="383" y="293"/>
      <point x="416" y="257"/>
    </contour>
  </outline>
</glyph>
<glyph name="ampersand" format="1">
  <advance width="626"/>
  <unicode hex="0026"/>
  <outline>
    <contour>
      <point x="506" y="0" type="line"/>
      <point x="604" y="0" type="line"/>
      <point x="480" y="147" type="line"/>
      <point x="501" y="191"/>
      <point x="516" y="242"/>
      <point x="525" y="301" type="curve"/>
      <point x="588" y="301" type="line"/>
      <point x="588" y="366" type="line"/>
      <point x="464" y="366" type="line"/>
      <point x="461" y="306"/>
      <point x="452" y="246"/>
      <point x="434" y="195" type="curve"/>
      <point x="296" y="367" type="line"/>
      <point x="375" y="416"/>
      <point x="431" y="469"/>
      <point x="431" y="556" type="curve" smooth="yes"/>
      <point x="431" y="652"/>
      <point x="371" y="710"/>
      <point x="271" y="710" type="curve" smooth="yes"/>
      <point x="171" y="710"/>
      <point x="111" y="652"/>
      <point x="111" y="556" type="curve" smooth="yes"/>
      <point x="111" y="494"/>
      <point x="148" y="428"/>
      <point x="192" y="378" type="curve"/>
      <point x="114" y="338"/>
      <point x="64" y="276"/>
      <point x="64" y="181" type="curve" smooth="yes" name="hr01"/>
      <point x="64" y="63"/>
      <point x="132" y="-12"/>
      <point x="259" y="-12" type="curve" smooth="yes"/>
      <point x="347" y="-12"/>
      <point x="407" y="48"/>
      <point x="415" y="103" type="curve" name="hr02"/>
      <point x="425" y="103" type="line"/>
    </contour>
    <contour>
      <point x="271" y="647" type="curve" smooth="yes"/>
      <point x="323" y="647"/>
      <point x="357" y="617"/>
      <point x="357" y="563" type="curve" smooth="yes"/>
      <point x="357" y="549" type="line" smooth="yes"/>
      <point x="357" y="491"/>
      <point x="313" y="443"/>
      <point x="255" y="410" type="curve"/>
      <point x="217" y="454"/>
      <point x="185" y="508"/>
      <point x="185" y="549" type="curve" smooth="yes"/>
      <point x="185" y="563" type="line" smooth="yes"/>
      <point x="185" y="617"/>
      <point x="219" y="647"/>
    </contour>
    <contour>
      <point x="267" y="53" type="curve" smooth="yes" name="hr03"/>
      <point x="192" y="53"/>
      <point x="142" y="93"/>
      <point x="142" y="168" type="curve" smooth="yes"/>
      <point x="142" y="197" type="line" smooth="yes"/>
      <point x="142" y="265"/>
      <point x="172" y="303"/>
      <point x="232" y="334" type="curve"/>
      <point x="398" y="129" type="line"/>
      <point x="369" y="81"/>
      <point x="325" y="53"/>
    </contour>
  </outline>
</glyph>
<glyph name="quotesingle" format="1">
  <advance width="220"/>
  <unicode hex="0027"/>
  <outline>
    <contour>
      <point x="144" y="463" type="line" name="hr00"/>
      <point x="144" y="740" type="line"/>
      <point x="76" y="740" type="line"/>
      <point x="76" y="463" type="line"/>
    </contour>
  </outline>
</glyph>
<glyph name="parenleft" format="1">
  <advance width="302"/>
  <unicode hex="0028"/>
  <outline>
    <contour>
      <point x="72" y="311" type="curve" name="hr00"/>
      <point x="72" y="106"/>
      <point x="143" y="-51"/>
      <point x="235" y="-138" type="curve"/>
      <point x="307" y="-138" type="line"/>
      <point x="207" y="-38"/>
      <point x="144" y="115"/>
      <point x="144" y="253" type="curve" smooth="yes"/>
      <point x="144" y="369" type="line" smooth="yes"/>
      <point x="144" y="507"/>
      <point x="207" y="660"/>
      <point x="307" y="760" type="curve"/>
      <point x="235" y="760" type="line"/>
      <point x="143" y="673"/>
      <point x="72" y="516"/>
    </contour>
  </outline>
</glyph>
<glyph name="parenright" format="1">
  <advance width="302"/>
  <unicode hex="0029"/>
  <outline>
    <contour>
      <point x="230" y="311" type="curve" name="hr00"/>
      <point x="230" y="516"/>
      <point x="159" y="673"/>
      <point x="67" y="760" type="curve"/>
      <point x="-5" y="760" type="line"/>
      <point x="95" y="660"/>
      <point x="158" y="507"/>
      <point x="158" y="369" type="curve" smooth="yes"/>
      <point x="158" y="253" type="line" smooth="yes"/>
      <point x="158" y="115"/>
      <point x="95" y="-38"/>
      <point x="-5" y="-138" type="curve"/>
      <point x="67" y="-138" type="line"/>
      <point x="159" y="-51"/>
      <point x="230" y="106"/>
    </contour>
  </outline>
</glyph>
<glyph name="asterisk" format="1">
  <advance width="414"/>
  <unicode hex="002A"/>
  <outline>
    <contour>
      <point x="341" y="445" type="line" name="hr00"/>
      <point x="249" y="551" type="line"/>
      <point x="252" y="559" type="line"/>
      <point x="388" y="591" type="line"/>
      <point x="366" y="657" type="line"/>
      <point x="237" y="603" type="line"/>
      <point x="230" y="608" type="line"/>
      <point x="242" y="747" type="line"/>
      <point x="172" y="747" type="line"/>
      <point x="184" y="608" type="line"/>
      <point x="177" y="603" type="line"/>
      <point x="48" y="657" type="line"/>
      <point x="26" y="591" type="line"/>
      <point x="162" y="559" type="line"/>
      <point x="165" y="551" type="line"/>
      <point x="73" y="445" type="line"/>
      <point x="130" y="404" type="line"/>
      <point x="203" y="524" type="line"/>
      <point x="211" y="524" type="line"/>
      <point x="284" y="404" type="line"/>
    </contour>
  </outline>
</glyph>
<glyph name="plus" format="1">
  <advance width="540"/>
  <unicode hex="002B"/>
  <outline>
    <contour>
      <point x="306" y="91" type="line" name="hr00"/>
      <point x="306" y="273" type="line"/>
      <point x="480" y="273" type="line"/>
      <point x="480" y="337" type="line"/>
      <point x="306" y="337" type="line"/>
      <point x="306" y="519" type="line"/>
      <point x="234" y="519" type="line"/>
      <point x="234" y="337" type="line"/>
      <point x="60" y="337" type="line"/>
      <point x="60" y="273" type="line"/>
      <point x="234" y="273" type="line"/>
      <point x="234" y="91" type="line"/>
    </contour>
  </outline>
</glyph>
<glyph name="comma" format="1">
  <advance width="248"/>
  <unicode hex="002C"/>
  <outline>
    <contour>
      <point x="124" y="106" type="curve" smooth="yes" name="hr00"/>
      <point x="85" y="106"/>
      <point x="65" y="88"/>
      <point x="65" y="55" type="curve" smooth="yes"/>
      <point x="65" y="39" type="line" smooth="yes"/>
      <point x="65" y="12"/>
      <point x="78" y="-4"/>
      <point x="104" y="-10" type="curve"/>
      <point x="94" y="-57"/>
      <point x="71" y="-90"/>
      <point x="35" y="-132" type="curve"/>
      <point x="97" y="-132" type="line"/>
      <point x="149" y="-83"/>
      <point x="183" y="-13"/>
      <point x="183" y="39" type="curve" smooth="yes"/>
      <point x="183" y="55" type="line" smooth="yes"/>
      <point x="183" y="88"/>
      <point x="163" y="106"/>
    </contour>
  </outline>
</glyph>
<glyph name="period" format="1">
  <advance width="248"/>
  <unicode hex="002E"/>
  <outline>
    <contour>
      <point x="124" y="-12" type="curve" smooth="yes" name="hr00"/>
      <point x="163" y="-12"/>
      <point x="183" y="6"/>
      <point x="183" y="39" type="curve" smooth="yes"/>
      <point x="183" y="55" type="line" smooth="yes"/>
      <point x="183" y="88"/>
      <point x="163" y="106"/>
      <point x="124" y="106" type="curve" smooth="yes"/>
      <point x="85" y="106"/>
      <point x="65" y="88"/>
      <point x="65" y="55" type="curve" smooth="yes"/>
      <point x="65" y="39" type="line" smooth="yes"/>
      <point x="65" y="6"/>
      <point x="85" y="-12"/>
    </contour>
  </outline>
</glyph>
<glyph name="slash" format="1">
  <advance width="349"/>
  <unicode hex="002F"/>
  <outline>
    <contour>
      <point x="75" y="-151" type="line" name="hr00"/>
      <point x="312" y="740" type="line"/>
      <point x="245" y="740" type="line"/>
      <point x="8" y="-151" type="line"/>
    </contour>
  </outline>
</glyph>
<glyph name="zero" format="1">
  <advance width="540"/>
  <unicode hex="0030"/>
  <outline>
    <contour>
      <point x="270" y="-12" type="curve" smooth="yes" name="hr00"/>
      <point x="421" y="-12"/>
      <point x="488" y="91"/>
      <point x="488" y="349" type="curve" smooth="yes"/>
      <point x="488" y="607"/>
      <point x="421" y="710"/>
      <point x="270" y="710" type="curve" smooth="yes"/>
      <point x="119" y="710"/>
      <point x="52" y="607"/>
      <point x="52" y="349" type="curve" smooth="yes"/>
      <point x="52" y="91"/>
      <point x="119" y="-12"/>
    </contour>
    <contour>
      <point x="270" y="57" type="curve" smooth="yes"/>
      <point x="174" y="57"/>
      <point x="136" y="130"/>
      <point x="136" y="253" type="curve" smooth="yes"/>
      <point x="136" y="445" type="line" smooth="yes"/>
      <point x="136" y="568"/>
      <point x="174" y="641"/>
      <point x="270" y="641" type="curve" smooth="yes"/>
      <point x="366" y="641"/>
      <point x="404" y="568"/>
      <point x="404" y="445" type="curve" smooth="yes"/>
      <point x="404" y="253" type="line" smooth="yes"/>
      <point x="404" y="130"/>
      <point x="366" y="57"/>
    </contour>
  </outline>
</glyph>
<glyph name="one" format="1">
  <advance width="540"/>
  <unicode hex="0031"/>
  <outline>
    <contour>
      <point x="493" y="0" type="line" name="hr00"/>
      <point x="493" y="70" type="line"/>
      <point x="333" y="70" type="line"/>
      <point x="333" y="698" type="line"/>
      <point x="245" y="698" type="line"/>
      <point x="47" y="568" type="line"/>
      <point x="81" y="513" type="line"/>
      <point x="253" y="625" type="line"/>
      <point x="253" y="70" type="line"/>
      <point x="79" y="70" type="line"/>
      <point x="79" y="0" type="line"/>
    </contour>
  </outline>
</glyph>
<glyph name="two" format="1">
  <advance width="540"/>
  <unicode hex="0032"/>
  <outline>
    <contour>
      <point x="481" y="70" type="line" name="hr00"/>
      <point x="152" y="70" type="line"/>
      <point x="326" y="253" type="line" smooth="yes"/>
      <point x="430" y="362"/>
      <point x="458" y="420"/>
      <point x="458" y="511" type="curve" smooth="yes"/>
      <point x="458" y="641"/>
      <point x="397" y="710"/>
      <point x="267" y="710" type="curve"/>
      <point x="159" y="710"/>
      <point x="89" y="645"/>
      <point x="63" y="560" type="curve"/>
      <point x="133" y="532" type="line"/>
      <point x="150" y="599"/>
      <point x="194" y="639"/>
      <point x="265" y="639" type="curve" smooth="yes"/>
      <point x="339" y="639"/>
      <point x="374" y="599"/>
      <point x="374" y="514" type="curve" smooth="yes"/>
      <point x="374" y="488" type="line" smooth="yes"/>
      <point x="374" y="430"/>
      <point x="345" y="372"/>
      <point x="278" y="303" type="curve" smooth="yes"/>
      <point x="66" y="83" type="line"/>
      <point x="66" y="0" type="line"/>
      <point x="481" y="0" type="line"/>
    </contour>
  </outline>
</glyph>
<glyph name="three" format="1">
  <advance width="540"/>
  <unicode hex="0033"/>
  <outline>
    <contour>
      <point x="167" y="401" type="line"/>
      <point x="167" y="331" type="line"/>
      <point x="241" y="331" type="line" smooth="yes"/>
      <point x="327" y="331"/>
      <point x="373" y="289"/>
      <point x="373" y="203" type="curve" smooth="yes"/>
      <point x="373" y="187" type="line" smooth="yes"/>
      <point x="373" y="101"/>
      <point x="327" y="59"/>
      <point x="241" y="59" type="curve" smooth="yes"/>
      <point x="165" y="59"/>
      <point x="129" y="95"/>
      <point x="97" y="149" type="curve"/>
      <point x="37" y="104" type="line"/>
      <point x="76" y="45"/>
      <point x="134" y="-12"/>
      <point x="243" y="-12" type="curve" smooth="yes"/>
      <point x="380" y="-12"/>
      <point x="457" y="67"/>
      <point x="457" y="191" type="curve" smooth="yes"/>
      <point x="457" y="300"/>
      <point x="396" y="355"/>
      <point x="320" y="363" type="curve"/>
      <point x="320" y="373" type="line"/>
      <point x="389" y="387"/>
      <point x="445" y="441"/>
      <point x="445" y="535" type="curve" smooth="yes" name="hr01"/>
      <point x="445" y="656"/>
      <point x="369" y="710"/>
      <point x="255" y="710" type="curve" smooth="yes"/>
      <point x="154" y="710"/>
      <point x="96" y="655"/>
      <point x="64" y="598" type="curve"/>
      <point x="122" y="553" type="line"/>
      <point x="148" y="608"/>
      <point x="186" y="639"/>
      <point x="250" y="639" type="curve" smooth="yes"/>
      <point x="318" y="639"/>
      <point x="361" y="608"/>
      <point x="361" y="530" type="curve" smooth="yes"/>
      <point x="361" y="515" type="line" smooth="yes"/>
      <point x="361" y="445"/>
      <point x="318" y="401"/>
      <point x="235" y="401" type="curve" smooth="yes"/>
    </contour>
  </outline>
</glyph>
<glyph name="four" format="1">
  <advance width="540"/>
  <unicode hex="0034"/>
  <outline>
    <contour>
      <point x="411" y="0" type="line" name="hr00"/>
      <point x="411" y="137" type="line"/>
      <point x="501" y="137" type="line"/>
      <point x="501" y="204" type="line"/>
      <point x="411" y="204" type="line"/>
      <point x="411" y="698" type="line"/>
      <point x="294" y="698" type="line"/>
      <point x="34" y="208" type="line"/>
      <point x="34" y="137" type="line"/>
      <point x="335" y="137" type="line"/>
      <point x="335" y="0" type="line"/>
    </contour>
    <contour>
      <point x="325" y="634" type="line"/>
      <point x="335" y="634" type="line"/>
      <point x="335" y="204" type="line"/>
      <point x="107" y="204" type="line"/>
    </contour>
  </outline>
</glyph>
<glyph name="five" format="1">
  <advance width="540"/>
  <unicode hex="0035"/>
  <outline>
    <contour>
      <point x="450" y="698" type="line" name="hr00"/>
      <point x="110" y="698" type="line"/>
      <point x="87" y="315" type="line"/>
      <point x="155" y="306" type="line"/>
      <point x="179" y="339"/>
      <point x="208" y="365"/>
      <point x="268" y="365" type="curve" smooth="yes"/>
      <point x="355" y="365"/>
      <point x="396" y="316"/>
      <point x="396" y="224" type="curve" smooth="yes"/>
      <point x="396" y="200" type="line" smooth="yes"/>
      <point x="396" y="108"/>
      <point x="355" y="59"/>
      <point x="268" y="59" type="curve" smooth="yes"/>
      <point x="203" y="59"/>
      <point x="159" y="92"/>
      <point x="127" y="151" type="curve"/>
      <point x="67" y="106" type="line"/>
      <point x="102" y="40"/>
      <point x="175" y="-12"/>
      <point x="268" y="-12" type="curve" smooth="yes"/>
      <point x="402" y="-12"/>
      <point x="480" y="69"/>
      <point x="480" y="218" type="curve" smooth="yes"/>
      <point x="480" y="362"/>
      <point x="405" y="434"/>
      <point x="295" y="434" type="curve" smooth="yes"/>
      <point x="225" y="434"/>
      <point x="184" y="399"/>
      <point x="166" y="351" type="curve"/>
      <point x="156" y="351" type="line"/>
      <point x="174" y="628" type="line"/>
      <point x="450" y="628" type="line"/>
    </contour>
  </outline>
</glyph>
<glyph name="six" format="1">
  <advance width="540"/>
  <unicode hex="0036"/>
  <outline>
    <contour>
      <point x="270" y="-12" type="curve" smooth="yes" name="hr00"/>
      <point x="409" y="-12"/>
      <point x="483" y="74"/>
      <point x="483" y="218" type="curve" smooth="yes"/>
      <point x="483" y="362"/>
      <point x="411" y="434"/>
      <point x="298" y="434" type="curve" smooth="yes"/>
      <point x="219" y="434"/>
      <point x="171" y="391"/>
      <point x="150" y="335" type="curve"/>
      <point x="140" y="335" type="line"/>
      <point x="175" y="501"/>
      <point x="250" y="589"/>
      <point x="386" y="698" type="curve"/>
      <point x="283" y="698" type="line"/>
      <point x="180" y="625"/>
      <point x="57" y="463"/>
      <point x="57" y="253" type="curve" smooth="yes"/>
      <point x="57" y="81"/>
      <point x="131" y="-12"/>
    </contour>
    <contour>
      <point x="270" y="58" type="curve" smooth="yes"/>
      <point x="187" y="58"/>
      <point x="141" y="105"/>
      <point x="141" y="201" type="curve" smooth="yes"/>
      <point x="141" y="221" type="line" smooth="yes"/>
      <point x="141" y="317"/>
      <point x="187" y="364"/>
      <point x="270" y="364" type="curve" smooth="yes"/>
      <point x="353" y="364"/>
      <point x="399" y="317"/>
      <point x="399" y="221" type="curve" smooth="yes"/>
      <point x="399" y="201" type="line" smooth="yes"/>
      <point x="399" y="105"/>
      <point x="353" y="58"/>
    </contour>
  </outline>
</glyph>
<glyph name="seven" format="1">
  <advance width="540"/>
  <unicode hex="0037"/>
  <outline>
    <contour>
      <point x="242" y="0" type="line" name="hr00"/>
      <point x="476" y="628" type="line"/>
      <point x="476" y="698" type="line"/>
      <point x="61" y="698" type="line"/>
      <point x="61" y="499" type="line"/>
      <point x="132" y="499" type="line"/>
      <point x="132" y="629" type="line"/>
      <point x="395" y="629" type="line"/>
      <point x="157" y="0" type="line"/>
    </contour>
  </outline>
</glyph>
<glyph name="eight" format="1">
  <advance width="540"/>
  <unicode hex="0038"/>
  <outline>
    <contour>
      <point x="270" y="-12" type="curve" smooth="yes"/>
      <point x="413" y="-12"/>
      <point x="489" y="66"/>
      <point x="489" y="190" type="curve" smooth="yes"/>
      <point x="489" y="296"/>
      <point x="432" y="351"/>
      <point x="356" y="362" type="curve"/>
      <point x="356" y="372" type="line"/>
      <point x="422" y="386"/>
      <point x="470" y="444"/>
      <point x="470" y="536" type="curve" smooth="yes" name="hr01"/>
      <point x="470" y="652"/>
      <point x="396" y="710"/>
      <point x="270" y="710" type="curve" smooth="yes"/>
      <point x="144" y="710"/>
      <point x="70" y="652"/>
      <point x="70" y="536" type="curve" smooth="yes"/>
      <point x="70" y="444"/>
      <point x="118" y="386"/>
      <point x="184" y="372" type="curve"/>
      <point x="184" y="362" type="line"/>
      <point x="108" y="351"/>
      <point x="51" y="296"/>
      <point x="51" y="190" type="curve" smooth="yes" name="hr02"/>
      <point x="51" y="66"/>
      <point x="127" y="-12"/>
    </contour>
    <contour>
      <point x="270" y="58" type="curve" smooth="yes"/>
      <point x="185" y="58"/>
      <point x="135" y="102"/>
      <point x="135" y="183" type="curve" smooth="yes"/>
      <point x="135" y="209" type="line" smooth="yes"/>
      <point x="135" y="290"/>
      <point x="185" y="334"/>
      <point x="270" y="334" type="curve" smooth="yes"/>
      <point x="355" y="334"/>
      <point x="405" y="290"/>
      <point x="405" y="209" type="curve" smooth="yes"/>
      <point x="405" y="183" type="line" smooth="yes"/>
      <point x="405" y="102"/>
      <point x="355" y="58"/>
    </contour>
    <contour>
      <point x="270" y="401" type="curve" smooth="yes"/>
      <point x="193" y="401"/>
      <point x="152" y="438"/>
      <point x="152" y="510" type="curve" smooth="yes" name="hr03"/>
      <point x="152" y="531" type="line" smooth="yes"/>
      <point x="152" y="603"/>
      <point x="193" y="640"/>
      <point x="270" y="640" type="curve" smooth="yes"/>
      <point x="347" y="640"/>
      <point x="388" y="603"/>
      <point x="388" y="531" type="curve" smooth="yes"/>
      <point x="388" y="510" type="line" smooth="yes"/>
      <point x="388" y="438"/>
      <point x="347" y="401"/>
    </contour>
  </outline>
</glyph>
<glyph name="nine" format="1">
  <advance width="540"/>
  <unicode hex="0039"/>
  <outline>
    <contour>
      <point x="483" y="445" type="curve" smooth="yes" name="hr00"/>
      <point x="483" y="617"/>
      <point x="409" y="710"/>
      <point x="270" y="710" type="curve" smooth="yes"/>
      <point x="131" y="710"/>
      <point x="57" y="624"/>
      <point x="57" y="480" type="curve" smooth="yes"/>
      <point x="57" y="336"/>
      <point x="129" y="264"/>
      <point x="242" y="264" type="curve" smooth="yes"/>
      <point x="321" y="264"/>
      <point x="369" y="307"/>
      <point x="390" y="363" type="curve"/>
      <point x="400" y="363" type="line"/>
      <point x="365" y="197"/>
      <point x="290" y="109"/>
      <point x="154" y="0" type="curve"/>
      <point x="257" y="0" type="line"/>
      <point x="360" y="73"/>
      <point x="483" y="235"/>
    </contour>
    <contour>
      <point x="270" y="334" type="curve" smooth="yes"/>
      <point x="187" y="334"/>
      <point x="141" y="381"/>
      <point x="141" y="477" type="curve" smooth="yes"/>
      <point x="141" y="497" type="line" smooth="yes"/>
      <point x="141" y="593"/>
      <point x="187" y="640"/>
      <point x="270" y="640" type="curve" smooth="yes"/>
      <point x="353" y="640"/>
      <point x="399" y="593"/>
      <point x="399" y="497" type="curve" smooth="yes"/>
      <point x="399" y="477" type="line" smooth="yes"/>
      <point x="399" y="381"/>
      <point x="353" y="334"/>
    </contour>
  </outline>
</glyph>
<glyph name="less" format="1">
  <advance width="540"/>
  <unicode hex="003C"/>
  <outline>
    <contour>
      <point x="458" y="-12" type="line" name="hr00"/>
      <point x="458" y="69" type="line"/>
      <point x="152" y="270" type="line"/>
      <point x="152" y="280" type="line"/>
      <point x="458" y="481" type="line"/>
      <point x="458" y="562" type="line"/>
      <point x="82" y="314" type="line"/>
      <point x="82" y="236" type="line"/>
    </contour>
  </outline>
</glyph>
<glyph name="equal" format="1">
  <advance width="540"/>
  <unicode hex="003D"/>
  <outline>
    <contour>
      <point x="480" y="372" type="line" name="hr00"/>
      <point x="480" y="436" type="line"/>
      <point x="60" y="436" type="line"/>
      <point x="60" y="372" type="line"/>
    </contour>
    <contour>
      <point x="480" y="174" type="line"/>
      <point x="480" y="238" type="line"/>
      <point x="60" y="238" type="line"/>
      <point x="60" y="174" type="line"/>
    </contour>
  </outline>
</glyph>
<glyph name="greater" format="1">
  <advance width="540"/>
  <unicode hex="003E"/>
  <outline>
    <contour>
      <point x="82" y="-12" type="line" name="hr00"/>
      <point x="458" y="236" type="line"/>
      <point x="458" y="314" type="line"/>
      <point x="82" y="562" type="line"/>
      <point x="82" y="481" type="line"/>
      <point x="388" y="280" type="line"/>
      <point x="388" y="270" type="line"/>
      <point x="82" y="69" type="line"/>
    </contour>
  </outline>
</glyph>
<glyph name="question" format="1">
  <advance width="431"/>
  <unicode hex="003F"/>
  <outline>
    <contour>
      <point x="233" y="206" type="line"/>
      <point x="233" y="317" type="line"/>
      <point x="338" y="345"/>
      <point x="398" y="404"/>
      <point x="398" y="522" type="curve" smooth="yes"/>
      <point x="398" y="647"/>
      <point x="332" y="710"/>
      <point x="212" y="710" type="curve" smooth="yes"/>
      <point x="111" y="710"/>
      <point x="44" y="646"/>
      <point x="20" y="550" type="curve"/>
      <point x="87" y="524" type="line"/>
      <point x="103" y="601"/>
      <point x="148" y="641"/>
      <point x="212" y="641" type="curve" smooth="yes"/>
      <point x="275" y="641"/>
      <point x="316" y="601"/>
      <point x="316" y="532" type="curve" smooth="yes"/>
      <point x="316" y="506" type="line" smooth="yes"/>
      <point x="316" y="420"/>
      <point x="258" y="376"/>
      <point x="160" y="371" type="curve"/>
      <point x="160" y="206" type="line"/>
    </contour>
    <contour>
      <point x="196" y="-12" type="curve" smooth="yes"/>
      <point x="235" y="-12"/>
      <point x="255" y="6"/>
      <point x="255" y="39" type="curve" smooth="yes" name="hr01"/>
      <point x="255" y="55" type="line" smooth="yes"/>
      <point x="255" y="88"/>
      <point x="235" y="106"/>
      <point x="196" y="106" type="curve" smooth="yes"/>
      <point x="157" y="106"/>
      <point x="137" y="88"/>
      <point x="137" y="55" type="curve" smooth="yes"/>
      <point x="137" y="39" type="line" smooth="yes"/>
      <point x="137" y="6"/>
      <point x="157" y="-12"/>
    </contour>
  </outline>
</glyph>
<glyph name="at" format="1">
  <advance width="803"/>
  <unicode hex="0040"/>
  <outline>
    <contour>
      <point x="611" y="-68" type="line" name="hr00"/>
      <point x="404" y="-68" type="line" smooth="yes"/>
      <point x="230" y="-68"/>
      <point x="120" y="63"/>
      <point x="120" y="251" type="curve" smooth="yes"/>
      <point x="120" y="332" type="line" smooth="yes"/>
      <point x="120" y="524"/>
      <point x="234" y="658"/>
      <point x="410" y="658" type="curve" smooth="yes"/>
      <point x="569" y="658"/>
      <point x="685" y="549"/>
      <point x="685" y="363" type="curve" smooth="yes"/>
      <point x="685" y="303" type="line" smooth="yes"/>
      <point x="685" y="193"/>
      <point x="654" y="126"/>
      <point x="598" y="126" type="curve" smooth="yes"/>
      <point x="566" y="126"/>
      <point x="551" y="139"/>
      <point x="551" y="196" type="curve" smooth="yes"/>
      <point x="551" y="502" type="line"/>
      <point x="479" y="502" type="line"/>
      <point x="479" y="435" type="line"/>
      <point x="469" y="435" type="line"/>
      <point x="461" y="481"/>
      <point x="425" y="512"/>
      <point x="376" y="512" type="curve" smooth="yes"/>
      <point x="291" y="512"/>
      <point x="223" y="449"/>
      <point x="223" y="291" type="curve" smooth="yes"/>
      <point x="223" y="133"/>
      <point x="291" y="70"/>
      <point x="376" y="70" type="curve" smooth="yes"/>
      <point x="425" y="70"/>
      <point x="461" y="100"/>
      <point x="469" y="146" type="curve"/>
      <point x="479" y="146" type="line"/>
      <point x="487" y="100"/>
      <point x="518" y="70"/>
      <point x="584" y="70" type="curve" smooth="yes"/>
      <point x="693" y="70"/>
      <point x="748" y="169"/>
      <point x="748" y="322" type="curve" smooth="yes"/>
      <point x="748" y="565"/>
      <point x="632" y="710"/>
      <point x="411" y="710" type="curve" smooth="yes"/>
      <point x="190" y="710"/>
      <point x="55" y="545"/>
      <point x="55" y="288" type="curve" smooth="yes"/>
      <point x="55" y="34"/>
      <point x="187" y="-120"/>
      <point x="403" y="-120" type="curve" smooth="yes"/>
      <point x="611" y="-120" type="line"/>
    </contour>
    <contour>
      <point x="393" y="134" type="curve" smooth="yes"/>
      <point x="331" y="134"/>
      <point x="301" y="176"/>
      <point x="301" y="246" type="curve" smooth="yes"/>
      <point x="301" y="335" type="line" smooth="yes"/>
      <point x="301" y="405"/>
      <point x="331" y="447"/>
      <point x="393" y="447" type="curve" smooth="yes"/>
      <point x="451" y="447"/>
      <point x="479" y="407"/>
      <point x="479" y="355" type="curve" smooth="yes"/>
      <point x="479" y="233" type="line" smooth="yes"/>
      <point x="479" y="170"/>
      <point x="451" y="134"/>
    </contour>
  </outline>
</glyph>
<glyph name="A" format="1">
  <advance width="579"/>
  <unicode hex="0041"/>
  <outline>
    <contour>
      <point x="558" y="0" type="line" name="hr00"/>
      <point x="339" y="698" type="line"/>
      <point x="239" y="698" type="line"/>
      <point x="21" y="0" type="line"/>
      <point x="101" y="0" type="line"/>
      <point x="163" y="209" type="line"/>
      <point x="414" y="209" type="line"/>
      <point x="476" y="0" type="line"/>
    </contour>
    <contour>
      <point x="396" y="275" type="line"/>
      <point x="182" y="275" type="line"/>
      <point x="261" y="540" type="line"/>
      <point x="283" y="627" type="line"/>
      <point x="293" y="627" type="line"/>
      <point x="315" y="540" type="line"/>
    </contour>
    <contour>
      <point x="291" y="0" type="move" name="bottom"/>
    </contour>
    <contour>
      <point x="558" y="0" type="move" name="bottomright"/>
    </contour>
    <contour>
      <point x="291" y="698" type="move" name="top"/>
    </contour>
  </outline>
</glyph>
<glyph name="B" format="1">
  <advance width="589"/>
  <unicode hex="0042"/>
  <outline>
    <contour>
      <point x="83" y="0" type="line"/>
      <point x="374" y="0" type="line" smooth="yes"/>
      <point x="468" y="0"/>
      <point x="533" y="75"/>
      <point x="533" y="202" type="curve" smooth="yes"/>
      <point x="533" y="324"/>
      <point x="453" y="361"/>
      <point x="404" y="361" type="curve"/>
      <point x="404" y="371" type="line"/>
      <point x="452" y="375"/>
      <point x="511" y="407"/>
      <point x="511" y="518" type="curve" smooth="yes" name="hr01"/>
      <point x="511" y="639"/>
      <point x="452" y="698"/>
      <point x="347" y="698" type="curve" smooth="yes"/>
      <point x="83" y="698" type="line"/>
    </contour>
    <contour>
      <point x="163" y="326" type="line"/>
      <point x="350" y="326" type="line" smooth="yes"/>
      <point x="413" y="326"/>
      <point x="447" y="293"/>
      <point x="447" y="221" type="curve" smooth="yes" name="hr02"/>
      <point x="447" y="175" type="line" smooth="yes"/>
      <point x="447" y="103"/>
      <point x="413" y="70"/>
      <point x="350" y="70" type="curve" smooth="yes"/>
      <point x="163" y="70" type="line"/>
    </contour>
    <contour>
      <point x="163" y="628" type="line"/>
      <point x="337" y="628" type="line" smooth="yes"/>
      <point x="394" y="628"/>
      <point x="426" y="599"/>
      <point x="426" y="535" type="curve" smooth="yes" name="hr03"/>
      <point x="426" y="489" type="line" smooth="yes"/>
      <point x="426" y="425"/>
      <point x="394" y="396"/>
      <point x="337" y="396" type="curve" smooth="yes"/>
      <point x="163" y="396" type="line"/>
    </contour>
    <contour>
      <point x="279" y="0" type="move" name="bottom"/>
    </contour>
    <contour>
      <point x="279" y="698" type="move" name="top"/>
    </contour>
  </outline>
</glyph>
<glyph name="C" format="1">
  <advance width="561"/>
  <unicode hex="0043"/>
  <outline>
    <contour>
      <point x="305" y="-12" type="curve" smooth="yes" name="hr00"/>
      <point x="419" y="-12"/>
      <point x="490" y="42"/>
      <point x="530" y="142" type="curve"/>
      <point x="466" y="182" type="line"/>
      <point x="441" y="102"/>
      <point x="395" y="59"/>
      <point x="305" y="59" type="curve" smooth="yes"/>
      <point x="199" y="59"/>
      <point x="138" y="142"/>
      <point x="138" y="271" type="curve" smooth="yes"/>
      <point x="138" y="427" type="line" smooth="yes"/>
      <point x="138" y="556"/>
      <point x="199" y="639"/>
      <point x="305" y="639" type="curve" smooth="yes"/>
      <point x="392" y="639"/>
      <point x="436" y="598"/>
      <point x="461" y="523" type="curve"/>
      <point x="525" y="562" type="line"/>
      <point x="485" y="661"/>
      <point x="419" y="710"/>
      <point x="305" y="710" type="curve" smooth="yes"/>
      <point x="147" y="710"/>
      <point x="52" y="598"/>
      <point x="52" y="349" type="curve" smooth="yes"/>
      <point x="52" y="100"/>
      <point x="147" y="-12"/>
    </contour>
    <contour>
      <point x="304" y="0" type="move" name="bottom"/>
    </contour>
    <contour>
      <point x="305" y="698" type="move" name="top"/>
    </contour>
  </outline>
</glyph>
<glyph name="D" format="1">
  <advance width="607"/>
  <unicode hex="0044"/>
  <outline>
    <contour>
      <point x="83" y="0" type="line" name="hr00"/>
      <point x="302" y="0" type="line" smooth="yes"/>
      <point x="463" y="0"/>
      <point x="555" y="106"/>
      <point x="555" y="349" type="curve" smooth="yes"/>
      <point x="555" y="592"/>
      <point x="463" y="698"/>
      <point x="302" y="698" type="curve" smooth="yes"/>
      <point x="83" y="698" type="line"/>
    </contour>
    <contour>
      <point x="163" y="70" type="line"/>
      <point x="163" y="628" type="line"/>
      <point x="302" y="628" type="line" smooth="yes"/>
      <point x="402" y="628"/>
      <point x="469" y="556"/>
      <point x="469" y="427" type="curve" smooth="yes"/>
      <point x="469" y="271" type="line" smooth="yes"/>
      <point x="469" y="142"/>
      <point x="402" y="70"/>
      <point x="302" y="70" type="curve" smooth="yes"/>
    </contour>
    <contour>
      <point x="280" y="0" type="move" name="bottom"/>
    </contour>
    <contour>
      <point x="277" y="698" type="move" name="top"/>
    </contour>
  </outline>
</glyph>
<glyph name="E" format="1">
  <advance width="526"/>
  <unicode hex="0045"/>
  <outline>
    <contour>
      <point x="469" y="0" type="line" name="hr00"/>
      <point x="469" y="70" type="line"/>
      <point x="163" y="70" type="line"/>
      <point x="163" y="318" type="line"/>
      <point x="450" y="318" type="line"/>
      <point x="450" y="388" type="line"/>
      <point x="163" y="388" type="line"/>
      <point x="163" y="628" type="line"/>
      <point x="469" y="628" type="line"/>
      <point x="469" y="698" type="line"/>
      <point x="83" y="698" type="line"/>
      <point x="83" y="0" type="line"/>
    </contour>
    <contour>
      <point x="274" y="0" type="move" name="bottom"/>
    </contour>
    <contour>
      <point x="469" y="0" type="move" name="bottomright"/>
    </contour>
    <contour>
      <point x="274" y="698" type="move" name="top"/>
    </contour>
  </outline>
</glyph>
<glyph name="F" format="1">
  <advance width="505"/>
  <unicode hex="0046"/>
  <outline>
    <contour>
      <point x="163" y="0" type="line" name="hr00"/>
      <point x="163" y="318" type="line"/>
      <point x="433" y="318" type="line"/>
      <point x="433" y="388" type="line"/>
      <point x="163" y="388" type="line"/>
      <point x="163" y="628" type="line"/>
      <point x="460" y="628" type="line"/>
      <point x="460" y="698" type="line"/>
      <point x="83" y="698" type="line"/>
      <point x="83" y="0" type="line"/>
    </contour>
    <contour>
      <point x="135" y="0" type="move" name="bottom"/>
    </contour>
    <contour>
      <point x="271" y="698" type="move" name="top"/>
    </contour>
  </outline>
</glyph>
<glyph name="G" format="1">
  <advance width="627"/>
  <unicode hex="0047"/>
  <outline>
    <contour>
      <point x="489" y="0" type="line"/>
      <point x="563" y="0" type="line"/>
      <point x="563" y="357" type="line"/>
      <point x="347" y="357" type="line"/>
      <point x="347" y="287" type="line"/>
      <point x="485" y="287" type="line"/>
      <point x="485" y="211" type="line" smooth="yes"/>
      <point x="485" y="115"/>
      <point x="410" y="59"/>
      <point x="319" y="59" type="curve" smooth="yes" name="hr01"/>
      <point x="204" y="59"/>
      <point x="138" y="142"/>
      <point x="138" y="271" type="curve" smooth="yes"/>
      <point x="138" y="427" type="line" smooth="yes"/>
      <point x="138" y="556"/>
      <point x="204" y="639"/>
      <point x="319" y="639" type="curve" smooth="yes"/>
      <point x="405" y="639"/>
      <point x="459" y="595"/>
      <point x="486" y="522" type="curve"/>
      <point x="552" y="562" type="line"/>
      <point x="511" y="653"/>
      <point x="441" y="710"/>
      <point x="319" y="710" type="curve" smooth="yes"/>
      <point x="150" y="710"/>
      <point x="52" y="598"/>
      <point x="52" y="349" type="curve" smooth="yes"/>
      <point x="52" y="100"/>
      <point x="154" y="-12"/>
      <point x="306" y="-12" type="curve" smooth="yes"/>
      <point x="409" y="-12"/>
      <point x="464" y="35"/>
      <point x="479" y="97" type="curve" name="hr02"/>
      <point x="489" y="97" type="line"/>
    </contour>
    <contour>
      <point x="313" y="0" type="move" name="bottom"/>
    </contour>
    <contour>
      <point x="320" y="698" type="move" name="top"/>
    </contour>
  </outline>
</glyph>
<glyph name="H" format="1">
  <advance width="637"/>
  <unicode hex="0048"/>
  <outline>
    <contour>
      <point x="474" y="0" type="line" name="hr00"/>
      <point x="554" y="0" type="line"/>
      <point x="554" y="698" type="line"/>
      <point x="474" y="698" type="line"/>
      <point x="474" y="388" type="line"/>
      <point x="163" y="388" type="line"/>
      <point x="163" y="698" type="line"/>
      <point x="83" y="698" type="line"/>
      <point x="83" y="0" type="line"/>
      <point x="163" y="0" type="line"/>
      <point x="163" y="318" type="line"/>
      <point x="474" y="318" type="line"/>
    </contour>
    <contour>
      <point x="319" y="0" type="move" name="bottom"/>
    </contour>
    <contour>
      <point x="319" y="698" type="move" name="top"/>
    </contour>
  </outline>
</glyph>
<glyph name="I" format="1">
  <advance width="362"/>
  <unicode hex="0049"/>
  <outline>
    <contour>
      <point x="309" y="0" type="line" name=""/>
      <point x="309" y="66" type="line"/>
      <point x="221" y="66" type="line"/>
      <point x="221" y="632" type="line"/>
      <point x="309" y="632" type="line"/>
      <point x="309" y="698" type="line"/>
      <point x="53" y="698" type="line"/>
      <point x="53" y="632" type="line"/>
      <point x="141" y="632" type="line"/>
      <point x="141" y="66" type="line"/>
      <point x="53" y="66" type="line"/>
      <point x="53" y="0" type="line"/>
    </contour>
    <contour>
      <point x="181.0" y="0.0" type="move" name="bottom"/>
    </contour>
    <contour>
      <point x="309.0" y="0.0" type="move" name="bottomright"/>
    </contour>
    <contour>
      <point x="181.0" y="698.0" type="move" name="top"/>
    </contour>
  </outline>
</glyph>
<glyph name="J" format="1">
  <advance width="462"/>
  <unicode hex="004A"/>
  <outline>
    <contour>
      <point x="90" y="698" type="line" name="hr00"/>
      <point x="90" y="628" type="line"/>
      <point x="304" y="628" type="line"/>
      <point x="304" y="175" type="line" smooth="yes"/>
      <point x="304" y="97"/>
      <point x="267" y="59"/>
      <point x="203" y="59" type="curve" smooth="yes"/>
      <point x="135" y="59"/>
      <point x="107" y="101"/>
      <point x="95" y="160" type="curve"/>
      <point x="23" y="142" type="line"/>
      <point x="40" y="50"/>
      <point x="97" y="-12"/>
      <point x="203" y="-12" type="curve" smooth="yes"/>
      <point x="311" y="-12"/>
      <point x="384" y="54"/>
      <point x="384" y="160" type="curve" smooth="yes"/>
      <point x="384" y="698" type="line"/>
    </contour>
    <contour>
      <point x="204" y="0" type="move" name="bottom"/>
    </contour>
    <contour>
      <point x="239" y="698" type="move" name="top"/>
    </contour>
  </outline>
</glyph>
<glyph name="K" format="1">
  <advance width="574"/>
  <unicode hex="004B"/>
  <outline>
    <contour>
      <point x="457" y="0" type="line" name="hr00"/>
      <point x="551" y="0" type="line"/>
      <point x="306" y="399" type="line"/>
      <point x="536" y="698" type="line"/>
      <point x="444" y="698" type="line"/>
      <point x="270" y="465" type="line"/>
      <point x="167" y="321" type="line"/>
      <point x="157" y="321" type="line"/>
      <point x="163" y="465" type="line"/>
      <point x="163" y="698" type="line"/>
      <point x="83" y="698" type="line"/>
      <point x="83" y="0" type="line"/>
      <point x="163" y="0" type="line"/>
      <point x="163" y="232" type="line"/>
      <point x="254" y="346" type="line"/>
    </contour>
    <contour>
      <point x="304" y="0" type="move" name="bottom"/>
    </contour>
    <contour>
      <point x="292" y="698" type="move" name="top"/>
    </contour>
  </outline>
</glyph>
<glyph name="L" format="1">
  <advance width="453"/>
  <unicode hex="004C"/>
  <outline>
    <contour>
      <point x="428" y="0" type="line" name="hr00"/>
      <point x="428" y="70" type="line"/>
      <point x="163" y="70" type="line"/>
      <point x="163" y="698" type="line"/>
      <point x="83" y="698" type="line"/>
      <point x="83" y="0" type="line"/>
    </contour>
    <contour>
      <point x="267" y="0" type="move" name="bottom"/>
    </contour>
    <contour>
      <point x="123" y="698" type="move" name="top"/>
    </contour>
    <contour>
      <point x="232" y="740" type="move" name="topright"/>
    </contour>
  </outline>
</glyph>
<glyph name="M" format="1">
  <advance width="730"/>
  <unicode hex="004D"/>
  <outline>
    <contour>
      <point x="570" y="0" type="line" name="hr00"/>
      <point x="648" y="0" type="line"/>
      <point x="648" y="698" type="line"/>
      <point x="542" y="698" type="line"/>
      <point x="416" y="427" type="line"/>
      <point x="369" y="298" type="line"/>
      <point x="361" y="298" type="line"/>
      <point x="314" y="427" type="line"/>
      <point x="188" y="698" type="line"/>
      <point x="82" y="698" type="line"/>
      <point x="82" y="0" type="line"/>
      <point x="160" y="0" type="line"/>
      <point x="160" y="479" type="line"/>
      <point x="153" y="597" type="line"/>
      <point x="163" y="597" type="line"/>
      <point x="215" y="479" type="line"/>
      <point x="365" y="171" type="line"/>
      <point x="515" y="479" type="line"/>
      <point x="567" y="599" type="line"/>
      <point x="577" y="599" type="line"/>
      <point x="570" y="479" type="line"/>
    </contour>
    <contour>
      <point x="366" y="0" type="move" name="bottom"/>
    </contour>
    <contour>
      <point x="366" y="698" type="move" name="top"/>
    </contour>
  </outline>
</glyph>
<glyph name="N" format="1">
  <advance width="637"/>
  <unicode hex="004E"/>
  <outline>
    <contour>
      <point x="457" y="0" type="line" name="hr00"/>
      <point x="555" y="0" type="line"/>
      <point x="555" y="698" type="line"/>
      <point x="477" y="698" type="line"/>
      <point x="477" y="245" type="line"/>
      <point x="484" y="101" type="line"/>
      <point x="474" y="101" type="line"/>
      <point x="413" y="245" type="line"/>
      <point x="181" y="698" type="line"/>
      <point x="83" y="698" type="line"/>
      <point x="83" y="0" type="line"/>
      <point x="161" y="0" type="line"/>
      <point x="161" y="453" type="line"/>
      <point x="154" y="597" type="line"/>
      <point x="164" y="597" type="line"/>
      <point x="225" y="453" type="line"/>
    </contour>
    <contour>
      <point x="318" y="0" type="move" name="bottom"/>
    </contour>
    <contour>
      <point x="318" y="698" type="move" name="top"/>
    </contour>
  </outline>
</glyph>
<glyph name="O" format="1">
  <advance width="638"/>
  <unicode hex="004F"/>
  <outline>
    <contour>
      <point x="319" y="-12" type="curve" name="hr00"/>
      <point x="488" y="-12"/>
      <point x="586" y="100"/>
      <point x="586" y="349" type="curve" smooth="yes"/>
      <point x="586" y="598"/>
      <point x="488" y="710"/>
      <point x="319" y="710" type="curve"/>
      <point x="150" y="710"/>
      <point x="52" y="598"/>
      <point x="52" y="349" type="curve" smooth="yes"/>
      <point x="52" y="100"/>
      <point x="150" y="-12"/>
    </contour>
    <contour>
      <point x="319" y="59" type="curve" smooth="yes"/>
      <point x="204" y="59"/>
      <point x="138" y="142"/>
      <point x="138" y="271" type="curve" smooth="yes"/>
      <point x="138" y="427" type="line" smooth="yes"/>
      <point x="138" y="556"/>
      <point x="204" y="639"/>
      <point x="319" y="639" type="curve" smooth="yes"/>
      <point x="434" y="639"/>
      <point x="500" y="556"/>
      <point x="500" y="427" type="curve" smooth="yes"/>
      <point x="500" y="271" type="line" smooth="yes"/>
      <point x="500" y="142"/>
      <point x="434" y="59"/>
    </contour>
    <contour>
      <point x="319" y="0" type="move" name="bottom"/>
    </contour>
    <contour>
      <point x="319" y="698" type="move" name="top"/>
    </contour>
  </outline>
</glyph>
<glyph name="P" format="1">
  <advance width="548"/>
  <unicode hex="0050"/>
  <outline>
    <contour>
      <point x="163" y="0" type="line" name="hr00"/>
      <point x="163" y="300" type="line"/>
      <point x="340" y="300" type="line" smooth="yes"/>
      <point x="454" y="300"/>
      <point x="513" y="365"/>
      <point x="513" y="499" type="curve" smooth="yes"/>
      <point x="513" y="633"/>
      <point x="454" y="698"/>
      <point x="340" y="698" type="curve" smooth="yes"/>
      <point x="83" y="698" type="line"/>
      <point x="83" y="0" type="line"/>
    </contour>
    <contour>
      <point x="163" y="628" type="line"/>
      <point x="338" y="628" type="line" smooth="yes"/>
      <point x="397" y="628"/>
      <point x="427" y="597"/>
      <point x="427" y="532" type="curve" smooth="yes"/>
      <point x="427" y="466" type="line" smooth="yes"/>
      <point x="427" y="401"/>
      <point x="397" y="370"/>
      <point x="338" y="370" type="curve" smooth="yes"/>
      <point x="163" y="370" type="line"/>
    </contour>
    <contour>
      <point x="139" y="0" type="move" name="bottom"/>
    </contour>
    <contour>
      <point x="279" y="698" type="move" name="top"/>
    </contour>
  </outline>
</glyph>
<glyph name="Q" format="1">
  <advance width="638"/>
  <unicode hex="0051"/>
  <outline>
    <contour>
      <point x="457" y="-96" type="line" name="hr00"/>
      <point x="361" y="-96" type="line"/>
      <point x="361" y="-9" type="line"/>
      <point x="504" y="8"/>
      <point x="586" y="121"/>
      <point x="586" y="349" type="curve" smooth="yes"/>
      <point x="586" y="598"/>
      <point x="488" y="710"/>
      <point x="319" y="710" type="curve"/>
      <point x="150" y="710"/>
      <point x="52" y="598"/>
      <point x="52" y="349" type="curve" smooth="yes"/>
      <point x="52" y="117"/>
      <point x="137" y="4"/>
      <point x="285" y="-10" type="curve"/>
      <point x="285" y="-85" type="line" smooth="yes"/>
      <point x="285" y="-129"/>
      <point x="312" y="-163"/>
      <point x="365" y="-163" type="curve" smooth="yes"/>
      <point x="457" y="-163" type="line"/>
    </contour>
    <contour>
      <point x="319" y="59" type="curve" smooth="yes"/>
      <point x="204" y="59"/>
      <point x="138" y="142"/>
      <point x="138" y="271" type="curve" smooth="yes"/>
      <point x="138" y="427" type="line" smooth="yes"/>
      <point x="138" y="556"/>
      <point x="204" y="639"/>
      <point x="319" y="639" type="curve" smooth="yes"/>
      <point x="434" y="639"/>
      <point x="500" y="556"/>
      <point x="500" y="427" type="curve" smooth="yes"/>
      <point x="500" y="271" type="line" smooth="yes"/>
      <point x="500" y="142"/>
      <point x="434" y="59"/>
    </contour>
    <contour>
      <point x="319" y="698" type="move" name="top"/>
    </contour>
  </outline>
</glyph>
<glyph name="R" format="1">
  <advance width="578"/>
  <unicode hex="0052"/>
  <outline>
    <contour>
      <point x="163" y="300" type="line" name="hr00"/>
      <point x="309" y="300" type="line"/>
      <point x="440" y="0" type="line"/>
      <point x="530" y="0" type="line"/>
      <point x="389" y="305" type="line"/>
      <point x="471" y="322"/>
      <point x="513" y="386"/>
      <point x="513" y="499" type="curve" smooth="yes"/>
      <point x="513" y="633"/>
      <point x="454" y="698"/>
      <point x="340" y="698" type="curve" smooth="yes"/>
      <point x="83" y="698" type="line"/>
      <point x="83" y="0" type="line"/>
      <point x="163" y="0" type="line"/>
    </contour>
    <contour>
      <point x="163" y="368" type="line"/>
      <point x="163" y="628" type="line"/>
      <point x="338" y="628" type="line" smooth="yes"/>
      <point x="397" y="628"/>
      <point x="427" y="597"/>
      <point x="427" y="532" type="curve" smooth="yes"/>
      <point x="427" y="464" type="line" smooth="yes"/>
      <point x="427" y="399"/>
      <point x="397" y="368"/>
      <point x="338" y="368" type="curve" smooth="yes"/>
    </contour>
    <contour>
      <point x="293" y="0" type="move" name="bottom"/>
    </contour>
    <contour>
      <point x="277" y="698" type="move" name="top"/>
    </contour>
  </outline>
</glyph>
<glyph name="S" format="1">
  <advance width="525"/>
  <unicode hex="0053"/>
  <outline>
    <contour>
      <point x="261" y="-12" type="curve" smooth="yes" name="hr00"/>
      <point x="397" y="-12"/>
      <point x="481" y="59"/>
      <point x="481" y="190" type="curve" smooth="yes"/>
      <point x="481" y="305"/>
      <point x="432" y="359"/>
      <point x="302" y="391" type="curve" smooth="yes"/>
      <point x="250" y="404" type="line" smooth="yes"/>
      <point x="169" y="424"/>
      <point x="134" y="455"/>
      <point x="134" y="522" type="curve" smooth="yes"/>
      <point x="134" y="606"/>
      <point x="180" y="641"/>
      <point x="265" y="641" type="curve" smooth="yes"/>
      <point x="340" y="641"/>
      <point x="382" y="612"/>
      <point x="418" y="556" type="curve"/>
      <point x="477" y="598" type="line"/>
      <point x="428" y="675"/>
      <point x="365" y="710"/>
      <point x="268" y="710" type="curve" smooth="yes"/>
      <point x="140" y="710"/>
      <point x="56" y="646"/>
      <point x="56" y="522" type="curve" smooth="yes"/>
      <point x="56" y="414"/>
      <point x="113" y="359"/>
      <point x="235" y="329" type="curve" smooth="yes"/>
      <point x="287" y="316" type="line" smooth="yes"/>
      <point x="373" y="295"/>
      <point x="403" y="262"/>
      <point x="403" y="190" type="curve" smooth="yes"/>
      <point x="403" y="102"/>
      <point x="354" y="57"/>
      <point x="261" y="57" type="curve" smooth="yes"/>
      <point x="189" y="57"/>
      <point x="137" y="93"/>
      <point x="95" y="155" type="curve"/>
      <point x="37" y="107" type="line"/>
      <point x="86" y="33"/>
      <point x="161" y="-12"/>
    </contour>
    <contour>
      <point x="260" y="0" type="move" name="bottom"/>
    </contour>
    <contour>
      <point x="260" y="698" type="move" name="top"/>
    </contour>
  </outline>
</glyph>
<glyph name="T" format="1">
  <advance width="516"/>
  <unicode hex="0054"/>
  <outline>
    <contour>
      <point x="495" y="628" type="line" name="hr00"/>
      <point x="495" y="698" type="line"/>
      <point x="21" y="698" type="line"/>
      <point x="21" y="628" type="line"/>
      <point x="218" y="628" type="line"/>
      <point x="218" y="0" type="line"/>
      <point x="298" y="0" type="line"/>
      <point x="298" y="628" type="line"/>
    </contour>
    <contour>
      <point x="258" y="0" type="move" name="bottom"/>
    </contour>
    <contour>
      <point x="258" y="698" type="move" name="top"/>
    </contour>
  </outline>
</glyph>
<glyph name="U" format="1">
  <advance width="611"/>
  <unicode hex="0055"/>
  <outline>
    <contour>
      <point x="78" y="698" type="line" name="hr00"/>
      <point x="78" y="262" type="line" smooth="yes"/>
      <point x="78" y="76"/>
      <point x="137" y="-12"/>
      <point x="305" y="-12" type="curve" smooth="yes"/>
      <point x="473" y="-12"/>
      <point x="532" y="76"/>
      <point x="532" y="262" type="curve" smooth="yes"/>
      <point x="532" y="698" type="line"/>
      <point x="452" y="698" type="line"/>
      <point x="452" y="246" type="line" smooth="yes"/>
      <point x="452" y="121"/>
      <point x="415" y="59"/>
      <point x="305" y="59" type="curve" smooth="yes"/>
      <point x="195" y="59"/>
      <point x="158" y="121"/>
      <point x="158" y="246" type="curve" smooth="yes"/>
      <point x="158" y="698" type="line"/>
    </contour>
    <contour>
      <point x="304" y="0" type="move" name="bottom"/>
    </contour>
    <contour>
      <point x="394" y="0" type="move" name="bottomright"/>
    </contour>
    <contour>
      <point x="304" y="698" type="move" name="top"/>
    </contour>
  </outline>
</glyph>
<glyph name="V" format="1">
  <advance width="549"/>
  <unicode hex="0056"/>
  <outline>
    <contour>
      <point x="324" y="0" type="line" name="hr00"/>
      <point x="530" y="698" type="line"/>
      <point x="448" y="698" type="line"/>
      <point x="315" y="247" type="line"/>
      <point x="280" y="70" type="line"/>
      <point x="270" y="70" type="line"/>
      <point x="235" y="247" type="line"/>
      <point x="103" y="698" type="line"/>
      <point x="19" y="698" type="line"/>
      <point x="224" y="0" type="line"/>
    </contour>
    <contour>
      <point x="275" y="0" type="move" name="bottom"/>
    </contour>
    <contour>
      <point x="275" y="698" type="move" name="top"/>
    </contour>
  </outline>
</glyph>
<glyph name="W" format="1">
  <advance width="808"/>
  <unicode hex="0057"/>
  <outline>
    <contour>
      <point x="272" y="0" type="line" name="hr00"/>
      <point x="374" y="451" type="line"/>
      <point x="399" y="628" type="line"/>
      <point x="409" y="628" type="line"/>
      <point x="434" y="451" type="line"/>
      <point x="530" y="0" type="line"/>
      <point x="630" y="0" type="line"/>
      <point x="789" y="698" type="line"/>
      <point x="708" y="698" type="line"/>
      <point x="614" y="247" type="line"/>
      <point x="589" y="80" type="line"/>
      <point x="579" y="80" type="line"/>
      <point x="554" y="247" type="line"/>
      <point x="459" y="698" type="line"/>
      <point x="351" y="698" type="line"/>
      <point x="256" y="247" type="line"/>
      <point x="231" y="80" type="line"/>
      <point x="221" y="80" type="line"/>
      <point x="196" y="247" type="line"/>
      <point x="102" y="698" type="line"/>
      <point x="19" y="698" type="line"/>
      <point x="172" y="0" type="line"/>
    </contour>
    <contour>
      <point x="404" y="0" type="move" name="bottom"/>
    </contour>
    <contour>
      <point x="404" y="698" type="move" name="top"/>
    </contour>
  </outline>
</glyph>
<glyph name="X" format="1">
  <advance width="555"/>
  <unicode hex="0058"/>
  <outline>
    <contour>
      <point x="327" y="358" type="line" name="hr00"/>
      <point x="528" y="698" type="line"/>
      <point x="440" y="698" type="line"/>
      <point x="283" y="424" type="line"/>
      <point x="273" y="424" type="line"/>
      <point x="121" y="698" type="line"/>
      <point x="28" y="698" type="line"/>
      <point x="227" y="355" type="line"/>
      <point x="21" y="0" type="line"/>
      <point x="109" y="0" type="line"/>
      <point x="270" y="288" type="line"/>
      <point x="280" y="288" type="line"/>
      <point x="440" y="0" type="line"/>
      <point x="533" y="0" type="line"/>
    </contour>
    <contour>
      <point x="278" y="0" type="move" name="bottom"/>
    </contour>
    <contour>
      <point x="278" y="698" type="move" name="top"/>
    </contour>
  </outline>
</glyph>
<glyph name="Y" format="1">
  <advance width="534"/>
  <unicode hex="0059"/>
  <outline>
    <contour>
      <point x="307" y="0" type="line" name="hr00"/>
      <point x="307" y="276" type="line"/>
      <point x="523" y="698" type="line"/>
      <point x="434" y="698" type="line"/>
      <point x="273" y="366" type="line"/>
      <point x="263" y="366" type="line"/>
      <point x="102" y="698" type="line"/>
      <point x="11" y="698" type="line"/>
      <point x="227" y="276" type="line"/>
      <point x="227" y="0" type="line"/>
    </contour>
    <contour>
      <point x="269" y="0" type="move" name="bottom"/>
    </contour>
    <contour>
      <point x="269" y="698" type="move" name="top"/>
    </contour>
  </outline>
</glyph>
<glyph name="Z" format="1">
  <advance width="524"/>
  <unicode hex="005A"/>
  <outline>
    <contour>
      <point x="491" y="70" type="line" name="hr00"/>
      <point x="120" y="70" type="line"/>
      <point x="479" y="626" type="line"/>
      <point x="479" y="698" type="line"/>
      <point x="49" y="698" type="line"/>
      <point x="49" y="628" type="line"/>
      <point x="392" y="628" type="line"/>
      <point x="33" y="72" type="line"/>
      <point x="33" y="0" type="line"/>
      <point x="491" y="0" type="line"/>
    </contour>
    <contour>
      <point x="268" y="0" type="move" name="bottom"/>
    </contour>
    <contour>
      <point x="268" y="698" type="move" name="top"/>
    </contour>
  </outline>
</glyph>
<glyph name="bracketleft" format="1">
  <advance width="286"/>
  <unicode hex="005B"/>
  <outline>
    <contour>
      <point x="233" y="-138" type="line" name="hr00"/>
      <point x="233" y="-78" type="line"/>
      <point x="149" y="-78" type="line"/>
      <point x="149" y="700" type="line"/>
      <point x="233" y="700" type="line"/>
      <point x="233" y="760" type="line"/>
      <point x="83" y="760" type="line"/>
      <point x="83" y="-138" type="line"/>
    </contour>
  </outline>
</glyph>
<glyph name="backslash" format="1">
  <advance width="349"/>
  <unicode hex="005C"/>
  <outline>
    <contour>
      <point x="341" y="-151" type="line" name="hr00"/>
      <point x="104" y="740" type="line"/>
      <point x="37" y="740" type="line"/>
      <point x="274" y="-151" type="line"/>
    </contour>
  </outline>
</glyph>
<glyph name="bracketright" format="1">
  <advance width="286"/>
  <unicode hex="005D"/>
  <outline>
    <contour>
      <point x="53" y="760" type="line" name="hr00"/>
      <point x="53" y="700" type="line"/>
      <point x="137" y="700" type="line"/>
      <point x="137" y="-78" type="line"/>
      <point x="53" y="-78" type="line"/>
      <point x="53" y="-138" type="line"/>
      <point x="203" y="-138" type="line"/>
      <point x="203" y="760" type="line"/>
    </contour>
  </outline>
</glyph>
<glyph name="asciicircum" format="1">
  <advance width="540"/>
  <unicode hex="005E"/>
  <outline>
    <contour>
      <point x="498" y="326" type="line" name="hr00"/>
      <point x="313" y="698" type="line"/>
      <point x="227" y="698" type="line"/>
      <point x="43" y="326" type="line"/>
      <point x="102" y="297" type="line"/>
      <point x="265" y="630" type="line"/>
      <point x="275" y="630" type="line"/>
      <point x="437" y="297" type="line"/>
    </contour>
  </outline>
</glyph>
<glyph name="underscore" format="1">
  <advance width="508"/>
  <unicode hex="005F"/>
  <outline>
    <contour>
      <point x="481" y="-163" type="line" name="hr00"/>
      <point x="481" y="-97" type="line"/>
      <point x="27" y="-97" type="line"/>
      <point x="27" y="-163" type="line"/>
    </contour>
  </outline>
</glyph>
<glyph name="grave" format="1">
  <advance width="540"/>
  <unicode hex="0060"/>
  <outline>
    <contour>
      <point x="263" y="585" type="line" name="hr00"/>
      <point x="312" y="610" type="line"/>
      <point x="235" y="779" type="line"/>
      <point x="166" y="743" type="line"/>
    </contour>
    <contour>
      <point x="270" y="540" type="move" name="_top"/>
    </contour>
  </outline>
</glyph>
<glyph name="b" format="1">
  <advance width="524"/>
  <unicode hex="0062"/>
  <outline>
    <contour>
      <point x="76" y="0" type="line"/>
      <point x="152" y="0" type="line"/>
      <point x="152" y="84" type="line"/>
      <point x="162" y="84" type="line"/>
      <point x="182" y="17"/>
      <point x="228" y="-12"/>
      <point x="292" y="-12" type="curve" smooth="yes" name="hr01"/>
      <point x="415" y="-12"/>
      <point x="480" y="92"/>
      <point x="480" y="258" type="curve" smooth="yes"/>
      <point x="480" y="424"/>
      <point x="415" y="528"/>
      <point x="292" y="528" type="curve" smooth="yes"/>
      <point x="228" y="528"/>
      <point x="182" y="499"/>
      <point x="162" y="432" type="curve"/>
      <point x="152" y="432" type="line"/>
      <point x="152" y="740" type="line" name="hr02"/>
      <point x="76" y="740" type="line"/>
    </contour>
    <contour>
      <point x="269" y="56" type="curve" smooth="yes" name="hr03"/>
      <point x="205" y="56"/>
      <point x="152" y="96"/>
      <point x="152" y="154" type="curve" smooth="yes"/>
      <point x="152" y="362" type="line" smooth="yes"/>
      <point x="152" y="420"/>
      <point x="205" y="460"/>
      <point x="269" y="460" type="curve" smooth="yes"/>
      <point x="353" y="460"/>
      <point x="398" y="404"/>
      <point x="398" y="310" type="curve" smooth="yes"/>
      <point x="398" y="206" type="line" smooth="yes"/>
      <point x="398" y="112"/>
      <point x="353" y="56"/>
    </contour>
    <contour>
      <point x="278" y="0" type="move" name="bottom"/>
    </contour>
  </outline>
</glyph>
<glyph name="c" format="1">
  <advance width="454"/>
  <unicode hex="0063"/>
  <outline>
    <contour>
      <point x="246" y="-12" type="curve" smooth="yes" name="hr00"/>
      <point x="338" y="-12"/>
      <point x="400" y="35"/>
      <point x="431" y="106" type="curve"/>
      <point x="375" y="145" type="line"/>
      <point x="351" y="86"/>
      <point x="312" y="56"/>
      <point x="246" y="56" type="curve" smooth="yes"/>
      <point x="162" y="56"/>
      <point x="123" y="105"/>
      <point x="123" y="206" type="curve" smooth="yes"/>
      <point x="123" y="310" type="line" smooth="yes"/>
      <point x="123" y="411"/>
      <point x="162" y="460"/>
      <point x="246" y="460" type="curve" smooth="yes"/>
      <point x="310" y="460"/>
      <point x="346" y="430"/>
      <point x="363" y="377" type="curve"/>
      <point x="426" y="409" type="line"/>
      <point x="399" y="478"/>
      <point x="343" y="528"/>
      <point x="246" y="528" type="curve" smooth="yes"/>
      <point x="118" y="528"/>
      <point x="41" y="450"/>
      <point x="41" y="258" type="curve" smooth="yes"/>
      <point x="41" y="66"/>
      <point x="118" y="-12"/>
    </contour>
    <contour>
      <point x="248" y="0" type="move" name="bottom"/>
    </contour>
    <contour>
      <point x="248" y="540" type="move" name="top"/>
    </contour>
  </outline>
</glyph>
<glyph name="e" format="1">
  <advance width="495"/>
  <unicode hex="0065"/>
  <outline>
    <contour>
      <point x="252" y="-12" type="curve" smooth="yes" name="hr00"/>
      <point x="348" y="-12"/>
      <point x="409" y="37"/>
      <point x="441" y="107" type="curve"/>
      <point x="389" y="145" type="line"/>
      <point x="364" y="86"/>
      <point x="321" y="55"/>
      <point x="252" y="55" type="curve" smooth="yes"/>
      <point x="171" y="55"/>
      <point x="122" y="105"/>
      <point x="122" y="206" type="curve" smooth="yes"/>
      <point x="122" y="239" type="line"/>
      <point x="453" y="239" type="line"/>
      <point x="453" y="258" type="line" smooth="yes"/>
      <point x="453" y="450"/>
      <point x="373" y="528"/>
      <point x="252" y="528" type="curve" smooth="yes"/>
      <point x="131" y="528"/>
      <point x="41" y="450"/>
      <point x="41" y="258" type="curve" smooth="yes"/>
      <point x="41" y="66"/>
      <point x="131" y="-12"/>
    </contour>
    <contour>
      <point x="252" y="464" type="curve" smooth="yes"/>
      <point x="331" y="464"/>
      <point x="372" y="411"/>
      <point x="372" y="310" type="curve" smooth="yes"/>
      <point x="372" y="297" type="line"/>
      <point x="122" y="297" type="line"/>
      <point x="122" y="310" type="line" smooth="yes"/>
      <point x="122" y="411"/>
      <point x="170" y="464"/>
    </contour>
    <contour>
      <point x="255" y="0" type="move" name="bottom"/>
    </contour>
    <contour>
      <point x="325" y="0" type="move" name="bottomright"/>
    </contour>
    <contour>
      <point x="252" y="540" type="move" name="top"/>
    </contour>
  </outline>
</glyph>
<glyph name="f" format="1">
  <advance width="294"/>
  <unicode hex="0066"/>
  <outline>
    <contour>
      <point x="101" y="0" type="line" name="hr00"/>
      <point x="177" y="0" type="line"/>
      <point x="177" y="449" type="line"/>
      <point x="276" y="449" type="line"/>
      <point x="276" y="516" type="line"/>
      <point x="177" y="516" type="line"/>
      <point x="177" y="673" type="line"/>
      <point x="276" y="673" type="line"/>
      <point x="276" y="740" type="line"/>
      <point x="199" y="740" type="line" smooth="yes"/>
      <point x="131" y="740"/>
      <point x="101" y="710"/>
      <point x="101" y="642" type="curve" smooth="yes"/>
      <point x="101" y="516" type="line"/>
      <point x="26" y="516" type="line"/>
      <point x="26" y="449" type="line"/>
      <point x="101" y="449" type="line"/>
    </contour>
    <contour>
      <point x="140" y="0" type="move" name="bottom"/>
    </contour>
  </outline>
</glyph>
<glyph name="g" format="1">
  <advance width="477"/>
  <unicode hex="0067"/>
  <outline>
    <contour>
      <point x="470" y="-58" type="curve" smooth="yes"/>
      <point x="470" y="30"/>
      <point x="423" y="78"/>
      <point x="307" y="78" type="curve" smooth="yes"/>
      <point x="194" y="78" type="line" smooth="yes"/>
      <point x="152" y="78"/>
      <point x="134" y="92"/>
      <point x="134" y="118" type="curve" smooth="yes"/>
      <point x="134" y="142"/>
      <point x="154" y="169"/>
      <point x="191" y="176" type="curve"/>
      <point x="206" y="173"/>
      <point x="223" y="171"/>
      <point x="240" y="171" type="curve" smooth="yes"/>
      <point x="347" y="171"/>
      <point x="417" y="232"/>
      <point x="417" y="349" type="curve" smooth="yes" name="hr01"/>
      <point x="417" y="412"/>
      <point x="397" y="458"/>
      <point x="362" y="488" type="curve"/>
      <point x="362" y="516" type="line"/>
      <point x="451" y="516" type="line"/>
      <point x="451" y="583" type="line"/>
      <point x="382" y="583" type="line" smooth="yes"/>
      <point x="343" y="583"/>
      <point x="327" y="567"/>
      <point x="327" y="528" type="curve" smooth="yes"/>
      <point x="327" y="510" type="line"/>
      <point x="302" y="521"/>
      <point x="273" y="527"/>
      <point x="240" y="527" type="curve" smooth="yes" name="hr02"/>
      <point x="133" y="527"/>
      <point x="63" y="466"/>
      <point x="63" y="349" type="curve" smooth="yes"/>
      <point x="63" y="270"/>
      <point x="95" y="217"/>
      <point x="148" y="190" type="curve"/>
      <point x="148" y="179" type="line"/>
      <point x="93" y="173"/>
      <point x="69" y="139"/>
      <point x="69" y="96" type="curve" smooth="yes" name="hr03"/>
      <point x="69" y="64"/>
      <point x="85" y="41"/>
      <point x="112" y="26" type="curve"/>
      <point x="112" y="12" type="line"/>
      <point x="68" y="4"/>
      <point x="37" y="-29"/>
      <point x="37" y="-84" type="curve" smooth="yes" name="hr04"/>
      <point x="37" y="-167"/>
      <point x="95" y="-212"/>
      <point x="243" y="-212" type="curve" smooth="yes"/>
      <point x="397" y="-212"/>
      <point x="470" y="-167"/>
    </contour>
    <contour>
      <point x="399" y="-63" type="curve" smooth="yes"/>
      <point x="399" y="-123"/>
      <point x="356" y="-149"/>
      <point x="274" y="-149" type="curve" smooth="yes"/>
      <point x="208" y="-149" type="line" smooth="yes"/>
      <point x="138" y="-149"/>
      <point x="107" y="-117"/>
      <point x="107" y="-65" type="curve" smooth="yes"/>
      <point x="107" y="-30"/>
      <point x="119" y="-9"/>
      <point x="149" y="6" type="curve"/>
      <point x="306" y="6" type="line" smooth="yes"/>
      <point x="373" y="6"/>
      <point x="399" y="-18"/>
    </contour>
    <contour>
      <point x="240" y="233" type="curve" smooth="yes"/>
      <point x="178" y="233"/>
      <point x="141" y="265"/>
      <point x="141" y="331" type="curve" smooth="yes" name="hr05"/>
      <point x="141" y="368" type="line" smooth="yes"/>
      <point x="141" y="434"/>
      <point x="178" y="466"/>
      <point x="240" y="466" type="curve" smooth="yes"/>
      <point x="302" y="466"/>
      <point x="339" y="434"/>
      <point x="339" y="368" type="curve" smooth="yes"/>
      <point x="339" y="331" type="line" smooth="yes"/>
      <point x="339" y="265"/>
      <point x="302" y="233"/>
    </contour>
    <contour>
      <point x="240" y="540" type="move" name="top"/>
    </contour>
  </outline>
</glyph>
<glyph name="h" format="1">
  <advance width="513"/>
  <unicode hex="0068"/>
  <outline>
    <contour>
      <point x="76" y="0" type="line" name="hr00"/>
      <point x="152" y="0" type="line"/>
      <point x="152" y="352" type="line" smooth="yes"/>
      <point x="152" y="419"/>
      <point x="201" y="459"/>
      <point x="262" y="459" type="curve" smooth="yes"/>
      <point x="332" y="459"/>
      <point x="366" y="413"/>
      <point x="366" y="331" type="curve" smooth="yes"/>
      <point x="366" y="0" type="line"/>
      <point x="442" y="0" type="line"/>
      <point x="442" y="336" type="line" smooth="yes"/>
      <point x="442" y="466"/>
      <point x="386" y="528"/>
      <point x="294" y="528" type="curve" smooth="yes"/>
      <point x="222" y="528"/>
      <point x="182" y="495"/>
      <point x="162" y="432" type="curve"/>
      <point x="152" y="432" type="line"/>
      <point x="152" y="740" type="line"/>
      <point x="76" y="740" type="line"/>
    </contour>
    <contour>
      <point x="259" y="0" type="move" name="bottom"/>
    </contour>
    <contour>
      <point x="115" y="698" type="move" name="top"/>
    </contour>
  </outline>
</glyph>
<glyph name="i" format="1">
  <advance width="228"/>
  <unicode hex="0069"/>
  <outline>
    <contour>
      <point x="114" y="641" type="curve" smooth="yes"/>
      <point x="147" y="641"/>
      <point x="161" y="656"/>
      <point x="161" y="682" type="curve" smooth="yes"/>
      <point x="161" y="698" type="line" smooth="yes"/>
      <point x="161" y="724"/>
      <point x="147" y="739"/>
      <point x="114" y="739" type="curve" smooth="yes"/>
      <point x="81" y="739"/>
      <point x="67" y="724"/>
      <point x="67" y="698" type="curve" smooth="yes"/>
      <point x="67" y="682" type="line" smooth="yes"/>
      <point x="67" y="656"/>
      <point x="81" y="641"/>
    </contour>
    <contour>
      <point x="76" y="0" type="line" name="hr01"/>
      <point x="152" y="0" type="line"/>
      <point x="152" y="516" type="line"/>
      <point x="76" y="516" type="line"/>
    </contour>
    <contour>
      <point x="114" y="0" type="move" name="bottom"/>
    </contour>
    <contour>
      <point x="152" y="0" type="move" name="bottomright"/>
    </contour>
  </outline>
</glyph>
<glyph name="j" format="1">
  <advance width="228"/>
  <unicode hex="006A"/>
  <outline>
    <contour>
      <point x="76" y="-133" type="line"/>
      <point x="0" y="-133" type="line"/>
      <point x="0" y="-200" type="line"/>
      <point x="54" y="-200" type="line" smooth="yes"/>
      <point x="122" y="-200"/>
      <point x="152" y="-170"/>
      <point x="152" y="-102" type="curve" smooth="yes"/>
      <point x="152" y="516" type="line"/>
      <point x="76" y="516" type="line"/>
    </contour>
    <contour>
      <point x="114" y="641" type="curve" smooth="yes"/>
      <point x="147" y="641"/>
      <point x="161" y="656"/>
      <point x="161" y="682" type="curve" smooth="yes" name="hr01"/>
      <point x="161" y="698" type="line" smooth="yes"/>
      <point x="161" y="724"/>
      <point x="147" y="739"/>
      <point x="114" y="739" type="curve" smooth="yes"/>
      <point x="81" y="739"/>
      <point x="67" y="724"/>
      <point x="67" y="698" type="curve" smooth="yes"/>
      <point x="67" y="682" type="line" smooth="yes"/>
      <point x="67" y="656"/>
      <point x="81" y="641"/>
    </contour>
  </outline>
</glyph>
<glyph name="k" format="1">
  <advance width="477"/>
  <unicode hex="006B"/>
  <outline>
    <contour>
      <point x="76" y="0" type="line" name="hr00"/>
      <point x="152" y="0" type="line"/>
      <point x="152" y="186" type="line"/>
      <point x="220" y="266" type="line"/>
      <point x="371" y="0" type="line"/>
      <point x="462" y="0" type="line"/>
      <point x="276" y="311" type="line"/>
      <point x="447" y="516" type="line"/>
      <point x="355" y="516" type="line"/>
      <point x="226" y="356" type="line"/>
      <point x="154" y="259" type="line"/>
      <point x="146" y="259" type="line"/>
      <point x="152" y="360" type="line"/>
      <point x="152" y="740" type="line"/>
      <point x="76" y="740" type="line"/>
    </contour>
    <contour>
      <point x="265" y="0" type="move" name="bottom"/>
    </contour>
  </outline>
</glyph>
<glyph name="l" format="1">
  <advance width="247"/>
  <unicode hex="006C"/>
  <outline>
    <contour>
      <point x="217" y="0" type="line" name="hr00"/>
      <point x="217" y="67" type="line"/>
      <point x="152" y="67" type="line"/>
      <point x="152" y="740" type="line"/>
      <point x="76" y="740" type="line"/>
      <point x="76" y="78" type="line" smooth="yes"/>
      <point x="76" y="24"/>
      <point x="100" y="0"/>
      <point x="154" y="0" type="curve" smooth="yes"/>
    </contour>
    <contour>
      <point x="148" y="0" type="move" name="bottom"/>
    </contour>
    <contour>
      <point x="114" y="740" type="move" name="top"/>
    </contour>
    <contour>
      <point x="205" y="740" type="move" name="topright"/>
    </contour>
  </outline>
</glyph>
<glyph name="m" format="1">
  <advance width="787"/>
  <unicode hex="006D"/>
  <outline>
    <contour>
      <point x="152" y="0" type="line"/>
      <point x="152" y="352" type="line" smooth="yes"/>
      <point x="152" y="419"/>
      <point x="199" y="459"/>
      <point x="258" y="459" type="curve" smooth="yes"/>
      <point x="325" y="459"/>
      <point x="358" y="413"/>
      <point x="358" y="331" type="curve" smooth="yes"/>
      <point x="358" y="0" type="line"/>
      <point x="434" y="0" type="line"/>
      <point x="434" y="352" type="line" smooth="yes"/>
      <point x="434" y="419"/>
      <point x="481" y="459"/>
      <point x="540" y="459" type="curve" smooth="yes"/>
      <point x="607" y="459"/>
      <point x="640" y="413"/>
      <point x="640" y="331" type="curve" smooth="yes"/>
      <point x="640" y="0" type="line"/>
      <point x="716" y="0" type="line"/>
      <point x="716" y="336" type="line" smooth="yes"/>
      <point x="716" y="466"/>
      <point x="658" y="528"/>
      <point x="570" y="528" type="curve" smooth="yes"/>
      <point x="496" y="528"/>
      <point x="451" y="495"/>
      <point x="430" y="432" type="curve"/>
      <point x="420" y="432" type="line"/>
      <point x="398" y="497"/>
      <point x="351" y="528"/>
      <point x="288" y="528" type="curve" smooth="yes"/>
      <point x="218" y="528"/>
      <point x="182" y="495"/>
      <point x="162" y="432" type="curve"/>
      <point x="152" y="432" type="line"/>
      <point x="152" y="516" type="line" name="hr01"/>
      <point x="76" y="516" type="line"/>
      <point x="76" y="0" type="line"/>
    </contour>
    <contour>
      <point x="395" y="0" type="move" name="bottom"/>
    </contour>
    <contour>
      <point x="395" y="540" type="move" name="top"/>
    </contour>
  </outline>
</glyph>
<glyph name="o" format="1">
  <advance width="504"/>
  <unicode hex="006F"/>
  <outline>
    <contour>
      <point x="252" y="-12" type="curve" smooth="yes" name="hr00"/>
      <point x="373" y="-12"/>
      <point x="463" y="66"/>
      <point x="463" y="258" type="curve" smooth="yes"/>
      <point x="463" y="450"/>
      <point x="373" y="528"/>
      <point x="252" y="528" type="curve" smooth="yes"/>
      <point x="131" y="528"/>
      <point x="41" y="450"/>
      <point x="41" y="258" type="curve"/>
      <point x="41" y="66"/>
      <point x="131" y="-12"/>
    </contour>
    <contour>
      <point x="252" y="56" type="curve" smooth="yes"/>
      <point x="170" y="56"/>
      <point x="123" y="105"/>
      <point x="123" y="206" type="curve" smooth="yes"/>
      <point x="123" y="310" type="line" smooth="yes"/>
      <point x="123" y="411"/>
      <point x="170" y="460"/>
      <point x="252" y="460" type="curve" smooth="yes"/>
      <point x="334" y="460"/>
      <point x="381" y="411"/>
      <point x="381" y="310" type="curve" smooth="yes"/>
      <point x="381" y="206" type="line" smooth="yes"/>
      <point x="381" y="105"/>
      <point x="334" y="56"/>
    </contour>
    <contour>
      <point x="252" y="0" type="move" name="bottom"/>
    </contour>
    <contour>
      <point x="252" y="540" type="move" name="top"/>
    </contour>
  </outline>
</glyph>
<glyph name="q" format="1">
  <advance width="524"/>
  <unicode hex="0071"/>
  <outline>
    <contour>
      <point x="372" y="-200" type="line"/>
      <point x="448" y="-200" type="line"/>
      <point x="448" y="516" type="line"/>
      <point x="372" y="516" type="line"/>
      <point x="372" y="432" type="line"/>
      <point x="362" y="432" type="line"/>
      <point x="342" y="499"/>
      <point x="296" y="528"/>
      <point x="232" y="528" type="curve" smooth="yes" name="hr01"/>
      <point x="109" y="528"/>
      <point x="44" y="424"/>
      <point x="44" y="258" type="curve" smooth="yes"/>
      <point x="44" y="92"/>
      <point x="109" y="-12"/>
      <point x="232" y="-12" type="curve" smooth="yes"/>
      <point x="296" y="-12"/>
      <point x="342" y="17"/>
      <point x="362" y="84" type="curve"/>
      <point x="372" y="84" type="line"/>
    </contour>
    <contour>
      <point x="255" y="56" type="curve" smooth="yes"/>
      <point x="171" y="56"/>
      <point x="126" y="112"/>
      <point x="126" y="206" type="curve" smooth="yes"/>
      <point x="126" y="310" type="line" smooth="yes"/>
      <point x="126" y="404"/>
      <point x="171" y="460"/>
      <point x="255" y="460" type="curve" smooth="yes"/>
      <point x="319" y="460"/>
      <point x="372" y="420"/>
      <point x="372" y="362" type="curve" smooth="yes"/>
      <point x="372" y="154" type="line" smooth="yes"/>
      <point x="372" y="96"/>
      <point x="319" y="56"/>
    </contour>
    <contour>
      <point x="247" y="540" type="move" name="top"/>
    </contour>
  </outline>
</glyph>
<glyph name="r" format="1">
  <advance width="332"/>
  <unicode hex="0072"/>
  <outline>
    <contour>
      <point x="152" y="0" type="line" name="hr00"/>
      <point x="152" y="343" type="line"/>
      <point x="152" y="406"/>
      <point x="195" y="439"/>
      <point x="267" y="439" type="curve" smooth="yes"/>
      <point x="317" y="439" type="line"/>
      <point x="317" y="516" type="line"/>
      <point x="289" y="516" type="line" smooth="yes"/>
      <point x="222" y="516"/>
      <point x="179" y="479"/>
      <point x="162" y="420" type="curve"/>
      <point x="152" y="420" type="line"/>
      <point x="152" y="516" type="line"/>
      <point x="76" y="516" type="line"/>
      <point x="76" y="0" type="line"/>
    </contour>
    <contour>
      <point x="115" y="0" type="move" name="bottom"/>
    </contour>
    <contour>
      <point x="197" y="540" type="move" name="top"/>
    </contour>
  </outline>
</glyph>
<glyph name="s" format="1">
  <advance width="439"/>
  <unicode hex="0073"/>
  <outline>
    <contour>
      <point x="219" y="-12" type="curve" smooth="yes" name="hr00"/>
      <point x="331" y="-12"/>
      <point x="391" y="48"/>
      <point x="391" y="148" type="curve" smooth="yes"/>
      <point x="391" y="227"/>
      <point x="351" y="273"/>
      <point x="246" y="292" type="curve" smooth="yes"/>
      <point x="207" y="299" type="line" smooth="yes"/>
      <point x="149" y="309"/>
      <point x="124" y="330"/>
      <point x="124" y="380" type="curve" smooth="yes"/>
      <point x="124" y="434"/>
      <point x="154" y="463"/>
      <point x="215" y="463" type="curve" smooth="yes"/>
      <point x="273" y="463"/>
      <point x="310" y="434"/>
      <point x="332" y="402" type="curve"/>
      <point x="381" y="447" type="line"/>
      <point x="343" y="499"/>
      <point x="292" y="527"/>
      <point x="215" y="527" type="curve" smooth="yes"/>
      <point x="118" y="527"/>
      <point x="50" y="482"/>
      <point x="50" y="377" type="curve" smooth="yes"/>
      <point x="50" y="288"/>
      <point x="99" y="248"/>
      <point x="198" y="230" type="curve" smooth="yes"/>
      <point x="237" y="223" type="line" smooth="yes"/>
      <point x="298" y="212"/>
      <point x="317" y="184"/>
      <point x="317" y="139" type="curve" smooth="yes"/>
      <point x="317" y="83"/>
      <point x="279" y="52"/>
      <point x="219" y="52" type="curve" smooth="yes"/>
      <point x="161" y="52"/>
      <point x="121" y="79"/>
      <point x="85" y="130" type="curve"/>
      <point x="32" y="86" type="line"/>
      <point x="74" y="25"/>
      <point x="134" y="-12"/>
    </contour>
    <contour>
      <point x="217" y="0" type="move" name="bottom"/>
    </contour>
    <contour>
      <point x="215" y="540" type="move" name="top"/>
    </contour>
  </outline>
</glyph>
<glyph name="t" format="1">
  <advance width="318"/>
  <unicode hex="0074"/>
  <outline>
    <contour>
      <point x="273" y="0" type="line" name="hr00"/>
      <point x="273" y="67" type="line"/>
      <point x="178" y="67" type="line"/>
      <point x="178" y="449" type="line"/>
      <point x="278" y="449" type="line"/>
      <point x="278" y="516" type="line"/>
      <point x="178" y="516" type="line"/>
      <point x="178" y="658" type="line"/>
      <point x="109" y="658" type="line"/>
      <point x="109" y="562" type="line" smooth="yes"/>
      <point x="109" y="532"/>
      <point x="101" y="516"/>
      <point x="71" y="516" type="curve" smooth="yes"/>
      <point x="26" y="516" type="line"/>
      <point x="26" y="449" type="line"/>
      <point x="102" y="449" type="line"/>
      <point x="102" y="78" type="line" smooth="yes"/>
      <point x="102" y="24"/>
      <point x="126" y="0"/>
      <point x="180" y="0" type="curve" smooth="yes"/>
    </contour>
    <contour>
      <point x="193" y="0" type="move" name="bottom"/>
    </contour>
    <contour>
      <point x="231" y="751" type="move" name="topright"/>
    </contour>
  </outline>
</glyph>
<glyph name="u" format="1">
  <advance width="513"/>
  <unicode hex="0075"/>
  <outline>
    <contour>
      <point x="361" y="0" type="line"/>
      <point x="437" y="0" type="line"/>
      <point x="437" y="516" type="line"/>
      <point x="361" y="516" type="line"/>
      <point x="361" y="164" type="line" smooth="yes"/>
      <point x="361" y="97"/>
      <point x="312" y="57"/>
      <point x="251" y="57" type="curve" smooth="yes" name="hr01"/>
      <point x="181" y="57"/>
      <point x="147" y="103"/>
      <point x="147" y="185" type="curve" smooth="yes"/>
      <point x="147" y="516" type="line"/>
      <point x="71" y="516" type="line"/>
      <point x="71" y="180" type="line" smooth="yes"/>
      <point x="71" y="50"/>
      <point x="127" y="-12"/>
      <point x="219" y="-12" type="curve" smooth="yes"/>
      <point x="291" y="-12"/>
      <point x="331" y="21"/>
      <point x="351" y="84" type="curve" name="hr02"/>
      <point x="361" y="84" type="line"/>
    </contour>
    <contour>
      <point x="251" y="0" type="move" name="bottom"/>
    </contour>
    <contour>
      <point x="437" y="0" type="move" name="bottomright"/>
    </contour>
    <contour>
      <point x="255" y="540" type="move" name="top"/>
    </contour>
  </outline>
</glyph>
<glyph name="v" format="1">
  <advance width="445"/>
  <unicode hex="0076"/>
  <outline>
    <contour>
      <point x="268" y="0" type="line" name="hr00"/>
      <point x="430" y="516" type="line"/>
      <point x="356" y="516" type="line"/>
      <point x="277" y="256" type="line"/>
      <point x="229" y="67" type="line"/>
      <point x="219" y="67" type="line"/>
      <point x="171" y="256" type="line"/>
      <point x="92" y="516" type="line"/>
      <point x="16" y="516" type="line"/>
      <point x="178" y="0" type="line"/>
    </contour>
    <contour>
      <point x="223" y="0" type="move" name="bottom"/>
    </contour>
    <contour>
      <point x="223" y="540" type="move" name="top"/>
    </contour>
  </outline>
</glyph>
<glyph name="w" format="1">
  <advance width="698"/>
  <unicode hex="0077"/>
  <outline>
    <contour>
      <point x="151" y="0" type="line" name="hr00"/>
      <point x="247" y="0" type="line"/>
      <point x="310" y="250" type="line"/>
      <point x="347" y="439" type="line"/>
      <point x="357" y="439" type="line"/>
      <point x="392" y="250" type="line"/>
      <point x="455" y="0" type="line"/>
      <point x="551" y="0" type="line"/>
      <point x="675" y="516" type="line"/>
      <point x="603" y="516" type="line"/>
      <point x="553" y="292" type="line"/>
      <point x="509" y="67" type="line"/>
      <point x="499" y="67" type="line"/>
      <point x="448" y="292" type="line"/>
      <point x="396" y="516" type="line"/>
      <point x="308" y="516" type="line"/>
      <point x="256" y="292" type="line"/>
      <point x="205" y="67" type="line"/>
      <point x="195" y="67" type="line"/>
      <point x="151" y="292" type="line"/>
      <point x="101" y="516" type="line"/>
      <point x="27" y="516" type="line"/>
    </contour>
    <contour>
      <point x="352" y="0" type="move" name="bottom"/>
    </contour>
    <contour>
      <point x="352" y="540" type="move" name="top"/>
    </contour>
  </outline>
</glyph>
<glyph name="x" format="1">
  <advance width="459"/>
  <unicode hex="0078"/>
  <outline>
    <contour>
      <point x="102" y="0" type="line" name="hr00"/>
      <point x="227" y="202" type="line"/>
      <point x="237" y="202" type="line"/>
      <point x="356" y="0" type="line"/>
      <point x="442" y="0" type="line"/>
      <point x="275" y="266" type="line"/>
      <point x="437" y="516" type="line"/>
      <point x="354" y="516" type="line"/>
      <point x="237" y="328" type="line"/>
      <point x="227" y="328" type="line"/>
      <point x="112" y="516" type="line"/>
      <point x="26" y="516" type="line"/>
      <point x="189" y="263" type="line"/>
      <point x="19" y="0" type="line"/>
    </contour>
    <contour>
      <point x="230" y="0" type="move" name="bottom"/>
    </contour>
    <contour>
      <point x="230" y="540" type="move" name="top"/>
    </contour>
  </outline>
</glyph>
<glyph name="y" format="1">
  <advance width="451"/>
  <unicode hex="0079"/>
  <outline>
    <contour>
      <point x="277" y="256" type="line" name="hr00"/>
      <point x="229" y="67" type="line"/>
      <point x="219" y="67" type="line"/>
      <point x="171" y="256" type="line"/>
      <point x="92" y="516" type="line"/>
      <point x="16" y="516" type="line"/>
      <point x="187" y="-28" type="line"/>
      <point x="157" y="-133" type="line"/>
      <point x="78" y="-133" type="line"/>
      <point x="78" y="-200" type="line"/>
      <point x="134" y="-200" type="line" smooth="yes"/>
      <point x="192" y="-200"/>
      <point x="209" y="-186"/>
      <point x="226" y="-132" type="curve" smooth="yes"/>
      <point x="430" y="516" type="line"/>
      <point x="356" y="516" type="line"/>
    </contour>
    <contour>
      <point x="355" y="0" type="move" name="bottom"/>
    </contour>
    <contour>
      <point x="226" y="540" type="move" name="top"/>
    </contour>
  </outline>
</glyph>
<glyph name="z" format="1">
  <advance width="421"/>
  <unicode hex="007A"/>
  <outline>
    <contour>
      <point x="391" y="0" type="line" name="hr00"/>
      <point x="391" y="67" type="line"/>
      <point x="120" y="67" type="line"/>
      <point x="383" y="458" type="line"/>
      <point x="383" y="516" type="line"/>
      <point x="38" y="516" type="line"/>
      <point x="38" y="449" type="line"/>
      <point x="293" y="449" type="line"/>
      <point x="30" y="58" type="line"/>
      <point x="30" y="0" type="line"/>
    </contour>
    <contour>
      <point x="210" y="0" type="move" name="bottom"/>
    </contour>
    <contour>
      <point x="210" y="540" type="move" name="top"/>
    </contour>
  </outline>
</glyph>
<glyph name="braceleft" format="1">
  <advance width="310"/>
  <unicode hex="007B"/>
  <outline>
    <contour>
      <point x="257" y="-138" type="line" name="hr00"/>
      <point x="257" y="-78" type="line"/>
      <point x="173" y="-78" type="line"/>
      <point x="173" y="199" type="line" smooth="yes"/>
      <point x="173" y="252"/>
      <point x="128" y="304"/>
      <point x="68" y="305" type="curve"/>
      <point x="68" y="317" type="line"/>
      <point x="128" y="318"/>
      <point x="173" y="369"/>
      <point x="173" y="423" type="curve" smooth="yes"/>
      <point x="173" y="700" type="line"/>
      <point x="257" y="700" type="line"/>
      <point x="257" y="760" type="line"/>
      <point x="172" y="760" type="line" smooth="yes"/>
      <point x="124" y="760"/>
      <point x="107" y="742"/>
      <point x="107" y="697" type="curve" smooth="yes"/>
      <point x="107" y="423" type="line" smooth="yes"/>
      <point x="107" y="379"/>
      <point x="70" y="349"/>
      <point x="20" y="349" type="curve"/>
      <point x="20" y="273" type="line"/>
      <point x="70" y="273"/>
      <point x="107" y="243"/>
      <point x="107" y="199" type="curve" smooth="yes"/>
      <point x="107" y="-75" type="line" smooth="yes"/>
      <point x="107" y="-120"/>
      <point x="124" y="-138"/>
      <point x="172" y="-138" type="curve" smooth="yes"/>
    </contour>
  </outline>
</glyph>
<glyph name="bar" format="1">
  <advance width="288"/>
  <unicode hex="007C"/>
  <outline>
    <contour>
      <point x="176" y="-138" type="line" name="hr00"/>
      <point x="176" y="760" type="line"/>
      <point x="112" y="760" type="line"/>
      <point x="112" y="-138" type="line"/>
    </contour>
  </outline>
</glyph>
<glyph name="braceright" format="1">
  <advance width="310"/>
  <unicode hex="007D"/>
  <outline>
    <contour>
      <point x="53" y="760" type="line" name="hr00"/>
      <point x="53" y="700" type="line"/>
      <point x="137" y="700" type="line"/>
      <point x="137" y="423" type="line" smooth="yes"/>
      <point x="137" y="370"/>
      <point x="182" y="318"/>
      <point x="242" y="317" type="curve"/>
      <point x="242" y="305" type="line"/>
      <point x="182" y="304"/>
      <point x="137" y="253"/>
      <point x="137" y="199" type="curve" smooth="yes"/>
      <point x="137" y="-78" type="line"/>
      <point x="53" y="-78" type="line"/>
      <point x="53" y="-138" type="line"/>
      <point x="138" y="-138" type="line" smooth="yes"/>
      <point x="186" y="-138"/>
      <point x="203" y="-120"/>
      <point x="203" y="-75" type="curve" smooth="yes"/>
      <point x="203" y="199" type="line" smooth="yes"/>
      <point x="203" y="243"/>
      <point x="240" y="273"/>
      <point x="290" y="273" type="curve"/>
      <point x="290" y="349" type="line"/>
      <point x="240" y="349"/>
      <point x="203" y="379"/>
      <point x="203" y="423" type="curve" smooth="yes"/>
      <point x="203" y="697" type="line" smooth="yes"/>
      <point x="203" y="742"/>
      <point x="186" y="760"/>
      <point x="138" y="760" type="curve" smooth="yes"/>
    </contour>
  </outline>
</glyph>
<glyph name="asciitilde" format="1">
  <advance width="540"/>
  <unicode hex="007E"/>
  <outline>
    <contour>
      <point x="377" y="237" type="curve" smooth="yes" name="hr00"/>
      <point x="431" y="237"/>
      <point x="464" y="257"/>
      <point x="489" y="292" type="curve"/>
      <point x="456" y="332" type="line"/>
      <point x="432" y="311"/>
      <point x="413" y="302"/>
      <point x="382" y="302" type="curve" smooth="yes"/>
      <point x="351" y="302"/>
      <point x="313" y="321"/>
      <point x="280" y="338" type="curve" smooth="yes"/>
      <point x="239" y="359"/>
      <point x="207" y="373"/>
      <point x="163" y="373" type="curve" smooth="yes"/>
      <point x="109" y="373"/>
      <point x="76" y="353"/>
      <point x="51" y="318" type="curve"/>
      <point x="84" y="277" type="line"/>
      <point x="108" y="299"/>
      <point x="127" y="308"/>
      <point x="158" y="308" type="curve" smooth="yes"/>
      <point x="189" y="308"/>
      <point x="227" y="289"/>
      <point x="260" y="272" type="curve" smooth="yes"/>
      <point x="301" y="251"/>
      <point x="333" y="237"/>
    </contour>
  </outline>
</glyph>
<glyph name="exclamdown" format="1">
  <advance width="258"/>
  <unicode hex="00A1"/>
  <outline>
    <contour>
      <point x="171" y="-182" type="line"/>
      <point x="171" y="22" type="line"/>
      <point x="148" y="333" type="line"/>
      <point x="110" y="333" type="line"/>
      <point x="87" y="22" type="line"/>
      <point x="87" y="-182" type="line"/>
    </contour>
    <contour>
      <point x="129" y="410" type="curve" smooth="yes"/>
      <point x="168" y="410"/>
      <point x="188" y="428"/>
      <point x="188" y="461" type="curve" smooth="yes" name="hr01"/>
      <point x="188" y="477" type="line" smooth="yes"/>
      <point x="188" y="510"/>
      <point x="168" y="528"/>
      <point x="129" y="528" type="curve" smooth="yes"/>
      <point x="90" y="528"/>
      <point x="70" y="510"/>
      <point x="70" y="477" type="curve" smooth="yes"/>
      <point x="70" y="461" type="line" smooth="yes"/>
      <point x="70" y="428"/>
      <point x="90" y="410"/>
    </contour>
  </outline>
</glyph>
<glyph name="cent" format="1">
  <advance width="465"/>
  <unicode hex="00A2"/>
  <outline>
    <contour>
      <point x="274" y="-114" type="line" name="hr00"/>
      <point x="274" y="-10" type="line"/>
      <point x="351" y="-2"/>
      <point x="403" y="42"/>
      <point x="431" y="106" type="curve"/>
      <point x="375" y="145" type="line"/>
      <point x="354" y="94"/>
      <point x="323" y="65"/>
      <point x="272" y="58" type="curve"/>
      <point x="272" y="458" type="line"/>
      <point x="320" y="451"/>
      <point x="348" y="422"/>
      <point x="363" y="377" type="curve"/>
      <point x="426" y="409" type="line"/>
      <point x="402" y="471"/>
      <point x="354" y="518"/>
      <point x="274" y="527" type="curve"/>
      <point x="274" y="630" type="line"/>
      <point x="210" y="630" type="line"/>
      <point x="210" y="526" type="line"/>
      <point x="104" y="512"/>
      <point x="41" y="431"/>
      <point x="41" y="258" type="curve" smooth="yes"/>
      <point x="41" y="85"/>
      <point x="104" y="4"/>
      <point x="210" y="-10" type="curve"/>
      <point x="210" y="-114" type="line"/>
    </contour>
    <contour>
      <point x="123" y="206" type="curve" smooth="yes"/>
      <point x="123" y="310" type="line" smooth="yes"/>
      <point x="123" y="396"/>
      <point x="151" y="445"/>
      <point x="212" y="457" type="curve"/>
      <point x="212" y="59" type="line"/>
      <point x="151" y="71"/>
      <point x="123" y="120"/>
    </contour>
  </outline>
</glyph>
<glyph name="sterling" format="1">
  <advance width="535"/>
  <unicode hex="00A3"/>
  <outline>
    <contour>
      <point x="466" y="0" type="line"/>
      <point x="466" y="70" type="line"/>
      <point x="123" y="70" type="line"/>
      <point x="123" y="79" type="line"/>
      <point x="176" y="92"/>
      <point x="216" y="152"/>
      <point x="216" y="236" type="curve" smooth="yes"/>
      <point x="216" y="254"/>
      <point x="214" y="271"/>
      <point x="211" y="287" type="curve"/>
      <point x="383" y="287" type="line"/>
      <point x="383" y="352" type="line"/>
      <point x="194" y="352" type="line"/>
      <point x="183" y="393"/>
      <point x="171" y="436"/>
      <point x="171" y="492" type="curve" smooth="yes" name="hr01"/>
      <point x="171" y="601"/>
      <point x="213" y="640"/>
      <point x="292" y="640" type="curve" smooth="yes"/>
      <point x="358" y="640"/>
      <point x="395" y="612"/>
      <point x="423" y="563" type="curve"/>
      <point x="482" y="606" type="line"/>
      <point x="444" y="672"/>
      <point x="388" y="710"/>
      <point x="294" y="710" type="curve" smooth="yes"/>
      <point x="160" y="710"/>
      <point x="89" y="633"/>
      <point x="89" y="499" type="curve" smooth="yes"/>
      <point x="89" y="440"/>
      <point x="102" y="394"/>
      <point x="115" y="352" type="curve"/>
      <point x="52" y="352" type="line"/>
      <point x="52" y="287" type="line"/>
      <point x="132" y="287" type="line"/>
      <point x="136" y="270"/>
      <point x="138" y="252"/>
      <point x="138" y="233" type="curve" smooth="yes" name="hr02"/>
      <point x="138" y="156"/>
      <point x="121" y="116"/>
      <point x="73" y="92" type="curve"/>
      <point x="73" y="0" type="line"/>
    </contour>
  </outline>
</glyph>
<glyph name="yen" format="1">
  <advance width="546"/>
  <unicode hex="00A5"/>
  <outline>
    <contour>
      <point x="470" y="145" type="line" name="hr00"/>
      <point x="470" y="210" type="line"/>
      <point x="313" y="210" type="line"/>
      <point x="313" y="308" type="line"/>
      <point x="470" y="308" type="line"/>
      <point x="470" y="373" type="line"/>
      <point x="351" y="373" type="line"/>
      <point x="515" y="698" type="line"/>
      <point x="426" y="698" type="line"/>
      <point x="279" y="388" type="line"/>
      <point x="269" y="388" type="line"/>
      <point x="122" y="698" type="line"/>
      <point x="31" y="698" type="line"/>
      <point x="195" y="373" type="line"/>
      <point x="76" y="373" type="line"/>
      <point x="76" y="308" type="line"/>
      <point x="233" y="308" type="line"/>
      <point x="233" y="210" type="line"/>
      <point x="76" y="210" type="line"/>
      <point x="76" y="145" type="line"/>
      <point x="233" y="145" type="line"/>
      <point x="233" y="0" type="line"/>
      <point x="313" y="0" type="line"/>
      <point x="313" y="145" type="line"/>
    </contour>
  </outline>
</glyph>
<glyph name="brokenbar" format="1">
  <advance width="288"/>
  <unicode hex="00A6"/>
  <outline>
    <contour>
      <point x="176" y="406" type="line" name="hr00"/>
      <point x="176" y="760" type="line"/>
      <point x="112" y="760" type="line"/>
      <point x="112" y="406" type="line"/>
    </contour>
    <contour>
      <point x="176" y="-138" type="line"/>
      <point x="176" y="216" type="line"/>
      <point x="112" y="216" type="line"/>
      <point x="112" y="-138" type="line"/>
    </contour>
  </outline>
</glyph>
<glyph name="section" format="1">
  <advance width="526"/>
  <unicode hex="00A7"/>
  <outline>
    <contour>
      <point x="428" y="3" type="curve" smooth="yes"/>
      <point x="428" y="64"/>
      <point x="404" y="106"/>
      <point x="361" y="134" type="curve"/>
      <point x="361" y="143" type="line"/>
      <point x="424" y="163"/>
      <point x="460" y="220"/>
      <point x="460" y="282" type="curve" smooth="yes" name="hr01"/>
      <point x="460" y="350"/>
      <point x="428" y="400"/>
      <point x="321" y="436" type="curve" smooth="yes"/>
      <point x="264" y="455" type="line" smooth="yes"/>
      <point x="205" y="475"/>
      <point x="171" y="500"/>
      <point x="171" y="553" type="curve" smooth="yes"/>
      <point x="171" y="616"/>
      <point x="210" y="643"/>
      <point x="275" y="643" type="curve" smooth="yes"/>
      <point x="323" y="643"/>
      <point x="358" y="629"/>
      <point x="386" y="603" type="curve"/>
      <point x="430" y="657" type="line"/>
      <point x="388" y="695"/>
      <point x="333" y="710"/>
      <point x="276" y="710" type="curve" smooth="yes"/>
      <point x="170" y="710"/>
      <point x="98" y="656"/>
      <point x="98" y="553" type="curve" smooth="yes"/>
      <point x="98" y="490"/>
      <point x="125" y="449"/>
      <point x="165" y="422" type="curve"/>
      <point x="165" y="412" type="line"/>
      <point x="103" y="392"/>
      <point x="67" y="335"/>
      <point x="67" y="273" type="curve" smooth="yes" name="hr02"/>
      <point x="67" y="205"/>
      <point x="99" y="153"/>
      <point x="204" y="119" type="curve" smooth="yes"/>
      <point x="262" y="100" type="line" smooth="yes"/>
      <point x="320" y="80"/>
      <point x="355" y="55"/>
      <point x="355" y="2" type="curve" smooth="yes"/>
      <point x="355" y="-61"/>
      <point x="315" y="-88"/>
      <point x="250" y="-88" type="curve" smooth="yes"/>
      <point x="203" y="-88"/>
      <point x="168" y="-73"/>
      <point x="140" y="-48" type="curve"/>
      <point x="97" y="-102" type="line"/>
      <point x="138" y="-140"/>
      <point x="192" y="-155"/>
      <point x="249" y="-155" type="curve" smooth="yes"/>
      <point x="355" y="-155"/>
      <point x="428" y="-102"/>
    </contour>
    <contour>
      <point x="386" y="263" type="curve" smooth="yes" name="hr03"/>
      <point x="386" y="215"/>
      <point x="363" y="179"/>
      <point x="328" y="150" type="curve"/>
      <point x="319" y="154"/>
      <point x="309" y="158"/>
      <point x="299" y="161" type="curve" smooth="yes"/>
      <point x="243" y="178" type="line" smooth="yes"/>
      <point x="163" y="202"/>
      <point x="140" y="234"/>
      <point x="140" y="292" type="curve" smooth="yes"/>
      <point x="140" y="340"/>
      <point x="162" y="377"/>
      <point x="197" y="405" type="curve"/>
      <point x="206" y="401"/>
      <point x="216" y="397"/>
      <point x="226" y="394" type="curve" smooth="yes"/>
      <point x="283" y="377" type="line" smooth="yes"/>
      <point x="363" y="353"/>
      <point x="386" y="321"/>
    </contour>
  </outline>
</glyph>
<glyph name="dieresis" format="1">
  <advance width="540"/>
  <unicode hex="00A8"/>
  <outline>
    <contour>
      <point x="184" y="620" type="curve" smooth="yes" name="hr00"/>
      <point x="217" y="620"/>
      <point x="234" y="635"/>
      <point x="234" y="660" type="curve" smooth="yes"/>
      <point x="234" y="678" type="line" smooth="yes"/>
      <point x="234" y="703"/>
      <point x="217" y="718"/>
      <point x="184" y="718" type="curve" smooth="yes"/>
      <point x="151" y="718"/>
      <point x="134" y="703"/>
      <point x="134" y="678" type="curve" smooth="yes"/>
      <point x="134" y="660" type="line" smooth="yes"/>
      <point x="134" y="635"/>
      <point x="151" y="620"/>
    </contour>
    <contour>
      <point x="356" y="620" type="curve" smooth="yes"/>
      <point x="389" y="620"/>
      <point x="406" y="635"/>
      <point x="406" y="660" type="curve" smooth="yes"/>
      <point x="406" y="678" type="line" smooth="yes"/>
      <point x="406" y="703"/>
      <point x="389" y="718"/>
      <point x="356" y="718" type="curve" smooth="yes"/>
      <point x="323" y="718"/>
      <point x="306" y="703"/>
      <point x="306" y="678" type="curve" smooth="yes"/>
      <point x="306" y="660" type="line" smooth="yes"/>
      <point x="306" y="635"/>
      <point x="323" y="620"/>
    </contour>
    <contour>
      <point x="270" y="540" type="move" name="_top"/>
    </contour>
  </outline>
</glyph>
<glyph name="copyright" format="1">
  <advance width="700"/>
  <unicode hex="00A9"/>
  <outline>
    <contour>
      <point x="350" y="-12" type="curve" smooth="yes" name="hr00"/>
      <point x="522" y="-12"/>
      <point x="657" y="113"/>
      <point x="657" y="349" type="curve"/>
      <point x="657" y="585"/>
      <point x="522" y="710"/>
      <point x="350" y="710" type="curve" smooth="yes"/>
      <point x="178" y="710"/>
      <point x="43" y="585"/>
      <point x="43" y="349" type="curve"/>
      <point x="43" y="113"/>
      <point x="178" y="-12"/>
    </contour>
    <contour>
      <point x="350" y="45" type="curve" smooth="yes"/>
      <point x="209" y="45"/>
      <point x="110" y="154"/>
      <point x="110" y="309" type="curve" smooth="yes"/>
      <point x="110" y="389" type="line" smooth="yes"/>
      <point x="110" y="544"/>
      <point x="209" y="653"/>
      <point x="350" y="653" type="curve" smooth="yes"/>
      <point x="491" y="653"/>
      <point x="590" y="544"/>
      <point x="590" y="389" type="curve" smooth="yes"/>
      <point x="590" y="309" type="line" smooth="yes"/>
      <point x="590" y="154"/>
      <point x="491" y="45"/>
    </contour>
    <contour>
      <point x="357" y="156" type="curve" smooth="yes"/>
      <point x="425" y="156"/>
      <point x="465" y="190"/>
      <point x="486" y="239" type="curve"/>
      <point x="434" y="272" type="line"/>
      <point x="417" y="238"/>
      <point x="398" y="216"/>
      <point x="357" y="216" type="curve" smooth="yes"/>
      <point x="304" y="216"/>
      <point x="276" y="252"/>
      <point x="276" y="311" type="curve" smooth="yes"/>
      <point x="276" y="387" type="line" smooth="yes"/>
      <point x="276" y="446"/>
      <point x="304" y="482"/>
      <point x="357" y="482" type="curve" smooth="yes"/>
      <point x="395" y="482"/>
      <point x="413" y="462"/>
      <point x="427" y="429" type="curve"/>
      <point x="480" y="460" type="line"/>
      <point x="459" y="509"/>
      <point x="422" y="542"/>
      <point x="357" y="542" type="curve" smooth="yes"/>
      <point x="252" y="542"/>
      <point x="202" y="474"/>
      <point x="202" y="349" type="curve" smooth="yes"/>
      <point x="202" y="224"/>
      <point x="252" y="156"/>
    </contour>
  </outline>
</glyph>
<glyph name="ordfeminine" format="1">
  <advance width="362"/>
  <unicode hex="00AA"/>
  <outline>
    <contour>
      <point x="327" y="405" type="line"/>
      <point x="293" y="405" type="line"/>
      <point x="293" y="583" type="line" smooth="yes"/>
      <point x="293" y="663"/>
      <point x="249" y="704"/>
      <point x="171" y="704" type="curve" smooth="yes"/>
      <point x="102" y="704"/>
      <point x="64" y="670"/>
      <point x="47" y="637" type="curve"/>
      <point x="86" y="604" type="line"/>
      <point x="98" y="634"/>
      <point x="125" y="654"/>
      <point x="167" y="654" type="curve" smooth="yes"/>
      <point x="214" y="654"/>
      <point x="234" y="634"/>
      <point x="234" y="580" type="curve" smooth="yes"/>
      <point x="234" y="546" type="line"/>
      <point x="171" y="546" type="line" smooth="yes"/>
      <point x="83" y="546"/>
      <point x="36" y="515"/>
      <point x="36" y="442" type="curve" smooth="yes"/>
      <point x="36" y="382"/>
      <point x="69" y="344"/>
      <point x="133" y="344" type="curve" smooth="yes" name=""/>
      <point x="180" y="344"/>
      <point x="213" y="368"/>
      <point x="226" y="405" type="curve" name=""/>
      <point x="234" y="405" type="line"/>
      <point x="234" y="403" type="line" smooth="yes"/>
      <point x="234" y="366"/>
      <point x="255" y="350"/>
      <point x="290" y="350" type="curve" smooth="yes"/>
      <point x="327" y="350" type="line"/>
    </contour>
    <contour>
      <point x="234" y="501" type="line"/>
      <point x="234" y="460" type="line" smooth="yes"/>
      <point x="234" y="420"/>
      <point x="195" y="394"/>
      <point x="149" y="394" type="curve" smooth="yes" name=""/>
      <point x="113" y="394"/>
      <point x="95" y="408"/>
      <point x="95" y="439" type="curve" smooth="yes"/>
      <point x="95" y="458" type="line" smooth="yes"/>
      <point x="95" y="486"/>
      <point x="122" y="501"/>
      <point x="170" y="501" type="curve" smooth="yes"/>
    </contour>
  </outline>
</glyph>
<glyph name="logicalnot" format="1">
  <advance width="540"/>
  <unicode hex="00AC"/>
  <outline>
    <contour>
      <point x="480" y="78" type="line" name="hr00"/>
      <point x="480" y="337" type="line"/>
      <point x="60" y="337" type="line"/>
      <point x="60" y="273" type="line"/>
      <point x="408" y="273" type="line"/>
      <point x="408" y="78" type="line"/>
    </contour>
  </outline>
</glyph>
<glyph name="registered" format="1">
  <advance width="428"/>
  <unicode hex="00AE"/>
  <outline>
    <contour>
      <point x="214" y="298" type="curve" smooth="yes" name="hr00"/>
      <point x="320" y="298"/>
      <point x="397" y="375"/>
      <point x="397" y="504" type="curve" smooth="yes"/>
      <point x="397" y="633"/>
      <point x="320" y="710"/>
      <point x="214" y="710" type="curve" smooth="yes"/>
      <point x="108" y="710"/>
      <point x="31" y="633"/>
      <point x="31" y="504" type="curve" smooth="yes"/>
      <point x="31" y="375"/>
      <point x="108" y="298"/>
    </contour>
    <contour>
      <point x="214" y="335" type="curve" smooth="yes"/>
      <point x="125" y="335"/>
      <point x="76" y="402"/>
      <point x="76" y="481" type="curve" smooth="yes"/>
      <point x="76" y="527" type="line" smooth="yes"/>
      <point x="76" y="606"/>
      <point x="125" y="673"/>
      <point x="214" y="673" type="curve" smooth="yes"/>
      <point x="303" y="673"/>
      <point x="352" y="606"/>
      <point x="352" y="527" type="curve" smooth="yes"/>
      <point x="352" y="481" type="line" smooth="yes"/>
      <point x="352" y="402"/>
      <point x="303" y="335"/>
    </contour>
    <contour>
      <point x="180" y="480" type="line"/>
      <point x="215" y="480" type="line"/>
      <point x="254" y="400" type="line"/>
      <point x="296" y="400" type="line"/>
      <point x="253" y="484" type="line"/>
      <point x="275" y="491"/>
      <point x="287" y="512"/>
      <point x="287" y="545" type="curve" smooth="yes"/>
      <point x="287" y="588"/>
      <point x="267" y="608"/>
      <point x="230" y="608" type="curve" smooth="yes"/>
      <point x="142" y="608" type="line"/>
      <point x="142" y="400" type="line"/>
      <point x="180" y="400" type="line"/>
    </contour>
    <contour>
      <point x="180" y="512" type="line"/>
      <point x="180" y="576" type="line"/>
      <point x="228" y="576" type="line" smooth="yes"/>
      <point x="242" y="576"/>
      <point x="247" y="569"/>
      <point x="247" y="555" type="curve" smooth="yes"/>
      <point x="247" y="533" type="line" smooth="yes"/>
      <point x="247" y="519"/>
      <point x="242" y="512"/>
      <point x="228" y="512" type="curve" smooth="yes"/>
    </contour>
  </outline>
</glyph>
<glyph name="macron" format="1">
  <advance width="540"/>
  <unicode hex="00AF"/>
  <outline>
    <contour>
      <point x="143" y="639" type="line" name=""/>
      <point x="397" y="639" type="line"/>
      <point x="397" y="703" type="line"/>
      <point x="143" y="703" type="line"/>
    </contour>
    <contour>
      <point x="270.0" y="540.0" type="move" name="_top"/>
    </contour>
  </outline>
</glyph>
<glyph name="degree" format="1">
  <advance width="422"/>
  <unicode hex="00B0"/>
  <outline>
    <contour>
      <point x="212" y="384" type="curve" smooth="yes" name="hr00"/>
      <point x="301" y="384"/>
      <point x="370" y="446"/>
      <point x="370" y="547" type="curve" smooth="yes"/>
      <point x="370" y="648"/>
      <point x="301" y="710"/>
      <point x="212" y="710" type="curve" smooth="yes"/>
      <point x="123" y="710"/>
      <point x="54" y="648"/>
      <point x="54" y="547" type="curve" smooth="yes"/>
      <point x="54" y="446"/>
      <point x="123" y="384"/>
    </contour>
    <contour>
      <point x="212" y="443" type="curve" smooth="yes"/>
      <point x="158" y="443"/>
      <point x="120" y="482"/>
      <point x="120" y="547" type="curve" smooth="yes"/>
      <point x="120" y="612"/>
      <point x="158" y="651"/>
      <point x="212" y="651" type="curve" smooth="yes"/>
      <point x="266" y="651"/>
      <point x="304" y="612"/>
      <point x="304" y="547" type="curve" smooth="yes"/>
      <point x="304" y="482"/>
      <point x="266" y="443"/>
    </contour>
  </outline>
</glyph>
<glyph name="plusminus" format="1">
  <advance width="540"/>
  <unicode hex="00B1"/>
  <outline>
    <contour>
      <point x="306" y="169" type="line" name="hr00"/>
      <point x="306" y="351" type="line"/>
      <point x="480" y="351" type="line"/>
      <point x="480" y="415" type="line"/>
      <point x="306" y="415" type="line"/>
      <point x="306" y="597" type="line"/>
      <point x="234" y="597" type="line"/>
      <point x="234" y="415" type="line"/>
      <point x="60" y="415" type="line"/>
      <point x="60" y="351" type="line"/>
      <point x="234" y="351" type="line"/>
      <point x="234" y="169" type="line"/>
    </contour>
    <contour>
      <point x="480" y="0" type="line"/>
      <point x="480" y="64" type="line"/>
      <point x="60" y="64" type="line"/>
      <point x="60" y="0" type="line"/>
    </contour>
  </outline>
</glyph>
<glyph name="twosuperior" format="1">
  <advance width="320"/>
  <unicode hex="00B2"/>
  <outline>
    <contour>
      <point x="286" y="377" type="line" name="hr00"/>
      <point x="100" y="377" type="line"/>
      <point x="187" y="453" type="line" smooth="yes"/>
      <point x="238" y="497"/>
      <point x="274" y="535"/>
      <point x="274" y="595" type="curve" smooth="yes"/>
      <point x="274" y="661"/>
      <point x="239" y="704"/>
      <point x="158" y="704" type="curve" smooth="yes"/>
      <point x="80" y="704"/>
      <point x="48" y="661"/>
      <point x="34" y="615" type="curve"/>
      <point x="85" y="595" type="line"/>
      <point x="94" y="628"/>
      <point x="109" y="654"/>
      <point x="154" y="654" type="curve" smooth="yes"/>
      <point x="195" y="654"/>
      <point x="212" y="633"/>
      <point x="212" y="604" type="curve" smooth="yes"/>
      <point x="212" y="581" type="line" smooth="yes"/>
      <point x="212" y="547"/>
      <point x="190" y="520"/>
      <point x="155" y="488" type="curve" smooth="yes"/>
      <point x="40" y="383" type="line"/>
      <point x="40" y="329" type="line"/>
      <point x="286" y="329" type="line"/>
    </contour>
  </outline>
</glyph>
<glyph name="threesuperior" format="1">
  <advance width="320"/>
  <unicode hex="00B3"/>
  <outline>
    <contour>
      <point x="111" y="544" type="line"/>
      <point x="111" y="496" type="line"/>
      <point x="149" y="496" type="line" smooth="yes"/>
      <point x="193" y="496"/>
      <point x="218" y="481"/>
      <point x="218" y="448" type="curve" smooth="yes"/>
      <point x="218" y="425" type="line" smooth="yes"/>
      <point x="218" y="392"/>
      <point x="194" y="371"/>
      <point x="151" y="371" type="curve" smooth="yes"/>
      <point x="103" y="371"/>
      <point x="89" y="392"/>
      <point x="72" y="421" type="curve"/>
      <point x="28" y="388" type="line"/>
      <point x="51" y="355"/>
      <point x="79" y="323"/>
      <point x="153" y="323" type="curve" smooth="yes"/>
      <point x="230" y="323"/>
      <point x="280" y="358"/>
      <point x="280" y="431" type="curve" smooth="yes"/>
      <point x="280" y="486"/>
      <point x="245" y="513"/>
      <point x="203" y="518" type="curve"/>
      <point x="203" y="524" type="line"/>
      <point x="241" y="533"/>
      <point x="274" y="557"/>
      <point x="274" y="609" type="curve" smooth="yes" name="hr01"/>
      <point x="274" y="677"/>
      <point x="224" y="704"/>
      <point x="157" y="704" type="curve" smooth="yes"/>
      <point x="91" y="704"/>
      <point x="63" y="676"/>
      <point x="42" y="643" type="curve"/>
      <point x="82" y="611" type="line"/>
      <point x="98" y="639"/>
      <point x="114" y="656"/>
      <point x="155" y="656" type="curve" smooth="yes"/>
      <point x="190" y="656"/>
      <point x="212" y="640"/>
      <point x="212" y="611" type="curve" smooth="yes"/>
      <point x="212" y="591" type="line" smooth="yes"/>
      <point x="212" y="564"/>
      <point x="191" y="544"/>
      <point x="146" y="544" type="curve" smooth="yes"/>
    </contour>
  </outline>
</glyph>
<glyph name="acute" format="1">
  <advance width="540"/>
  <unicode hex="00B4"/>
  <outline>
    <contour>
      <point x="374" y="743" type="line" name="hr00"/>
      <point x="305" y="779" type="line"/>
      <point x="228" y="610" type="line"/>
      <point x="277" y="585" type="line"/>
    </contour>
    <contour>
      <point x="270" y="540" type="move" name="_top"/>
    </contour>
  </outline>
</glyph>
<glyph name="mu" format="1">
  <advance width="518"/>
  <unicode hex="00B5"/>
  <outline>
    <contour>
      <point x="151" y="-200" type="line"/>
      <point x="151" y="-41" type="line"/>
      <point x="142" y="42" type="line"/>
      <point x="150" y="42" type="line"/>
      <point x="162" y="8"/>
      <point x="201" y="-12"/>
      <point x="240" y="-12" type="curve" smooth="yes"/>
      <point x="303" y="-12"/>
      <point x="336" y="22"/>
      <point x="356" y="84" type="curve"/>
      <point x="366" y="84" type="line"/>
      <point x="366" y="0" type="line" name="hr01"/>
      <point x="442" y="0" type="line"/>
      <point x="442" y="516" type="line"/>
      <point x="366" y="516" type="line"/>
      <point x="366" y="164" type="line" smooth="yes"/>
      <point x="366" y="97"/>
      <point x="317" y="57"/>
      <point x="256" y="57" type="curve" smooth="yes" name="hr02"/>
      <point x="186" y="57"/>
      <point x="152" y="103"/>
      <point x="152" y="185" type="curve" smooth="yes"/>
      <point x="152" y="516" type="line"/>
      <point x="76" y="516" type="line"/>
      <point x="76" y="-200" type="line"/>
    </contour>
  </outline>
</glyph>
<glyph name="paragraph" format="1">
  <advance width="588"/>
  <unicode hex="00B6"/>
  <outline>
    <contour>
      <point x="221" y="-149" type="line" name="hr00"/>
      <point x="291" y="-149" type="line"/>
      <point x="291" y="633" type="line"/>
      <point x="386" y="633" type="line"/>
      <point x="386" y="-149" type="line"/>
      <point x="456" y="-149" type="line"/>
      <point x="456" y="633" type="line"/>
      <point x="516" y="633" type="line"/>
      <point x="516" y="698" type="line"/>
      <point x="221" y="698" type="line" smooth="yes"/>
      <point x="115" y="698"/>
      <point x="46" y="617"/>
      <point x="46" y="500" type="curve" smooth="yes"/>
      <point x="46" y="383"/>
      <point x="115" y="302"/>
      <point x="221" y="302" type="curve"/>
    </contour>
  </outline>
</glyph>
<glyph name="periodcentered" format="1">
  <advance width="296"/>
  <unicode hex="00B7"/>
  <outline>
    <contour>
      <point x="148" y="245" type="curve" smooth="yes" name="hr00"/>
      <point x="187" y="245"/>
      <point x="207" y="263"/>
      <point x="207" y="296" type="curve" smooth="yes"/>
      <point x="207" y="312" type="line" smooth="yes"/>
      <point x="207" y="345"/>
      <point x="187" y="363"/>
      <point x="148" y="363" type="curve" smooth="yes"/>
      <point x="109" y="363"/>
      <point x="89" y="345"/>
      <point x="89" y="312" type="curve" smooth="yes"/>
      <point x="89" y="296" type="line" smooth="yes"/>
      <point x="89" y="263"/>
      <point x="109" y="245"/>
    </contour>
  </outline>
</glyph>
<glyph name="cedilla" format="1">
  <advance width="540"/>
  <unicode hex="00B8"/>
  <outline>
    <contour>
      <point x="280" y="-207" type="curve" smooth="yes" name="hr00"/>
      <point x="334" y="-207"/>
      <point x="382" y="-180"/>
      <point x="382" y="-124" type="curve" smooth="yes"/>
      <point x="382" y="-79"/>
      <point x="361" y="-54"/>
      <point x="324" y="-54" type="curve" smooth="yes"/>
      <point x="304" y="-54"/>
      <point x="295" y="-61"/>
      <point x="288" y="-70" type="curve"/>
      <point x="280" y="-70" type="line"/>
      <point x="295" y="10" type="line"/>
      <point x="249" y="10" type="line"/>
      <point x="231" y="-87" type="line"/>
      <point x="280" y="-87" type="line" smooth="yes"/>
      <point x="308" y="-87"/>
      <point x="322" y="-97"/>
      <point x="322" y="-121" type="curve" smooth="yes"/>
      <point x="322" y="-145"/>
      <point x="308" y="-155"/>
      <point x="280" y="-155" type="curve" smooth="yes"/>
      <point x="253" y="-155"/>
      <point x="236" y="-141"/>
      <point x="223" y="-127" type="curve"/>
      <point x="188" y="-166" type="line"/>
      <point x="202" y="-184"/>
      <point x="230" y="-207"/>
    </contour>
    <contour>
      <point x="270" y="0" type="move" name="_bottom"/>
    </contour>
  </outline>
</glyph>
<glyph name="onesuperior" format="1">
  <advance width="320"/>
  <unicode hex="00B9"/>
  <outline>
    <contour>
      <point x="291" y="329" type="line" name=""/>
      <point x="291" y="377" type="line"/>
      <point x="205" y="377" type="line"/>
      <point x="205" y="698" type="line"/>
      <point x="120" y="698" type="line"/>
      <point x="30" y="608" type="line"/>
      <point x="66" y="576" type="line"/>
      <point x="139" y="650" type="line"/>
      <point x="145" y="650" type="line"/>
      <point x="145" y="377" type="line"/>
      <point x="49" y="377" type="line"/>
      <point x="49" y="329" type="line"/>
    </contour>
  </outline>
</glyph>
<glyph name="ordmasculine" format="1">
  <advance width="360"/>
  <unicode hex="00BA"/>
  <outline>
    <contour>
      <point x="180" y="344" type="curve" smooth="yes" name=""/>
      <point x="268" y="344"/>
      <point x="321" y="400"/>
      <point x="321" y="524" type="curve" smooth="yes"/>
      <point x="321" y="648"/>
      <point x="268" y="704"/>
      <point x="180" y="704" type="curve" smooth="yes"/>
      <point x="92" y="704"/>
      <point x="39" y="648"/>
      <point x="39" y="524" type="curve" smooth="yes"/>
      <point x="39" y="400"/>
      <point x="92" y="344"/>
    </contour>
    <contour>
      <point x="180" y="394" type="curve" smooth="yes"/>
      <point x="128" y="394"/>
      <point x="103" y="425"/>
      <point x="103" y="483" type="curve" smooth="yes"/>
      <point x="103" y="565" type="line" smooth="yes"/>
      <point x="103" y="623"/>
      <point x="128" y="654"/>
      <point x="180" y="654" type="curve" smooth="yes"/>
      <point x="232" y="654"/>
      <point x="257" y="623"/>
      <point x="257" y="565" type="curve" smooth="yes"/>
      <point x="257" y="483" type="line" smooth="yes"/>
      <point x="257" y="425"/>
      <point x="232" y="394"/>
    </contour>
  </outline>
</glyph>
<glyph name="questiondown" format="1">
  <advance width="422"/>
  <unicode hex="00BF"/>
  <outline>
    <contour>
      <point x="215" y="-195" type="curve" smooth="yes"/>
      <point x="329" y="-195"/>
      <point x="388" y="-119"/>
      <point x="410" y="-32" type="curve"/>
      <point x="341" y="-6" type="line"/>
      <point x="327" y="-74"/>
      <point x="286" y="-125"/>
      <point x="218" y="-125" type="curve" smooth="yes"/>
      <point x="156" y="-125"/>
      <point x="114" y="-80"/>
      <point x="114" y="-11" type="curve" smooth="yes"/>
      <point x="114" y="3" type="line" smooth="yes"/>
      <point x="114" y="88"/>
      <point x="173" y="139"/>
      <point x="271" y="144" type="curve"/>
      <point x="271" y="309" type="line"/>
      <point x="198" y="309" type="line"/>
      <point x="198" y="199" type="line"/>
      <point x="118" y="182"/>
      <point x="33" y="122"/>
      <point x="33" y="-7" type="curve" smooth="yes"/>
      <point x="33" y="-121"/>
      <point x="104" y="-195"/>
    </contour>
    <contour>
      <point x="236" y="410" type="curve" smooth="yes"/>
      <point x="275" y="410"/>
      <point x="295" y="428"/>
      <point x="295" y="461" type="curve" smooth="yes" name="hr01"/>
      <point x="295" y="477" type="line" smooth="yes"/>
      <point x="295" y="510"/>
      <point x="275" y="528"/>
      <point x="236" y="528" type="curve" smooth="yes"/>
      <point x="197" y="528"/>
      <point x="177" y="510"/>
      <point x="177" y="477" type="curve" smooth="yes"/>
      <point x="177" y="461" type="line" smooth="yes"/>
      <point x="177" y="428"/>
      <point x="197" y="410"/>
    </contour>
  </outline>
</glyph>
<glyph name="AE" format="1">
  <advance width="820"/>
  <unicode hex="00C6"/>
  <outline>
    <contour>
      <point x="377" y="0" type="line" name="hr00"/>
      <point x="763" y="0" type="line"/>
      <point x="763" y="70" type="line"/>
      <point x="457" y="70" type="line"/>
      <point x="457" y="318" type="line"/>
      <point x="744" y="318" type="line"/>
      <point x="744" y="388" type="line"/>
      <point x="457" y="388" type="line"/>
      <point x="457" y="628" type="line"/>
      <point x="763" y="628" type="line"/>
      <point x="763" y="698" type="line"/>
      <point x="323" y="698" type="line"/>
      <point x="3" y="0" type="line"/>
      <point x="85" y="0" type="line"/>
      <point x="177" y="208" type="line"/>
      <point x="377" y="208" type="line"/>
    </contour>
    <contour>
      <point x="377" y="628" type="line"/>
      <point x="377" y="274" type="line"/>
      <point x="207" y="274" type="line"/>
      <point x="364" y="628" type="line"/>
    </contour>
    <contour>
      <point x="531" y="698" type="move" name="top"/>
    </contour>
  </outline>
</glyph>
<glyph name="Ccedilla" format="1">
  <advance width="561"/>
  <unicode hex="00C7"/>
  <outline>
    <contour>
      <point x="305" y="639" type="curve" smooth="yes" name="hr00"/>
      <point x="392" y="639"/>
      <point x="436" y="598"/>
      <point x="461" y="523" type="curve"/>
      <point x="525" y="562" type="line"/>
      <point x="485" y="661"/>
      <point x="419" y="710"/>
      <point x="305" y="710" type="curve" smooth="yes"/>
      <point x="147" y="710"/>
      <point x="52" y="598"/>
      <point x="52" y="349" type="curve" smooth="yes"/>
      <point x="52" y="114"/>
      <point x="137" y="1"/>
      <point x="279" y="-11" type="curve"/>
      <point x="265" y="-87" type="line"/>
      <point x="314" y="-87" type="line" smooth="yes"/>
      <point x="342" y="-87"/>
      <point x="356" y="-97"/>
      <point x="356" y="-121" type="curve" smooth="yes"/>
      <point x="356" y="-145"/>
      <point x="342" y="-155"/>
      <point x="314" y="-155" type="curve" smooth="yes"/>
      <point x="287" y="-155"/>
      <point x="270" y="-141"/>
      <point x="257" y="-127" type="curve"/>
      <point x="222" y="-166" type="line"/>
      <point x="236" y="-184"/>
      <point x="264" y="-207"/>
      <point x="314" y="-207" type="curve" smooth="yes"/>
      <point x="368" y="-207"/>
      <point x="416" y="-180"/>
      <point x="416" y="-124" type="curve" smooth="yes"/>
      <point x="416" y="-79"/>
      <point x="395" y="-54"/>
      <point x="358" y="-54" type="curve" smooth="yes"/>
      <point x="338" y="-54"/>
      <point x="329" y="-61"/>
      <point x="322" y="-70" type="curve"/>
      <point x="314" y="-70" type="line"/>
      <point x="325" y="-11" type="line"/>
      <point x="427" y="-5"/>
      <point x="492" y="48"/>
      <point x="530" y="142" type="curve"/>
      <point x="466" y="182" type="line"/>
      <point x="441" y="102"/>
      <point x="395" y="59"/>
      <point x="305" y="59" type="curve" smooth="yes"/>
      <point x="199" y="59"/>
      <point x="138" y="142"/>
      <point x="138" y="271" type="curve" smooth="yes"/>
      <point x="138" y="427" type="line" smooth="yes"/>
      <point x="138" y="556"/>
      <point x="199" y="639"/>
    </contour>
  </outline>
</glyph>
<glyph name="multiply" format="1">
  <advance width="540"/>
  <unicode hex="00D7"/>
  <outline>
    <contour>
      <point x="415" y="115" type="line" name="hr00"/>
      <point x="460" y="160" type="line"/>
      <point x="315" y="305" type="line"/>
      <point x="460" y="450" type="line"/>
      <point x="415" y="495" type="line"/>
      <point x="270" y="350" type="line"/>
      <point x="125" y="495" type="line"/>
      <point x="80" y="450" type="line"/>
      <point x="225" y="305" type="line"/>
      <point x="80" y="160" type="line"/>
      <point x="125" y="115" type="line"/>
      <point x="270" y="260" type="line"/>
    </contour>
  </outline>
</glyph>
<glyph name="Oslash" format="1">
  <advance width="638"/>
  <unicode hex="00D8"/>
  <outline>
    <contour>
      <point x="319" y="-12" type="curve" smooth="yes" name="hr00"/>
      <point x="488" y="-12"/>
      <point x="586" y="100"/>
      <point x="586" y="349" type="curve" smooth="yes"/>
      <point x="586" y="467"/>
      <point x="564" y="555"/>
      <point x="523" y="614" type="curve"/>
      <point x="580" y="706" type="line"/>
      <point x="527" y="742" type="line"/>
      <point x="477" y="662" type="line"/>
      <point x="435" y="694"/>
      <point x="382" y="710"/>
      <point x="319" y="710" type="curve" smooth="yes"/>
      <point x="150" y="710"/>
      <point x="52" y="598"/>
      <point x="52" y="349" type="curve" smooth="yes"/>
      <point x="52" y="231"/>
      <point x="74" y="143"/>
      <point x="115" y="84" type="curve"/>
      <point x="58" y="-8" type="line"/>
      <point x="111" y="-44" type="line"/>
      <point x="161" y="36" type="line"/>
      <point x="203" y="4"/>
      <point x="256" y="-12"/>
    </contour>
    <contour>
      <point x="152" y="151" type="line"/>
      <point x="138" y="241" type="line"/>
      <point x="138" y="427" type="line" smooth="yes"/>
      <point x="138" y="556"/>
      <point x="204" y="639"/>
      <point x="319" y="639" type="curve" smooth="yes"/>
      <point x="368" y="639"/>
      <point x="408" y="624"/>
      <point x="438" y="596" type="curve"/>
      <point x="319" y="410" type="line"/>
      <point x="163" y="151" type="line"/>
    </contour>
    <contour>
      <point x="319" y="288" type="line"/>
      <point x="475" y="547" type="line"/>
      <point x="486" y="547" type="line"/>
      <point x="500" y="457" type="line"/>
      <point x="500" y="271" type="line" smooth="yes"/>
      <point x="500" y="142"/>
      <point x="434" y="59"/>
      <point x="319" y="59" type="curve" smooth="yes"/>
      <point x="270" y="59"/>
      <point x="230" y="74"/>
      <point x="200" y="102" type="curve"/>
    </contour>
    <contour>
      <point x="319" y="698" type="move" name="top"/>
    </contour>
  </outline>
</glyph>
<glyph name="Thorn" format="1">
  <advance width="548"/>
  <unicode hex="00DE"/>
  <outline>
    <contour>
      <point x="163" y="0" type="line" name="hr00"/>
      <point x="163" y="156" type="line"/>
      <point x="340" y="156" type="line" smooth="yes"/>
      <point x="454" y="156"/>
      <point x="513" y="221"/>
      <point x="513" y="355" type="curve" smooth="yes"/>
      <point x="513" y="489"/>
      <point x="454" y="554"/>
      <point x="340" y="554" type="curve" smooth="yes"/>
      <point x="163" y="554" type="line"/>
      <point x="163" y="698" type="line"/>
      <point x="83" y="698" type="line"/>
      <point x="83" y="0" type="line"/>
    </contour>
    <contour>
      <point x="163" y="484" type="line"/>
      <point x="338" y="484" type="line" smooth="yes"/>
      <point x="397" y="484"/>
      <point x="427" y="453"/>
      <point x="427" y="388" type="curve" smooth="yes"/>
      <point x="427" y="322" type="line" smooth="yes"/>
      <point x="427" y="257"/>
      <point x="397" y="226"/>
      <point x="338" y="226" type="curve" smooth="yes"/>
      <point x="163" y="226" type="line"/>
    </contour>
  </outline>
</glyph>
<glyph name="germandbls" format="1">
  <advance width="579"/>
  <unicode hex="00DF"/>
  <outline>
    <contour>
      <point x="557" y="147" type="curve" smooth="yes"/>
      <point x="557" y="226"/>
      <point x="521" y="262"/>
      <point x="433" y="290" type="curve" smooth="yes"/>
      <point x="408" y="298" type="line" smooth="yes"/>
      <point x="354" y="315"/>
      <point x="334" y="334"/>
      <point x="334" y="381" type="curve" smooth="yes"/>
      <point x="334" y="437"/>
      <point x="368" y="460"/>
      <point x="421" y="460" type="curve" smooth="yes" name="hr01"/>
      <point x="495" y="460" type="line"/>
      <point x="495" y="539" type="line" smooth="yes"/>
      <point x="495" y="673"/>
      <point x="431" y="752"/>
      <point x="298" y="752" type="curve" smooth="yes"/>
      <point x="165" y="752"/>
      <point x="101" y="673"/>
      <point x="101" y="539" type="curve" smooth="yes"/>
      <point x="101" y="516" type="line"/>
      <point x="26" y="516" type="line"/>
      <point x="26" y="449" type="line"/>
      <point x="101" y="449" type="line"/>
      <point x="101" y="0" type="line"/>
      <point x="177" y="0" type="line"/>
      <point x="177" y="535" type="line" smooth="yes"/>
      <point x="177" y="643"/>
      <point x="207" y="687"/>
      <point x="299" y="687" type="curve" smooth="yes"/>
      <point x="391" y="687"/>
      <point x="421" y="643"/>
      <point x="421" y="535" type="curve" smooth="yes"/>
      <point x="421" y="522" type="line"/>
      <point x="319" y="521"/>
      <point x="261" y="469"/>
      <point x="261" y="377" type="curve" smooth="yes"/>
      <point x="261" y="293"/>
      <point x="302" y="257"/>
      <point x="394" y="229" type="curve" smooth="yes"/>
      <point x="420" y="221" type="line" smooth="yes"/>
      <point x="467" y="207"/>
      <point x="484" y="182"/>
      <point x="484" y="139" type="curve" smooth="yes" name="hr02"/>
      <point x="484" y="85"/>
      <point x="458" y="53"/>
      <point x="397" y="53" type="curve" smooth="yes"/>
      <point x="346" y="53"/>
      <point x="312" y="74"/>
      <point x="281" y="116" type="curve"/>
      <point x="230" y="71" type="line"/>
      <point x="267" y="19"/>
      <point x="316" y="-12"/>
      <point x="392" y="-12" type="curve" smooth="yes"/>
      <point x="500" y="-12"/>
      <point x="557" y="48"/>
    </contour>
  </outline>
</glyph>
<glyph name="ae" format="1">
  <advance width="782"/>
  <unicode hex="00E6"/>
  <outline>
    <contour>
      <point x="333" y="238" type="line" name="hr00"/>
      <point x="333" y="158" type="line" smooth="yes"/>
      <point x="333" y="105"/>
      <point x="277" y="54"/>
      <point x="207" y="54" type="curve" smooth="yes"/>
      <point x="153" y="54"/>
      <point x="118" y="78"/>
      <point x="118" y="130" type="curve" smooth="yes"/>
      <point x="118" y="158" type="line" smooth="yes"/>
      <point x="118" y="209"/>
      <point x="153" y="238"/>
      <point x="233" y="238" type="curve" smooth="yes"/>
    </contour>
    <contour>
      <point x="409" y="296" type="line"/>
      <point x="409" y="310" type="line" smooth="yes"/>
      <point x="409" y="411"/>
      <point x="457" y="464"/>
      <point x="539" y="464" type="curve" smooth="yes"/>
      <point x="618" y="464"/>
      <point x="659" y="411"/>
      <point x="659" y="310" type="curve" smooth="yes"/>
      <point x="659" y="296" type="line"/>
    </contour>
    <contour>
      <point x="539" y="55" type="curve" smooth="yes"/>
      <point x="458" y="55"/>
      <point x="409" y="105"/>
      <point x="409" y="206" type="curve" smooth="yes"/>
      <point x="409" y="238" type="line"/>
      <point x="740" y="238" type="line"/>
      <point x="740" y="257" type="line" smooth="yes"/>
      <point x="740" y="450"/>
      <point x="660" y="528"/>
      <point x="539" y="528" type="curve" smooth="yes"/>
      <point x="461" y="528"/>
      <point x="396" y="478"/>
      <point x="380" y="410" type="curve"/>
      <point x="370" y="410" type="line"/>
      <point x="358" y="482"/>
      <point x="304" y="527"/>
      <point x="225" y="527" type="curve" smooth="yes"/>
      <point x="146" y="527"/>
      <point x="84" y="483"/>
      <point x="57" y="428" type="curve"/>
      <point x="102" y="386" type="line"/>
      <point x="128" y="435"/>
      <point x="163" y="462"/>
      <point x="222" y="462" type="curve" smooth="yes"/>
      <point x="296" y="462"/>
      <point x="333" y="424"/>
      <point x="333" y="348" type="curve" smooth="yes"/>
      <point x="333" y="296" type="line"/>
      <point x="235" y="296" type="line" smooth="yes"/>
      <point x="101" y="296"/>
      <point x="39" y="235"/>
      <point x="39" y="138" type="curve" smooth="yes"/>
      <point x="39" y="40"/>
      <point x="88" y="-12"/>
      <point x="188" y="-12" type="curve" smooth="yes"/>
      <point x="279" y="-12"/>
      <point x="350" y="38"/>
      <point x="366" y="106" type="curve"/>
      <point x="376" y="106" type="line"/>
      <point x="392" y="38"/>
      <point x="459" y="-12"/>
      <point x="539" y="-12" type="curve" smooth="yes"/>
      <point x="635" y="-12"/>
      <point x="696" y="37"/>
      <point x="728" y="107" type="curve"/>
      <point x="676" y="145" type="line"/>
      <point x="651" y="86"/>
      <point x="608" y="55"/>
    </contour>
    <contour>
      <point x="379" y="540" type="move" name="top"/>
    </contour>
  </outline>
</glyph>
<glyph name="ccedilla" format="1">
  <advance width="454"/>
  <unicode hex="00E7"/>
  <outline>
    <contour>
      <point x="246" y="528" type="curve" smooth="yes" name="hr00"/>
      <point x="118" y="528"/>
      <point x="41" y="450"/>
      <point x="41" y="258" type="curve" smooth="yes"/>
      <point x="41" y="78"/>
      <point x="109" y="-2"/>
      <point x="223" y="-11" type="curve"/>
      <point x="209" y="-87" type="line"/>
      <point x="258" y="-87" type="line" smooth="yes"/>
      <point x="286" y="-87"/>
      <point x="300" y="-97"/>
      <point x="300" y="-121" type="curve" smooth="yes"/>
      <point x="300" y="-145"/>
      <point x="286" y="-155"/>
      <point x="258" y="-155" type="curve" smooth="yes"/>
      <point x="231" y="-155"/>
      <point x="214" y="-141"/>
      <point x="201" y="-127" type="curve"/>
      <point x="166" y="-166" type="line"/>
      <point x="180" y="-184"/>
      <point x="208" y="-207"/>
      <point x="258" y="-207" type="curve" smooth="yes"/>
      <point x="312" y="-207"/>
      <point x="360" y="-180"/>
      <point x="360" y="-124" type="curve" smooth="yes"/>
      <point x="360" y="-79"/>
      <point x="339" y="-54"/>
      <point x="302" y="-54" type="curve" smooth="yes"/>
      <point x="282" y="-54"/>
      <point x="273" y="-61"/>
      <point x="266" y="-70" type="curve"/>
      <point x="258" y="-70" type="line"/>
      <point x="269" y="-11" type="line"/>
      <point x="348" y="-4"/>
      <point x="403" y="41"/>
      <point x="431" y="106" type="curve"/>
      <point x="375" y="145" type="line"/>
      <point x="351" y="86"/>
      <point x="312" y="56"/>
      <point x="246" y="56" type="curve" smooth="yes"/>
      <point x="162" y="56"/>
      <point x="123" y="105"/>
      <point x="123" y="206" type="curve" smooth="yes"/>
      <point x="123" y="310" type="line" smooth="yes"/>
      <point x="123" y="411"/>
      <point x="162" y="460"/>
      <point x="246" y="460" type="curve" smooth="yes"/>
      <point x="310" y="460"/>
      <point x="346" y="430"/>
      <point x="363" y="377" type="curve"/>
      <point x="426" y="409" type="line"/>
      <point x="399" y="478"/>
      <point x="343" y="528"/>
    </contour>
  </outline>
</glyph>
<glyph name="eth" format="1">
  <advance width="502"/>
  <unicode hex="00F0"/>
  <outline>
    <contour>
      <point x="351" y="752" type="line" name="hr00"/>
      <point x="274" y="696" type="line"/>
      <point x="254" y="713"/>
      <point x="234" y="728"/>
      <point x="214" y="740" type="curve"/>
      <point x="98" y="740" type="line"/>
      <point x="140" y="717"/>
      <point x="181" y="687"/>
      <point x="217" y="654" type="curve"/>
      <point x="146" y="602" type="line"/>
      <point x="175" y="562" type="line"/>
      <point x="253" y="619" type="line"/>
      <point x="311" y="557"/>
      <point x="353" y="486"/>
      <point x="367" y="418" type="curve"/>
      <point x="357" y="418" type="line"/>
      <point x="335" y="471"/>
      <point x="298" y="504"/>
      <point x="238" y="504" type="curve" smooth="yes"/>
      <point x="116" y="504"/>
      <point x="42" y="413"/>
      <point x="42" y="246" type="curve" smooth="yes"/>
      <point x="42" y="79"/>
      <point x="115" y="-12"/>
      <point x="250" y="-12" type="curve" smooth="yes"/>
      <point x="379" y="-12"/>
      <point x="458" y="70"/>
      <point x="458" y="269" type="curve" smooth="yes"/>
      <point x="458" y="440"/>
      <point x="392" y="573"/>
      <point x="310" y="661" type="curve"/>
      <point x="380" y="712" type="line"/>
    </contour>
    <contour>
      <point x="250" y="56" type="curve" smooth="yes"/>
      <point x="170" y="56"/>
      <point x="124" y="99"/>
      <point x="124" y="203" type="curve" smooth="yes"/>
      <point x="124" y="289" type="line" smooth="yes"/>
      <point x="124" y="393"/>
      <point x="170" y="436"/>
      <point x="250" y="436" type="curve" smooth="yes"/>
      <point x="330" y="436"/>
      <point x="376" y="393"/>
      <point x="376" y="289" type="curve" smooth="yes"/>
      <point x="376" y="203" type="line" smooth="yes"/>
      <point x="376" y="99"/>
      <point x="330" y="56"/>
    </contour>
  </outline>
</glyph>
<glyph name="divide" format="1">
  <advance width="540"/>
  <unicode hex="00F7"/>
  <outline>
    <contour>
      <point x="480" y="273" type="line" name="hr00"/>
      <point x="480" y="337" type="line"/>
      <point x="60" y="337" type="line"/>
      <point x="60" y="273" type="line"/>
    </contour>
    <contour>
      <point x="270" y="59" type="curve" smooth="yes"/>
      <point x="312" y="59"/>
      <point x="327" y="79"/>
      <point x="327" y="105" type="curve" smooth="yes"/>
      <point x="327" y="125" type="line" smooth="yes"/>
      <point x="327" y="151"/>
      <point x="312" y="171"/>
      <point x="270" y="171" type="curve" smooth="yes"/>
      <point x="228" y="171"/>
      <point x="213" y="151"/>
      <point x="213" y="125" type="curve" smooth="yes"/>
      <point x="213" y="105" type="line" smooth="yes"/>
      <point x="213" y="79"/>
      <point x="228" y="59"/>
    </contour>
    <contour>
      <point x="270" y="439" type="curve" smooth="yes"/>
      <point x="312" y="439"/>
      <point x="327" y="459"/>
      <point x="327" y="485" type="curve" smooth="yes"/>
      <point x="327" y="505" type="line" smooth="yes"/>
      <point x="327" y="531"/>
      <point x="312" y="551"/>
      <point x="270" y="551" type="curve" smooth="yes"/>
      <point x="228" y="551"/>
      <point x="213" y="531"/>
      <point x="213" y="505" type="curve" smooth="yes"/>
      <point x="213" y="485" type="line" smooth="yes"/>
      <point x="213" y="459"/>
      <point x="228" y="439"/>
    </contour>
  </outline>
</glyph>
<glyph name="oslash" format="1">
  <advance width="504"/>
  <unicode hex="00F8"/>
  <outline>
    <contour>
      <point x="252" y="-12" type="curve" smooth="yes" name="hr00"/>
      <point x="373" y="-12"/>
      <point x="463" y="66"/>
      <point x="463" y="258" type="curve" smooth="yes"/>
      <point x="463" y="338"/>
      <point x="448" y="398"/>
      <point x="421" y="441" type="curve"/>
      <point x="479" y="520" type="line"/>
      <point x="435" y="552" type="line"/>
      <point x="384" y="483" type="line"/>
      <point x="349" y="514"/>
      <point x="303" y="528"/>
      <point x="252" y="528" type="curve" smooth="yes"/>
      <point x="131" y="528"/>
      <point x="41" y="450"/>
      <point x="41" y="258" type="curve" smooth="yes"/>
      <point x="41" y="178"/>
      <point x="56" y="118"/>
      <point x="83" y="75" type="curve"/>
      <point x="25" y="-4" type="line"/>
      <point x="69" y="-36" type="line"/>
      <point x="120" y="33" type="line"/>
      <point x="155" y="2"/>
      <point x="201" y="-12"/>
    </contour>
    <contour>
      <point x="121" y="131" type="line"/>
      <point x="123" y="215" type="line"/>
      <point x="123" y="310" type="line" smooth="yes"/>
      <point x="123" y="411"/>
      <point x="170" y="460"/>
      <point x="252" y="460" type="curve" smooth="yes"/>
      <point x="291" y="460"/>
      <point x="323" y="448"/>
      <point x="344" y="427" type="curve"/>
      <point x="186" y="212" type="line"/>
      <point x="130" y="131" type="line"/>
    </contour>
    <contour>
      <point x="318" y="304" type="line"/>
      <point x="374" y="385" type="line"/>
      <point x="383" y="385" type="line"/>
      <point x="381" y="301" type="line"/>
      <point x="381" y="206" type="line" smooth="yes"/>
      <point x="381" y="105"/>
      <point x="334" y="56"/>
      <point x="252" y="56" type="curve" smooth="yes"/>
      <point x="213" y="56"/>
      <point x="181" y="68"/>
      <point x="160" y="89" type="curve"/>
    </contour>
    <contour>
      <point x="252" y="540" type="move" name="top"/>
    </contour>
  </outline>
</glyph>
<glyph name="Aogonek" format="1">
  <advance width="579"/>
  <unicode hex="0104"/>
  <outline>
    <contour>
      <point x="578" y="-168" type="curve" name="hr00"/>
      <point x="543" y="-132" type="line"/>
      <point x="532" y="-147"/>
      <point x="517" y="-154"/>
      <point x="498" y="-154" type="curve" smooth="yes"/>
      <point x="475" y="-154"/>
      <point x="462" y="-141"/>
      <point x="462" y="-120" type="curve" smooth="yes"/>
      <point x="462" y="-82"/>
      <point x="486" y="-53"/>
      <point x="558" y="0" type="curve"/>
      <point x="339" y="698" type="line"/>
      <point x="239" y="698" type="line"/>
      <point x="21" y="0" type="line"/>
      <point x="101" y="0" type="line"/>
      <point x="163" y="209" type="line"/>
      <point x="414" y="209" type="line"/>
      <point x="476" y="0" type="line"/>
      <point x="507" y="0" type="line"/>
      <point x="509" y="-9" type="line"/>
      <point x="435" y="-48"/>
      <point x="399" y="-90"/>
      <point x="399" y="-138" type="curve" smooth="yes"/>
      <point x="399" y="-181"/>
      <point x="435" y="-207"/>
      <point x="494" y="-207" type="curve" smooth="yes"/>
      <point x="533" y="-207"/>
      <point x="565" y="-188"/>
    </contour>
    <contour>
      <point x="396" y="275" type="line"/>
      <point x="182" y="275" type="line"/>
      <point x="261" y="540" type="line"/>
      <point x="283" y="627" type="line"/>
      <point x="293" y="627" type="line"/>
      <point x="315" y="540" type="line"/>
    </contour>
  </outline>
</glyph>
<glyph name="aogonek" format="1">
  <advance width="483"/>
  <unicode hex="0105"/>
  <outline>
    <contour>
      <point x="476" y="-168" type="curve"/>
      <point x="441" y="-132" type="line"/>
      <point x="430" y="-147"/>
      <point x="415" y="-154"/>
      <point x="396" y="-154" type="curve" smooth="yes"/>
      <point x="376" y="-154"/>
      <point x="360" y="-144"/>
      <point x="360" y="-120" type="curve" smooth="yes"/>
      <point x="360" y="-81"/>
      <point x="386" y="-51"/>
      <point x="456" y="0" type="curve"/>
      <point x="456" y="67" type="line"/>
      <point x="404" y="67" type="line" name="hr01"/>
      <point x="404" y="359" type="line" smooth="yes"/>
      <point x="404" y="469"/>
      <point x="341" y="527"/>
      <point x="225" y="527" type="curve" smooth="yes"/>
      <point x="146" y="527"/>
      <point x="84" y="483"/>
      <point x="57" y="428" type="curve"/>
      <point x="102" y="386" type="line"/>
      <point x="128" y="435"/>
      <point x="163" y="462"/>
      <point x="222" y="462" type="curve" smooth="yes"/>
      <point x="295" y="462"/>
      <point x="328" y="427"/>
      <point x="328" y="351" type="curve" smooth="yes"/>
      <point x="328" y="294" type="line"/>
      <point x="235" y="294" type="line" smooth="yes"/>
      <point x="101" y="294"/>
      <point x="39" y="234"/>
      <point x="39" y="138" type="curve" smooth="yes"/>
      <point x="39" y="40"/>
      <point x="88" y="-12"/>
      <point x="188" y="-12" type="curve" smooth="yes" name="hr02"/>
      <point x="251" y="-12"/>
      <point x="301" y="22"/>
      <point x="318" y="84" type="curve"/>
      <point x="328" y="84" type="line"/>
      <point x="328" y="74" type="line" smooth="yes"/>
      <point x="328" y="26"/>
      <point x="354" y="0"/>
      <point x="402" y="0" type="curve" name="hr03"/>
      <point x="407" y="-9" type="line"/>
      <point x="346" y="-41"/>
      <point x="297" y="-82"/>
      <point x="297" y="-138" type="curve" smooth="yes"/>
      <point x="297" y="-185"/>
      <point x="338" y="-207"/>
      <point x="392" y="-207" type="curve" smooth="yes"/>
      <point x="431" y="-207"/>
      <point x="463" y="-188"/>
    </contour>
    <contour>
      <point x="207" y="54" type="curve" smooth="yes" name="hr04"/>
      <point x="153" y="54"/>
      <point x="118" y="78"/>
      <point x="118" y="130" type="curve" smooth="yes"/>
      <point x="118" y="158" type="line" smooth="yes"/>
      <point x="118" y="208"/>
      <point x="153" y="236"/>
      <point x="233" y="236" type="curve" smooth="yes"/>
      <point x="328" y="236" type="line"/>
      <point x="328" y="158" type="line" smooth="yes"/>
      <point x="328" y="105"/>
      <point x="277" y="54"/>
    </contour>
  </outline>
</glyph>
<glyph name="Dcroat" format="1">
  <advance width="610"/>
  <unicode hex="0110"/>
  <outline>
    <contour>
      <point x="86" y="0" type="line" name="hr00"/>
      <point x="305" y="0" type="line" smooth="yes"/>
      <point x="466" y="0"/>
      <point x="558" y="106"/>
      <point x="558" y="349" type="curve" smooth="yes"/>
      <point x="558" y="592"/>
      <point x="466" y="698"/>
      <point x="305" y="698" type="curve" smooth="yes"/>
      <point x="86" y="698" type="line"/>
      <point x="86" y="396" type="line"/>
      <point x="22" y="396" type="line"/>
      <point x="22" y="336" type="line"/>
      <point x="86" y="336" type="line"/>
    </contour>
    <contour>
      <point x="166" y="70" type="line"/>
      <point x="166" y="336" type="line"/>
      <point x="290" y="336" type="line"/>
      <point x="290" y="396" type="line"/>
      <point x="166" y="396" type="line"/>
      <point x="166" y="628" type="line"/>
      <point x="305" y="628" type="line" smooth="yes"/>
      <point x="405" y="628"/>
      <point x="472" y="556"/>
      <point x="472" y="427" type="curve" smooth="yes"/>
      <point x="472" y="271" type="line" smooth="yes"/>
      <point x="472" y="142"/>
      <point x="405" y="70"/>
      <point x="305" y="70" type="curve" smooth="yes"/>
    </contour>
  </outline>
</glyph>
<glyph name="dcroat" format="1">
  <advance width="524"/>
  <unicode hex="0111"/>
  <outline>
    <contour>
      <point x="372" y="0" type="line"/>
      <point x="448" y="0" type="line"/>
      <point x="448" y="614" type="line"/>
      <point x="508" y="614" type="line"/>
      <point x="508" y="670" type="line"/>
      <point x="448" y="670" type="line"/>
      <point x="448" y="740" type="line"/>
      <point x="372" y="740" type="line"/>
      <point x="372" y="670" type="line"/>
      <point x="237" y="670" type="line"/>
      <point x="237" y="614" type="line"/>
      <point x="372" y="614" type="line"/>
      <point x="372" y="432" type="line"/>
      <point x="362" y="432" type="line"/>
      <point x="342" y="499"/>
      <point x="296" y="528"/>
      <point x="232" y="528" type="curve" smooth="yes"/>
      <point x="109" y="528"/>
      <point x="44" y="424"/>
      <point x="44" y="258" type="curve" smooth="yes"/>
      <point x="44" y="92"/>
      <point x="109" y="-12"/>
      <point x="232" y="-12" type="curve" smooth="yes" name="hr01"/>
      <point x="296" y="-12"/>
      <point x="342" y="17"/>
      <point x="362" y="84" type="curve" name="hr02"/>
      <point x="372" y="84" type="line"/>
    </contour>
    <contour>
      <point x="255" y="56" type="curve" smooth="yes" name="hr03"/>
      <point x="171" y="56"/>
      <point x="126" y="112"/>
      <point x="126" y="206" type="curve" smooth="yes"/>
      <point x="126" y="310" type="line" smooth="yes"/>
      <point x="126" y="404"/>
      <point x="171" y="460"/>
      <point x="255" y="460" type="curve" smooth="yes"/>
      <point x="319" y="460"/>
      <point x="372" y="420"/>
      <point x="372" y="362" type="curve" smooth="yes"/>
      <point x="372" y="154" type="line" smooth="yes"/>
      <point x="372" y="96"/>
      <point x="319" y="56"/>
    </contour>
  </outline>
</glyph>
<glyph name="edotaccent" format="1">
  <advance width="495"/>
  <unicode hex="0117"/>
  <outline>
    <component base="e"/>
    <component base="dotaccent" xOffset="-18"/>
    <contour>
      <point x="255.0" y="0.0" type="move" name="bottom"/>
    </contour>
    <contour>
      <point x="325.0" y="0.0" type="move" name="bottomright"/>
    </contour>
  </outline>
</glyph>
<glyph name="Eogonek" format="1">
  <advance width="526"/>
  <unicode hex="0118"/>
  <outline>
    <contour>
      <point x="83" y="0" type="line" name="hr00"/>
      <point x="419" y="0" type="line"/>
      <point x="420" y="-9" type="line"/>
      <point x="346" y="-48"/>
      <point x="310" y="-90"/>
      <point x="310" y="-138" type="curve" smooth="yes"/>
      <point x="310" y="-181"/>
      <point x="346" y="-207"/>
      <point x="405" y="-207" type="curve" smooth="yes"/>
      <point x="440" y="-207"/>
      <point x="474" y="-191"/>
      <point x="489" y="-168" type="curve"/>
      <point x="454" y="-132" type="line"/>
      <point x="443" y="-147"/>
      <point x="428" y="-154"/>
      <point x="409" y="-154" type="curve" smooth="yes"/>
      <point x="386" y="-154"/>
      <point x="373" y="-141"/>
      <point x="373" y="-120" type="curve" smooth="yes"/>
      <point x="373" y="-82"/>
      <point x="397" y="-53"/>
      <point x="469" y="0" type="curve"/>
      <point x="469" y="70" type="line"/>
      <point x="163" y="70" type="line"/>
      <point x="163" y="318" type="line"/>
      <point x="450" y="318" type="line"/>
      <point x="450" y="388" type="line"/>
      <point x="163" y="388" type="line"/>
      <point x="163" y="628" type="line"/>
      <point x="469" y="628" type="line"/>
      <point x="469" y="698" type="line"/>
      <point x="83" y="698" type="line"/>
    </contour>
  </outline>
</glyph>
<glyph name="eogonek" format="1">
  <advance width="495"/>
  <unicode hex="0119"/>
  <outline>
    <contour>
      <point x="305" y="-207" type="curve" smooth="yes" name="hr00"/>
      <point x="344" y="-207"/>
      <point x="376" y="-188"/>
      <point x="389" y="-168" type="curve"/>
      <point x="354" y="-132" type="line"/>
      <point x="343" y="-147"/>
      <point x="328" y="-154"/>
      <point x="309" y="-154" type="curve" smooth="yes"/>
      <point x="289" y="-154"/>
      <point x="273" y="-144"/>
      <point x="273" y="-120" type="curve" smooth="yes"/>
      <point x="273" y="-89"/>
      <point x="292" y="-62"/>
      <point x="394" y="40" type="curve" smooth="yes"/>
      <point x="414" y="60"/>
      <point x="429" y="81"/>
      <point x="441" y="107" type="curve"/>
      <point x="389" y="145" type="line"/>
      <point x="364" y="86"/>
      <point x="321" y="55"/>
      <point x="252" y="55" type="curve" smooth="yes"/>
      <point x="171" y="55"/>
      <point x="122" y="105"/>
      <point x="122" y="206" type="curve" smooth="yes"/>
      <point x="122" y="239" type="line"/>
      <point x="453" y="239" type="line"/>
      <point x="453" y="258" type="line" smooth="yes"/>
      <point x="453" y="450"/>
      <point x="373" y="528"/>
      <point x="252" y="528" type="curve" smooth="yes"/>
      <point x="131" y="528"/>
      <point x="41" y="450"/>
      <point x="41" y="258" type="curve" smooth="yes"/>
      <point x="41" y="66"/>
      <point x="131" y="-12"/>
      <point x="252" y="-12" type="curve" smooth="yes"/>
      <point x="273" y="-12"/>
      <point x="292" y="-10"/>
      <point x="309" y="-5" type="curve"/>
      <point x="312" y="-12" type="line"/>
      <point x="253" y="-48"/>
      <point x="210" y="-82"/>
      <point x="210" y="-138" type="curve" smooth="yes"/>
      <point x="210" y="-185"/>
      <point x="251" y="-207"/>
    </contour>
    <contour>
      <point x="122" y="297" type="line"/>
      <point x="122" y="310" type="line" smooth="yes"/>
      <point x="122" y="411"/>
      <point x="170" y="464"/>
      <point x="252" y="464" type="curve" smooth="yes"/>
      <point x="331" y="464"/>
      <point x="372" y="411"/>
      <point x="372" y="310" type="curve" smooth="yes"/>
      <point x="372" y="297" type="line"/>
    </contour>
  </outline>
</glyph>
<glyph name="Hbar" format="1">
  <advance width="644"/>
  <unicode hex="0126"/>
  <outline>
    <contour>
      <point x="477" y="0" type="line" name="hr00"/>
      <point x="558" y="0" type="line"/>
      <point x="558" y="519" type="line"/>
      <point x="622" y="519" type="line"/>
      <point x="622" y="579" type="line"/>
      <point x="558" y="579" type="line"/>
      <point x="558" y="698" type="line"/>
      <point x="477" y="698" type="line"/>
      <point x="477" y="579" type="line"/>
      <point x="166" y="579" type="line"/>
      <point x="166" y="698" type="line"/>
      <point x="86" y="698" type="line"/>
      <point x="86" y="579" type="line"/>
      <point x="22" y="579" type="line"/>
      <point x="22" y="519" type="line"/>
      <point x="86" y="519" type="line"/>
      <point x="86" y="0" type="line"/>
      <point x="166" y="0" type="line"/>
      <point x="166" y="318" type="line"/>
      <point x="477" y="318" type="line"/>
    </contour>
    <contour>
      <point x="166" y="388" type="line"/>
      <point x="166" y="519" type="line"/>
      <point x="477" y="519" type="line"/>
      <point x="477" y="388" type="line"/>
    </contour>
  </outline>
</glyph>
<glyph name="Iogonek" format="1">
  <advance width="362"/>
  <unicode hex="012E"/>
  <outline>
    <contour>
      <point x="53" y="0" type="line"/>
      <point x="258" y="0" type="line"/>
      <point x="260" y="-9" type="line"/>
      <point x="186" y="-48"/>
      <point x="150" y="-90"/>
      <point x="150" y="-138" type="curve" smooth="yes"/>
      <point x="150" y="-181"/>
      <point x="186" y="-207"/>
      <point x="245" y="-207" type="curve" smooth="yes"/>
      <point x="284" y="-207"/>
      <point x="316" y="-188"/>
      <point x="329" y="-168" type="curve"/>
      <point x="294" y="-132" type="line"/>
      <point x="283" y="-147"/>
      <point x="268" y="-154"/>
      <point x="249" y="-154" type="curve" smooth="yes"/>
      <point x="226" y="-154"/>
      <point x="213" y="-141"/>
      <point x="213" y="-120" type="curve" smooth="yes"/>
      <point x="213" y="-82"/>
      <point x="237" y="-53"/>
      <point x="309" y="0" type="curve"/>
      <point x="309" y="66" type="line"/>
      <point x="221" y="66" type="line" name="hr01"/>
      <point x="221" y="632" type="line"/>
      <point x="309" y="632" type="line"/>
      <point x="309" y="698" type="line"/>
      <point x="53" y="698" type="line"/>
      <point x="53" y="632" type="line"/>
      <point x="141" y="632" type="line"/>
      <point x="141" y="66" type="line"/>
      <point x="53" y="66" type="line"/>
    </contour>
  </outline>
</glyph>
<glyph name="iogonek" format="1">
  <advance width="228"/>
  <unicode hex="012F"/>
  <outline>
    <contour>
      <point x="114" y="641" type="curve" smooth="yes"/>
      <point x="147" y="641"/>
      <point x="161" y="656"/>
      <point x="161" y="682" type="curve" smooth="yes"/>
      <point x="161" y="698" type="line" smooth="yes"/>
      <point x="161" y="724"/>
      <point x="147" y="739"/>
      <point x="114" y="739" type="curve" smooth="yes"/>
      <point x="81" y="739"/>
      <point x="67" y="724"/>
      <point x="67" y="698" type="curve" smooth="yes"/>
      <point x="67" y="682" type="line" smooth="yes"/>
      <point x="67" y="656"/>
      <point x="81" y="641"/>
    </contour>
    <contour>
      <point x="172" y="-168" type="curve"/>
      <point x="137" y="-132" type="line"/>
      <point x="126" y="-147"/>
      <point x="111" y="-154"/>
      <point x="92" y="-154" type="curve" smooth="yes"/>
      <point x="69" y="-154"/>
      <point x="56" y="-141"/>
      <point x="56" y="-120" type="curve" smooth="yes"/>
      <point x="56" y="-82"/>
      <point x="80" y="-53"/>
      <point x="152" y="0" type="curve" name="hr01"/>
      <point x="152" y="516" type="line"/>
      <point x="76" y="516" type="line"/>
      <point x="76" y="0" type="line"/>
      <point x="101" y="0" type="line"/>
      <point x="103" y="-9" type="line"/>
      <point x="29" y="-48"/>
      <point x="-7" y="-90"/>
      <point x="-7" y="-138" type="curve" smooth="yes"/>
      <point x="-7" y="-181"/>
      <point x="29" y="-207"/>
      <point x="88" y="-207" type="curve" smooth="yes"/>
      <point x="127" y="-207"/>
      <point x="159" y="-188"/>
    </contour>
  </outline>
</glyph>
<glyph name="dotlessi" format="1">
  <advance width="228"/>
  <unicode hex="0131"/>
  <outline>
    <contour>
      <point x="152" y="0" type="line" name=""/>
      <point x="152" y="516" type="line"/>
      <point x="76" y="516" type="line"/>
      <point x="76" y="0" type="line"/>
    </contour>
    <contour>
      <point x="114.0" y="0.0" type="move" name="bottom"/>
    </contour>
    <contour>
      <point x="152.0" y="0.0" type="move" name="bottomright"/>
    </contour>
    <contour>
      <point x="114.0" y="540.0" type="move" name="top"/>
    </contour>
  </outline>
</glyph>
<glyph name="IJ" format="1">
  <advance width="582"/>
  <unicode hex="0132"/>
  <outline>
    <contour>
      <point x="291" y="698" type="line" name="hr00"/>
      <point x="291" y="628" type="line"/>
      <point x="423" y="628" type="line"/>
      <point x="423" y="205" type="line" smooth="yes"/>
      <point x="423" y="107"/>
      <point x="375" y="59"/>
      <point x="292" y="59" type="curve" smooth="yes"/>
      <point x="205" y="59"/>
      <point x="167" y="105"/>
      <point x="154" y="170" type="curve"/>
      <point x="82" y="152" type="line"/>
      <point x="100" y="54"/>
      <point x="168" y="-12"/>
      <point x="292" y="-12" type="curve" smooth="yes"/>
      <point x="418" y="-12"/>
      <point x="503" y="66"/>
      <point x="503" y="190" type="curve" smooth="yes"/>
      <point x="503" y="698" type="line"/>
    </contour>
    <contour>
      <point x="78" y="290" type="line"/>
      <point x="158" y="290" type="line"/>
      <point x="158" y="698" type="line"/>
      <point x="78" y="698" type="line"/>
    </contour>
  </outline>
</glyph>
<glyph name="kgreenlandic" format="1">
  <advance width="477"/>
  <unicode hex="0138"/>
  <outline>
    <contour>
      <point x="371" y="0" type="line" name=""/>
      <point x="462" y="0" type="line"/>
      <point x="276" y="311" type="line"/>
      <point x="447" y="516" type="line"/>
      <point x="355" y="516" type="line"/>
      <point x="226" y="356" type="line"/>
      <point x="154" y="259" type="line"/>
      <point x="146" y="259" type="line"/>
      <point x="152" y="360" type="line"/>
      <point x="152" y="516" type="line"/>
      <point x="76" y="516" type="line"/>
      <point x="76" y="0" type="line"/>
      <point x="152" y="0" type="line"/>
      <point x="152" y="186" type="line"/>
      <point x="220" y="266" type="line"/>
    </contour>
    <contour>
      <point x="265.0" y="0.0" type="move" name="bottom"/>
    </contour>
    <contour>
      <point x="253.0" y="540.0" type="move" name="top"/>
    </contour>
  </outline>
</glyph>
<glyph name="Lslash" format="1">
  <advance width="461"/>
  <unicode hex="0141"/>
  <outline>
    <contour>
      <point x="436" y="70" type="line" name="hr00"/>
      <point x="171" y="70" type="line"/>
      <point x="171" y="300" type="line"/>
      <point x="331" y="358" type="line"/>
      <point x="331" y="426" type="line"/>
      <point x="171" y="366" type="line"/>
      <point x="171" y="698" type="line"/>
      <point x="91" y="698" type="line"/>
      <point x="91" y="336" type="line"/>
      <point x="1" y="302" type="line"/>
      <point x="1" y="239" type="line"/>
      <point x="91" y="271" type="line"/>
      <point x="91" y="0" type="line"/>
      <point x="436" y="0" type="line"/>
    </contour>
  </outline>
</glyph>
<glyph name="lslash" format="1">
  <advance width="252"/>
  <unicode hex="0142"/>
  <outline>
    <contour>
      <point x="217" y="67" type="line" name="hr00"/>
      <point x="152" y="67" type="line"/>
      <point x="152" y="353" type="line"/>
      <point x="237" y="384" type="line"/>
      <point x="237" y="449" type="line"/>
      <point x="152" y="418" type="line"/>
      <point x="152" y="740" type="line"/>
      <point x="76" y="740" type="line"/>
      <point x="76" y="391" type="line"/>
      <point x="16" y="369" type="line"/>
      <point x="16" y="304" type="line"/>
      <point x="76" y="326" type="line"/>
      <point x="76" y="78" type="line" smooth="yes"/>
      <point x="76" y="24"/>
      <point x="100" y="0"/>
      <point x="154" y="0" type="curve" smooth="yes"/>
      <point x="217" y="0" type="line"/>
    </contour>
  </outline>
</glyph>
<glyph name="Eng" format="1">
  <advance width="637"/>
  <unicode hex="014A"/>
  <outline>
    <contour>
      <point x="161" y="0" type="line" name="hr00"/>
      <point x="161" y="453" type="line"/>
      <point x="154" y="597" type="line"/>
      <point x="164" y="597" type="line"/>
      <point x="225" y="453" type="line"/>
      <point x="457" y="0" type="line"/>
      <point x="477" y="0" type="line"/>
      <point x="477" y="-132" type="line"/>
      <point x="403" y="-132" type="line"/>
      <point x="403" y="-200" type="line"/>
      <point x="457" y="-200" type="line" smooth="yes"/>
      <point x="525" y="-200"/>
      <point x="555" y="-170"/>
      <point x="555" y="-102" type="curve" smooth="yes"/>
      <point x="555" y="698" type="line"/>
      <point x="477" y="698" type="line"/>
      <point x="477" y="245" type="line"/>
      <point x="484" y="101" type="line"/>
      <point x="474" y="101" type="line"/>
      <point x="413" y="245" type="line"/>
      <point x="181" y="698" type="line"/>
      <point x="83" y="698" type="line"/>
      <point x="83" y="0" type="line"/>
    </contour>
  </outline>
</glyph>
<glyph name="OE" format="1">
  <advance width="886"/>
  <unicode hex="0152"/>
  <outline>
    <contour>
      <point x="829" y="0" type="line"/>
      <point x="829" y="70" type="line"/>
      <point x="523" y="70" type="line"/>
      <point x="523" y="318" type="line"/>
      <point x="810" y="318" type="line"/>
      <point x="810" y="388" type="line"/>
      <point x="523" y="388" type="line"/>
      <point x="523" y="628" type="line"/>
      <point x="829" y="628" type="line"/>
      <point x="829" y="698" type="line"/>
      <point x="443" y="698" type="line"/>
      <point x="408" y="706"/>
      <point x="364" y="710"/>
      <point x="338" y="710" type="curve" smooth="yes" name="hr01"/>
      <point x="156" y="710"/>
      <point x="51" y="598"/>
      <point x="51" y="349" type="curve" smooth="yes"/>
      <point x="51" y="100"/>
      <point x="156" y="-12"/>
      <point x="338" y="-12" type="curve" smooth="yes"/>
      <point x="364" y="-12"/>
      <point x="408" y="-8"/>
      <point x="443" y="0" type="curve" name="hr02"/>
    </contour>
    <contour>
      <point x="137" y="427" type="line" smooth="yes"/>
      <point x="137" y="556"/>
      <point x="210" y="639"/>
      <point x="338" y="639" type="curve" smooth="yes"/>
      <point x="375" y="639"/>
      <point x="412" y="634"/>
      <point x="443" y="623" type="curve"/>
      <point x="443" y="75" type="line"/>
      <point x="412" y="64"/>
      <point x="375" y="59"/>
      <point x="338" y="59" type="curve" smooth="yes" name="hr03"/>
      <point x="210" y="59"/>
      <point x="137" y="142"/>
      <point x="137" y="271" type="curve" smooth="yes"/>
    </contour>
  </outline>
</glyph>
<glyph name="oe" format="1">
  <advance width="836"/>
  <unicode hex="0153"/>
  <outline>
    <contour>
      <point x="252" y="56" type="curve" smooth="yes" name="hr00"/>
      <point x="170" y="56"/>
      <point x="123" y="105"/>
      <point x="123" y="206" type="curve" smooth="yes"/>
      <point x="123" y="310" type="line" smooth="yes"/>
      <point x="123" y="411"/>
      <point x="170" y="460"/>
      <point x="252" y="460" type="curve" smooth="yes"/>
      <point x="334" y="460"/>
      <point x="381" y="411"/>
      <point x="381" y="310" type="curve" smooth="yes"/>
      <point x="381" y="206" type="line" smooth="yes"/>
      <point x="381" y="105"/>
      <point x="334" y="56"/>
    </contour>
    <contour>
      <point x="463" y="297" type="line"/>
      <point x="463" y="310" type="line" smooth="yes"/>
      <point x="463" y="411"/>
      <point x="511" y="464"/>
      <point x="593" y="464" type="curve" smooth="yes"/>
      <point x="672" y="464"/>
      <point x="713" y="411"/>
      <point x="713" y="310" type="curve" smooth="yes"/>
      <point x="713" y="297" type="line"/>
    </contour>
    <contour>
      <point x="593" y="-12" type="curve" smooth="yes"/>
      <point x="689" y="-12"/>
      <point x="750" y="37"/>
      <point x="782" y="107" type="curve"/>
      <point x="730" y="145" type="line"/>
      <point x="705" y="86"/>
      <point x="662" y="55"/>
      <point x="593" y="55" type="curve" smooth="yes"/>
      <point x="512" y="55"/>
      <point x="463" y="105"/>
      <point x="463" y="206" type="curve" smooth="yes"/>
      <point x="463" y="239" type="line"/>
      <point x="794" y="239" type="line"/>
      <point x="794" y="258" type="line" smooth="yes"/>
      <point x="794" y="450"/>
      <point x="714" y="528"/>
      <point x="593" y="528" type="curve" smooth="yes"/>
      <point x="509" y="528"/>
      <point x="443" y="478"/>
      <point x="427" y="410" type="curve"/>
      <point x="417" y="410" type="line"/>
      <point x="401" y="478"/>
      <point x="336" y="528"/>
      <point x="252" y="528" type="curve" smooth="yes"/>
      <point x="131" y="528"/>
      <point x="41" y="450"/>
      <point x="41" y="258" type="curve"/>
      <point x="41" y="66"/>
      <point x="131" y="-12"/>
      <point x="252" y="-12" type="curve" smooth="yes"/>
      <point x="336" y="-12"/>
      <point x="401" y="38"/>
      <point x="417" y="106" type="curve"/>
      <point x="427" y="106" type="line"/>
      <point x="443" y="38"/>
      <point x="509" y="-12"/>
    </contour>
  </outline>
</glyph>
<glyph name="Scedilla" format="1">
  <advance width="525"/>
  <unicode hex="015E"/>
  <outline>
    <contour>
      <point x="265" y="641" type="curve" smooth="yes" name="hr00"/>
      <point x="340" y="641"/>
      <point x="382" y="612"/>
      <point x="418" y="556" type="curve"/>
      <point x="477" y="598" type="line"/>
      <point x="428" y="675"/>
      <point x="365" y="710"/>
      <point x="268" y="710" type="curve" smooth="yes"/>
      <point x="140" y="710"/>
      <point x="56" y="646"/>
      <point x="56" y="522" type="curve" smooth="yes"/>
      <point x="56" y="414"/>
      <point x="113" y="359"/>
      <point x="235" y="329" type="curve" smooth="yes"/>
      <point x="287" y="316" type="line" smooth="yes"/>
      <point x="373" y="295"/>
      <point x="403" y="262"/>
      <point x="403" y="190" type="curve" smooth="yes"/>
      <point x="403" y="102"/>
      <point x="354" y="57"/>
      <point x="261" y="57" type="curve" smooth="yes"/>
      <point x="189" y="57"/>
      <point x="137" y="93"/>
      <point x="95" y="155" type="curve"/>
      <point x="37" y="107" type="line"/>
      <point x="82" y="40"/>
      <point x="148" y="-4"/>
      <point x="235" y="-11" type="curve"/>
      <point x="221" y="-87" type="line"/>
      <point x="270" y="-87" type="line" smooth="yes"/>
      <point x="298" y="-87"/>
      <point x="312" y="-97"/>
      <point x="312" y="-121" type="curve" smooth="yes"/>
      <point x="312" y="-145"/>
      <point x="298" y="-155"/>
      <point x="270" y="-155" type="curve" smooth="yes"/>
      <point x="243" y="-155"/>
      <point x="226" y="-141"/>
      <point x="213" y="-127" type="curve"/>
      <point x="178" y="-166" type="line"/>
      <point x="192" y="-184"/>
      <point x="220" y="-207"/>
      <point x="270" y="-207" type="curve" smooth="yes"/>
      <point x="324" y="-207"/>
      <point x="372" y="-180"/>
      <point x="372" y="-124" type="curve" smooth="yes"/>
      <point x="372" y="-79"/>
      <point x="351" y="-54"/>
      <point x="314" y="-54" type="curve" smooth="yes"/>
      <point x="294" y="-54"/>
      <point x="285" y="-61"/>
      <point x="278" y="-70" type="curve"/>
      <point x="270" y="-70" type="line"/>
      <point x="281" y="-11" type="line"/>
      <point x="405" y="-5"/>
      <point x="481" y="66"/>
      <point x="481" y="190" type="curve" smooth="yes"/>
      <point x="481" y="305"/>
      <point x="432" y="359"/>
      <point x="302" y="391" type="curve" smooth="yes"/>
      <point x="250" y="404" type="line" smooth="yes"/>
      <point x="169" y="424"/>
      <point x="134" y="455"/>
      <point x="134" y="522" type="curve" smooth="yes"/>
      <point x="134" y="606"/>
      <point x="180" y="641"/>
    </contour>
  </outline>
</glyph>
<glyph name="scedilla" format="1">
  <advance width="439"/>
  <unicode hex="015F"/>
  <outline>
    <contour>
      <point x="227" y="-207" type="curve" smooth="yes"/>
      <point x="281" y="-207"/>
      <point x="329" y="-180"/>
      <point x="329" y="-124" type="curve" smooth="yes"/>
      <point x="329" y="-79"/>
      <point x="308" y="-54"/>
      <point x="271" y="-54" type="curve" smooth="yes"/>
      <point x="251" y="-54"/>
      <point x="242" y="-61"/>
      <point x="235" y="-70" type="curve"/>
      <point x="227" y="-70" type="line"/>
      <point x="238" y="-11" type="line"/>
      <point x="338" y="-5"/>
      <point x="391" y="54"/>
      <point x="391" y="148" type="curve" smooth="yes" name="hr01"/>
      <point x="391" y="227"/>
      <point x="351" y="273"/>
      <point x="246" y="292" type="curve" smooth="yes"/>
      <point x="207" y="299" type="line" smooth="yes"/>
      <point x="149" y="309"/>
      <point x="124" y="330"/>
      <point x="124" y="380" type="curve" smooth="yes"/>
      <point x="124" y="434"/>
      <point x="154" y="463"/>
      <point x="215" y="463" type="curve" smooth="yes"/>
      <point x="273" y="463"/>
      <point x="310" y="434"/>
      <point x="332" y="402" type="curve"/>
      <point x="381" y="447" type="line"/>
      <point x="343" y="499"/>
      <point x="292" y="527"/>
      <point x="215" y="527" type="curve" smooth="yes"/>
      <point x="118" y="527"/>
      <point x="50" y="482"/>
      <point x="50" y="377" type="curve" smooth="yes"/>
      <point x="50" y="288"/>
      <point x="99" y="248"/>
      <point x="198" y="230" type="curve" smooth="yes"/>
      <point x="237" y="223" type="line" smooth="yes"/>
      <point x="298" y="212"/>
      <point x="317" y="184"/>
      <point x="317" y="139" type="curve" smooth="yes"/>
      <point x="317" y="83"/>
      <point x="279" y="52"/>
      <point x="219" y="52" type="curve" smooth="yes"/>
      <point x="161" y="52"/>
      <point x="121" y="79"/>
      <point x="85" y="130" type="curve"/>
      <point x="32" y="86" type="line"/>
      <point x="69" y="32"/>
      <point x="121" y="-4"/>
      <point x="192" y="-11" type="curve"/>
      <point x="178" y="-87" type="line"/>
      <point x="227" y="-87" type="line" smooth="yes"/>
      <point x="255" y="-87"/>
      <point x="269" y="-97"/>
      <point x="269" y="-121" type="curve" smooth="yes" name="hr02"/>
      <point x="269" y="-145"/>
      <point x="255" y="-155"/>
      <point x="227" y="-155" type="curve" smooth="yes"/>
      <point x="200" y="-155"/>
      <point x="183" y="-141"/>
      <point x="170" y="-127" type="curve"/>
      <point x="135" y="-166" type="line"/>
      <point x="149" y="-184"/>
      <point x="177" y="-207"/>
    </contour>
  </outline>
</glyph>
<glyph name="Tcedilla" format="1">
  <advance width="516"/>
  <unicode hex="0162"/>
  <outline>
    <contour>
      <point x="268" y="-207" type="curve" smooth="yes" name=""/>
      <point x="322" y="-207"/>
      <point x="370" y="-180"/>
      <point x="370" y="-124" type="curve" smooth="yes"/>
      <point x="370" y="-79"/>
      <point x="349" y="-54"/>
      <point x="312" y="-54" type="curve" smooth="yes"/>
      <point x="292" y="-54"/>
      <point x="283" y="-61"/>
      <point x="276" y="-70" type="curve"/>
      <point x="268" y="-70" type="line"/>
      <point x="281" y="0" type="line"/>
      <point x="298" y="0" type="line"/>
      <point x="298" y="628" type="line"/>
      <point x="495" y="628" type="line"/>
      <point x="495" y="698" type="line"/>
      <point x="21" y="698" type="line"/>
      <point x="21" y="628" type="line"/>
      <point x="218" y="628" type="line"/>
      <point x="218" y="0" type="line"/>
      <point x="235" y="0" type="line"/>
      <point x="219" y="-87" type="line"/>
      <point x="268" y="-87" type="line" smooth="yes"/>
      <point x="296" y="-87"/>
      <point x="310" y="-97"/>
      <point x="310" y="-121" type="curve" smooth="yes"/>
      <point x="310" y="-145"/>
      <point x="296" y="-155"/>
      <point x="268" y="-155" type="curve" smooth="yes"/>
      <point x="241" y="-155"/>
      <point x="224" y="-141"/>
      <point x="211" y="-127" type="curve"/>
      <point x="176" y="-166" type="line"/>
      <point x="190" y="-184"/>
      <point x="218" y="-207"/>
    </contour>
    <contour>
      <point x="258.0" y="698.0" type="move" name="top"/>
    </contour>
  </outline>
</glyph>
<glyph name="tcedilla" format="1">
  <advance width="318"/>
  <unicode hex="0163"/>
  <outline>
    <contour>
      <point x="203" y="-207" type="curve" smooth="yes" name=""/>
      <point x="257" y="-207"/>
      <point x="305" y="-180"/>
      <point x="305" y="-124" type="curve" smooth="yes"/>
      <point x="305" y="-79"/>
      <point x="284" y="-54"/>
      <point x="247" y="-54" type="curve" smooth="yes"/>
      <point x="227" y="-54"/>
      <point x="218" y="-61"/>
      <point x="211" y="-70" type="curve"/>
      <point x="203" y="-70" type="line"/>
      <point x="216" y="0" type="line"/>
      <point x="273" y="0" type="line"/>
      <point x="273" y="67" type="line"/>
      <point x="178" y="67" type="line"/>
      <point x="178" y="449" type="line"/>
      <point x="278" y="449" type="line"/>
      <point x="278" y="516" type="line"/>
      <point x="178" y="516" type="line"/>
      <point x="178" y="658" type="line"/>
      <point x="109" y="658" type="line"/>
      <point x="109" y="562" type="line" smooth="yes"/>
      <point x="109" y="532"/>
      <point x="101" y="516"/>
      <point x="71" y="516" type="curve" smooth="yes"/>
      <point x="26" y="516" type="line"/>
      <point x="26" y="449" type="line"/>
      <point x="102" y="449" type="line"/>
      <point x="102" y="78" type="line" smooth="yes"/>
      <point x="102" y="27"/>
      <point x="123" y="3"/>
      <point x="170" y="0" type="curve"/>
      <point x="154" y="-87" type="line"/>
      <point x="203" y="-87" type="line" smooth="yes"/>
      <point x="231" y="-87"/>
      <point x="245" y="-97"/>
      <point x="245" y="-121" type="curve" smooth="yes"/>
      <point x="245" y="-145"/>
      <point x="231" y="-155"/>
      <point x="203" y="-155" type="curve" smooth="yes"/>
      <point x="176" y="-155"/>
      <point x="159" y="-141"/>
      <point x="146" y="-127" type="curve"/>
      <point x="111" y="-166" type="line"/>
      <point x="125" y="-184"/>
      <point x="153" y="-207"/>
    </contour>
  </outline>
</glyph>
<glyph name="Tbar" format="1">
  <advance width="516"/>
  <unicode hex="0166"/>
  <outline>
    <contour>
      <point x="442" y="342" type="line" name="hr00"/>
      <point x="442" y="402" type="line"/>
      <point x="298" y="402" type="line"/>
      <point x="298" y="628" type="line"/>
      <point x="495" y="628" type="line"/>
      <point x="495" y="698" type="line"/>
      <point x="21" y="698" type="line"/>
      <point x="21" y="628" type="line"/>
      <point x="218" y="628" type="line"/>
      <point x="218" y="402" type="line"/>
      <point x="74" y="402" type="line"/>
      <point x="74" y="342" type="line"/>
      <point x="218" y="342" type="line"/>
      <point x="218" y="0" type="line"/>
      <point x="298" y="0" type="line"/>
      <point x="298" y="342" type="line"/>
    </contour>
  </outline>
</glyph>
<glyph name="tbar" format="1">
  <advance width="323"/>
  <unicode hex="0167"/>
  <outline>
    <contour>
      <point x="273" y="67" type="line" name="hr00"/>
      <point x="178" y="67" type="line"/>
      <point x="178" y="253" type="line"/>
      <point x="263" y="253" type="line"/>
      <point x="263" y="309" type="line"/>
      <point x="178" y="309" type="line"/>
      <point x="178" y="449" type="line"/>
      <point x="278" y="449" type="line"/>
      <point x="278" y="516" type="line"/>
      <point x="178" y="516" type="line"/>
      <point x="178" y="658" type="line"/>
      <point x="109" y="658" type="line"/>
      <point x="109" y="562" type="line" smooth="yes"/>
      <point x="109" y="532"/>
      <point x="101" y="516"/>
      <point x="71" y="516" type="curve" smooth="yes"/>
      <point x="26" y="516" type="line"/>
      <point x="26" y="449" type="line"/>
      <point x="102" y="449" type="line"/>
      <point x="102" y="309" type="line"/>
      <point x="46" y="309" type="line"/>
      <point x="46" y="253" type="line"/>
      <point x="102" y="253" type="line"/>
      <point x="102" y="78" type="line" smooth="yes"/>
      <point x="102" y="24"/>
      <point x="126" y="0"/>
      <point x="180" y="0" type="curve" smooth="yes"/>
      <point x="273" y="0" type="line"/>
    </contour>
  </outline>
</glyph>
<glyph name="Uogonek" format="1">
  <advance width="611"/>
  <unicode hex="0172"/>
  <outline>
    <contour>
      <point x="78" y="698" type="line" name="hr00"/>
      <point x="78" y="262" type="line" smooth="yes"/>
      <point x="78" y="76"/>
      <point x="137" y="-12"/>
      <point x="305" y="-12" type="curve" smooth="yes"/>
      <point x="337" y="-12"/>
      <point x="365" y="-9"/>
      <point x="389" y="-2" type="curve"/>
      <point x="390" y="-8" type="line"/>
      <point x="308" y="-71"/>
      <point x="291" y="-98"/>
      <point x="291" y="-138" type="curve" smooth="yes"/>
      <point x="291" y="-181"/>
      <point x="327" y="-207"/>
      <point x="386" y="-207" type="curve" smooth="yes"/>
      <point x="425" y="-207"/>
      <point x="457" y="-188"/>
      <point x="470" y="-168" type="curve"/>
      <point x="435" y="-132" type="line"/>
      <point x="424" y="-147"/>
      <point x="409" y="-154"/>
      <point x="390" y="-154" type="curve" smooth="yes"/>
      <point x="367" y="-154"/>
      <point x="354" y="-142"/>
      <point x="354" y="-122" type="curve" smooth="yes"/>
      <point x="354" y="-95"/>
      <point x="364" y="-72"/>
      <point x="467" y="39" type="curve" smooth="yes"/>
      <point x="513" y="88"/>
      <point x="532" y="160"/>
      <point x="532" y="262" type="curve" smooth="yes"/>
      <point x="532" y="698" type="line"/>
      <point x="452" y="698" type="line"/>
      <point x="452" y="246" type="line" smooth="yes"/>
      <point x="452" y="121"/>
      <point x="415" y="59"/>
      <point x="305" y="59" type="curve" smooth="yes"/>
      <point x="195" y="59"/>
      <point x="158" y="121"/>
      <point x="158" y="246" type="curve" smooth="yes"/>
      <point x="158" y="698" type="line"/>
    </contour>
  </outline>
</glyph>
<glyph name="uogonek" format="1">
  <advance width="513"/>
  <unicode hex="0173"/>
  <outline>
    <contour>
      <point x="457" y="-168" type="curve"/>
      <point x="422" y="-132" type="line"/>
      <point x="411" y="-147"/>
      <point x="396" y="-154"/>
      <point x="377" y="-154" type="curve" smooth="yes"/>
      <point x="357" y="-154"/>
      <point x="341" y="-144"/>
      <point x="341" y="-120" type="curve" smooth="yes"/>
      <point x="341" y="-81"/>
      <point x="367" y="-51"/>
      <point x="437" y="0" type="curve"/>
      <point x="437" y="516" type="line"/>
      <point x="361" y="516" type="line"/>
      <point x="361" y="164" type="line" smooth="yes"/>
      <point x="361" y="97"/>
      <point x="312" y="57"/>
      <point x="251" y="57" type="curve" smooth="yes" name="hr01"/>
      <point x="181" y="57"/>
      <point x="147" y="103"/>
      <point x="147" y="185" type="curve" smooth="yes"/>
      <point x="147" y="516" type="line"/>
      <point x="71" y="516" type="line"/>
      <point x="71" y="180" type="line" smooth="yes"/>
      <point x="71" y="50"/>
      <point x="127" y="-12"/>
      <point x="219" y="-12" type="curve" smooth="yes"/>
      <point x="291" y="-12"/>
      <point x="331" y="21"/>
      <point x="351" y="84" type="curve"/>
      <point x="361" y="84" type="line"/>
      <point x="361" y="0" type="line" name="hr02"/>
      <point x="385" y="0" type="line"/>
      <point x="388" y="-9" type="line"/>
      <point x="327" y="-41"/>
      <point x="278" y="-82"/>
      <point x="278" y="-138" type="curve" smooth="yes"/>
      <point x="278" y="-185"/>
      <point x="319" y="-207"/>
      <point x="373" y="-207" type="curve" smooth="yes"/>
      <point x="412" y="-207"/>
      <point x="444" y="-188"/>
    </contour>
  </outline>
</glyph>
<glyph name="longs" format="1">
  <advance width="253"/>
  <unicode hex="017F"/>
  <outline>
    <contour>
      <point x="101" y="0" type="line" name=""/>
      <point x="177" y="0" type="line"/>
      <point x="177" y="516" type="line"/>
      <point x="177" y="673" type="line"/>
      <point x="276" y="673" type="line"/>
      <point x="276" y="740" type="line"/>
      <point x="199" y="740" type="line" smooth="yes"/>
      <point x="131" y="740"/>
      <point x="101" y="710"/>
      <point x="101" y="642" type="curve" smooth="yes"/>
      <point x="101" y="516" type="line"/>
      <point x="26" y="516" type="line"/>
      <point x="26" y="449" type="line"/>
      <point x="101" y="449" type="line"/>
    </contour>
  </outline>
</glyph>
<glyph name="Schwa" format="1">
  <advance width="638"/>
  <unicode hex="018F"/>
  <outline>
    <contour>
      <point x="319" y="-12" type="curve" smooth="yes" name="hr00"/>
      <point x="488" y="-12"/>
      <point x="586" y="100"/>
      <point x="586" y="349" type="curve" smooth="yes"/>
      <point x="586" y="598"/>
      <point x="488" y="710"/>
      <point x="319" y="710" type="curve" smooth="yes"/>
      <point x="189" y="710"/>
      <point x="109" y="635"/>
      <point x="78" y="532" type="curve"/>
      <point x="146" y="502" type="line"/>
      <point x="172" y="589"/>
      <point x="227" y="639"/>
      <point x="319" y="639" type="curve" smooth="yes"/>
      <point x="434" y="639"/>
      <point x="503" y="556"/>
      <point x="503" y="427" type="curve" smooth="yes"/>
      <point x="503" y="369" type="line"/>
      <point x="52" y="369" type="line"/>
      <point x="52" y="349" type="line" smooth="yes"/>
      <point x="52" y="100"/>
      <point x="150" y="-12"/>
    </contour>
    <contour>
      <point x="135" y="271" type="curve" smooth="yes"/>
      <point x="135" y="304" type="line"/>
      <point x="503" y="304" type="line"/>
      <point x="503" y="271" type="line" smooth="yes"/>
      <point x="503" y="142"/>
      <point x="434" y="59"/>
      <point x="319" y="59" type="curve" smooth="yes"/>
      <point x="204" y="59"/>
      <point x="135" y="142"/>
    </contour>
  </outline>
</glyph>
<glyph name="florin" format="1">
  <advance width="436"/>
  <unicode hex="0192"/>
  <outline>
    <contour>
      <point x="-2" y="-134" type="line" name="hr00"/>
      <point x="108" y="-134" type="line" smooth="yes"/>
      <point x="182" y="-134"/>
      <point x="206" y="-110"/>
      <point x="212" y="-41" type="curve" smooth="yes"/>
      <point x="243" y="304" type="line"/>
      <point x="391" y="304" type="line"/>
      <point x="399" y="374" type="line"/>
      <point x="249" y="374" type="line"/>
      <point x="272" y="631" type="line"/>
      <point x="408" y="631" type="line"/>
      <point x="416" y="698" type="line"/>
      <point x="297" y="698" type="line" smooth="yes"/>
      <point x="223" y="698"/>
      <point x="199" y="674"/>
      <point x="193" y="605" type="curve" smooth="yes"/>
      <point x="172" y="374" type="line"/>
      <point x="47" y="374" type="line"/>
      <point x="39" y="304" type="line"/>
      <point x="166" y="304" type="line"/>
      <point x="133" y="-67" type="line"/>
      <point x="6" y="-67" type="line"/>
    </contour>
  </outline>
</glyph>
<glyph name="Ohorn" format="1">
  <advance width="638"/>
  <unicode hex="01A0"/>
  <outline>
    <contour>
      <point x="525" y="810" type="line"/>
      <point x="525" y="698" type="line"/>
      <point x="406" y="698" type="line"/>
      <point x="380" y="706"/>
      <point x="350" y="710"/>
      <point x="319" y="710" type="curve" smooth="yes" name="hr01"/>
      <point x="150" y="710"/>
      <point x="52" y="598"/>
      <point x="52" y="349" type="curve" smooth="yes"/>
      <point x="52" y="100"/>
      <point x="150" y="-12"/>
      <point x="319" y="-12" type="curve"/>
      <point x="488" y="-12"/>
      <point x="586" y="100"/>
      <point x="586" y="349" type="curve" smooth="yes"/>
      <point x="586" y="525"/>
      <point x="542" y="614"/>
      <point x="435" y="639" type="curve"/>
      <point x="435" y="647" type="line" name="hr02"/>
      <point x="531" y="647" type="line" smooth="yes"/>
      <point x="579" y="647"/>
      <point x="591" y="659"/>
      <point x="591" y="707" type="curve" smooth="yes"/>
      <point x="591" y="810" type="line"/>
    </contour>
    <contour>
      <point x="319" y="59" type="curve" smooth="yes"/>
      <point x="204" y="59"/>
      <point x="138" y="142"/>
      <point x="138" y="271" type="curve" smooth="yes"/>
      <point x="138" y="427" type="line" smooth="yes"/>
      <point x="138" y="556"/>
      <point x="204" y="639"/>
      <point x="319" y="639" type="curve" smooth="yes" name="hr03"/>
      <point x="434" y="639"/>
      <point x="500" y="556"/>
      <point x="500" y="427" type="curve" smooth="yes"/>
      <point x="500" y="271" type="line" smooth="yes"/>
      <point x="500" y="142"/>
      <point x="434" y="59"/>
    </contour>
    <contour>
      <point x="319" y="0" type="move" name="bottom"/>
    </contour>
    <contour>
      <point x="319" y="698" type="move" name="top"/>
    </contour>
  </outline>
</glyph>
<glyph name="ohorn" format="1">
  <advance width="504"/>
  <unicode hex="01A1"/>
  <outline>
    <contour>
      <point x="403" y="628" type="line"/>
      <point x="403" y="516" type="line"/>
      <point x="328" y="516" type="line"/>
      <point x="305" y="524"/>
      <point x="279" y="528"/>
      <point x="252" y="528" type="curve" smooth="yes" name="hr01"/>
      <point x="131" y="528"/>
      <point x="41" y="450"/>
      <point x="41" y="258" type="curve"/>
      <point x="41" y="66"/>
      <point x="131" y="-12"/>
      <point x="252" y="-12" type="curve" smooth="yes"/>
      <point x="373" y="-12"/>
      <point x="463" y="66"/>
      <point x="463" y="258" type="curve" smooth="yes"/>
      <point x="463" y="372"/>
      <point x="428" y="440"/>
      <point x="353" y="457" type="curve"/>
      <point x="353" y="465" type="line" name="hr02"/>
      <point x="409" y="465" type="line" smooth="yes"/>
      <point x="457" y="465"/>
      <point x="469" y="477"/>
      <point x="469" y="525" type="curve" smooth="yes"/>
      <point x="469" y="628" type="line"/>
    </contour>
    <contour>
      <point x="252" y="56" type="curve" smooth="yes"/>
      <point x="170" y="56"/>
      <point x="123" y="105"/>
      <point x="123" y="206" type="curve" smooth="yes"/>
      <point x="123" y="310" type="line" smooth="yes"/>
      <point x="123" y="411"/>
      <point x="170" y="460"/>
      <point x="252" y="460" type="curve" smooth="yes" name="hr03"/>
      <point x="334" y="460"/>
      <point x="381" y="411"/>
      <point x="381" y="310" type="curve" smooth="yes"/>
      <point x="381" y="206" type="line" smooth="yes"/>
      <point x="381" y="105"/>
      <point x="334" y="56"/>
    </contour>
    <contour>
      <point x="252" y="0" type="move" name="bottom"/>
    </contour>
    <contour>
      <point x="252" y="540" type="move" name="top"/>
    </contour>
  </outline>
</glyph>
<glyph name="Uhorn" format="1">
  <advance width="617"/>
  <unicode hex="01AF"/>
  <outline>
    <contour>
      <point x="532" y="262" type="curve" smooth="yes" name="hr00"/>
      <point x="532" y="647" type="line"/>
      <point x="543" y="647" type="line" smooth="yes"/>
      <point x="591" y="647"/>
      <point x="603" y="659"/>
      <point x="603" y="707" type="curve" smooth="yes"/>
      <point x="603" y="810" type="line"/>
      <point x="537" y="810" type="line"/>
      <point x="537" y="698" type="line"/>
      <point x="452" y="698" type="line"/>
      <point x="452" y="246" type="line" smooth="yes"/>
      <point x="452" y="121"/>
      <point x="415" y="59"/>
      <point x="305" y="59" type="curve" smooth="yes"/>
      <point x="195" y="59"/>
      <point x="158" y="121"/>
      <point x="158" y="246" type="curve" smooth="yes"/>
      <point x="158" y="698" type="line"/>
      <point x="78" y="698" type="line"/>
      <point x="78" y="262" type="line" smooth="yes"/>
      <point x="78" y="76"/>
      <point x="137" y="-12"/>
      <point x="305" y="-12" type="curve" smooth="yes"/>
      <point x="473" y="-12"/>
      <point x="532" y="76"/>
    </contour>
    <contour>
      <point x="304" y="0" type="move" name="bottom"/>
    </contour>
    <contour>
      <point x="304" y="698" type="move" name="top"/>
    </contour>
  </outline>
</glyph>
